<svg xmlns="http://www.w3.org/2000/svg" data-name="Layer 1" viewBox="0 0 66 66"><path d="M23.49 16.1V7.65a1.06 1.06 0 0 1 2.12 0v8.45a1.06 1.06 0 0 1-2.12 0M33 17.15c.58 0 1.06-.48 1.06-1.06V7.65a1.06 1.06 0 0 0-2.12 0v8.45c0 .58.47 1.06 1.06 1.06m8.45-.01c.58 0 1.06-.48 1.06-1.06V7.65a1.06 1.06 0 0 0-2.12 0v8.45c0 .58.47 1.06 1.06 1.06m23.88 12.46-8.03 6.02v16.38c0 4.08-3.31 7.39-7.39 7.39H16.1c-4.08 0-7.4-3.31-7.4-7.39V35.64L.67 29.62c-.47-.35-.56-1.01-.21-1.48s1.01-.56 1.48-.21L8.7 33v-8.45c0-.58.48-1.06 1.06-1.06h46.48c.58 0 1.06.47 1.06 1.06V33l6.76-5.07c.47-.35 1.13-.25 1.48.21.35.47.25 1.13-.21 1.48M55.19 25.6H10.81v26.41c0 2.92 2.37 5.28 5.28 5.28H49.9c2.92 0 5.28-2.36 5.28-5.28V25.6Z" style="fill:#000;stroke-width:0"></path></svg>