<svg xmlns="http://www.w3.org/2000/svg" data-name="Layer 1" viewBox="0 0 66 66"><path d="M64.62 43.16H51.9c1.87-10.44-5.08-20.41-15.52-22.27-10.44-1.87-20.41 5.08-22.28 15.52-.2 1.11-.3 2.24-.3 3.37s.1 2.27.3 3.39H1.38c-.63 0-1.13.51-1.13 1.13s.5 1.13 1.13 1.13h63.24c.63 0 1.13-.5 1.13-1.13s-.5-1.13-1.13-1.13m-48.56-3.39c0-9.36 7.59-16.94 16.94-16.94 9.36 0 16.94 7.59 16.94 16.94 0 1.14-.11 2.27-.34 3.38H16.4c-.23-1.11-.34-2.25-.34-3.39m40.66 15.82c0 .62-.51 1.13-1.13 1.13H10.41a1.129 1.129 0 1 1 0-2.26h45.17c.62 0 1.13.5 1.13 1.13M18.44 10.92c-.28-.56-.05-1.24.5-1.52.56-.28 1.24-.05 1.52.5l2.26 4.52c.28.56.05 1.24-.5 1.52-.56.28-1.24.05-1.52-.5zM2.63 25.72c.28-.56.96-.78 1.52-.5l4.52 2.26c.56.28.78.96.5 1.52s-.96.78-1.52.5l-4.52-2.26c-.56-.28-.78-.95-.5-1.51Zm54.2 3.27c-.28-.56-.05-1.24.5-1.52l4.52-2.26c.56-.28 1.24-.05 1.52.5.28.56.05 1.24-.5 1.52l-4.52 2.26c-.56.28-1.24.05-1.52-.5M43.28 14.43l2.26-4.52c.28-.56.96-.78 1.52-.5s.78.96.5 1.52l-2.26 4.52c-.28.56-.96.78-1.52.5a1.13 1.13 0 0 1-.5-1.52" style="fill:#000;stroke-width:0"></path></svg>