<svg xmlns="http://www.w3.org/2000/svg" viewBox="0 0 500 500"><path d="M472.19 254.94h-16.87c-1.58-25.64-7.83-50.41-18.63-73.67-1.64-3.55-5.87-5.11-9.45-3.43-3.55 1.64-5.11 5.87-3.43 9.42 9.92 21.39 15.73 44.13 17.28 67.69H115.53c-3.9 0-7.1 3.17-7.1 7.1s3.2 7.1 7.1 7.1h356.66c3.58 0 6.51 2.93 6.51 6.51v8.68c0 3.58-2.93 6.51-6.51 6.51H27.84a6.51 6.51 0 0 1-6.51-6.51v-8.68c0-3.58 2.9-6.51 6.51-6.51h54.57c3.93 0 7.13-3.17 7.13-7.1s-3.2-7.1-7.13-7.1H58.94c3.14-47.21 23.38-91.13 57.51-124.34 32.86-32.01 75.38-50.88 120.79-53.87 0 0 .03.03.06 0 1.94-.12 3.84-.21 5.75-.26.38-.03.73-.03 1.11-.06.67-.03 1.35-.03 2.02-.06 1.26 0 2.55-.03 3.81-.03 1.7 0 3.4.03 5.11.06.5.03 1 .06 1.5.06l3.9.18c.67.03 1.38.09 2.08.12 58.33 3.84 112.02 34.18 145.41 82.83 2.23 3.23 6.66 4.08 9.89 1.85s4.05-6.66 1.85-9.89c-32.89-47.88-84.06-79.25-140.6-87.32 3.55-5.52 5.55-11.97 5.55-18.78 0-3.84-1.73-10.97-13.26-15.23-5.78-2.11-13.38-3.29-21.42-3.29s-15.64 1.17-21.39 3.29c-11.56 4.25-13.26 11.38-13.26 15.23 0 6.78 1.97 13.23 5.49 18.72-42.92 6.07-82.74 25.53-114.31 56.25-36.88 35.91-58.68 83.47-61.85 134.55H27.84c-11.44 0-20.74 9.3-20.74 20.71v8.68c0 11.44 9.3 20.74 20.74 20.74h76.55a89 89 0 0 0-10.91 8.8l-.15.12c-.21.21-.41.44-.62.67l-33.74 40.96c-4.23-2.67-9.24-3.67-14.17-2.7-5.16.97-9.62 3.9-12.56 8.24l-13.29 19.57c-6.04 8.95-3.73 21.18 5.22 27.26l90.81 61.7c3.29 2.23 7.1 3.37 11 3.37 1.23 0 2.46-.12 3.73-.35 5.13-.97 9.59-3.9 12.56-8.24l13.26-19.57c6.07-8.95 3.73-21.18-5.22-27.26l-.5-.35c6.31-7.19 14.73-12.32 23.88-14.44 19.34-4.49 42.04-1.61 57.48.97 19.07 3.14 39.08 2.05 57.92-3.14l26.17-7.22c17.43-4.84 33.48-12.94 47.68-24.12.12-.09.21-.18.32-.26l44.92-39.79c7.66-5.87 9.33-16.02 6.69-24.24h57.33c11.41 0 20.71-9.3 20.71-20.74v-8.68c0-11.41-9.3-20.71-20.71-20.71M250 41.14c11.97 0 19.16 2.96 20.45 4.61a20.42 20.42 0 0 1-9.04 16.67l-4.17-.18c-.47 0-.91-.03-1.38-.03-2-.09-3.93-.12-5.87-.12-1.35 0-2.73.03-4.14.06-.67.03-1.35.03-2.02.06l-2.44.09c-.94.03-1.88.09-2.79.12-5.55-3.73-8.98-9.95-9.07-16.67 1.32-1.64 8.48-4.61 20.45-4.61m50.98 267.35a21 21 0 0 0-1.88-3.4h68.19l-29.49 19.48-42.02 12.18-1.44.03c8.1-6.75 11.06-18.25 6.63-28.28m-77.03-3.41-10.27 2.11-7.92-2.11zm-80.16 131.85-13.26 19.57c-.82 1.2-2.05 2-3.46 2.29-1.44.26-2.88-.03-4.08-.85l-90.78-61.7c-2.49-1.67-3.14-5.05-1.44-7.51L44 369.17c.79-1.2 2.02-2 3.46-2.26.35-.09.67-.12 1.03-.12 1.09 0 2.11.32 3.02.94l4.9 3.35h.03l85.88 58.33c2.46 1.7 3.11 5.08 1.44 7.54m255.7-118.87c-.18.12-.32.26-.5.41l-44.98 39.81c-12.67 9.95-26.99 17.16-42.51 21.48L285.3 387c-16.84 4.67-34.77 5.63-51.81 2.82-16.61-2.76-41.19-5.84-62.99-.79-12.62 2.9-24.12 10.15-32.51 20.24L70.8 363.65l32.63-39.61c12.32-11.62 27.96-18.54 42.92-18.95h.29c4.64-.09 9.56 1.29 14.76 2.73 1.06.29 2.08.59 3.14.88l47.06 12.68c1.09.29 2.2.32 3.29.09l61.64-12.85c2.79-.56 5.72 0 8.07 1.58 1.5 1.03 2.67 2.41 3.37 4.05 2.11 4.78.12 10.42-4.61 12.85l-21.01 11.12c-2.93 1.56-4.4 4.87-3.55 8.07.82 3.2 3.73 5.37 7.01 5.31l31.19-.68c.62 0 1.23-.09 1.82-.26l43.95-12.7c.7-.21 1.35-.53 1.97-.91l44.33-29.34c3.73-2.32 8.66-4.2 11.3-.32 2.05 3.02 2.11 8.48-.91 10.71"></path></svg>