<svg xmlns="http://www.w3.org/2000/svg" viewBox="0 0 500 500"><defs><linearGradient id="am8_svg__a" x1="-1936.47" x2="-1924.34" y1="2068.5" y2="2068.5" gradientTransform="matrix(28.49 0 0 -28.49 55166.61 59177.54)" gradientUnits="userSpaceOnUse"><stop offset="0" stop-color="#fff"></stop><stop offset="0.1" stop-color="#f9f9f9"></stop><stop offset="0.22" stop-color="#e9e9e9"></stop><stop offset="0.36" stop-color="#cecece"></stop><stop offset="0.51" stop-color="#a8a8a8"></stop><stop offset="0.67" stop-color="#787878"></stop><stop offset="0.84" stop-color="#3e3e3e"></stop><stop offset="1"></stop></linearGradient><linearGradient id="am8_svg__d" x1="-1936.47" x2="-1924.34" y1="2068.5" y2="2068.5" gradientTransform="matrix(28.49 0 0 -28.49 55166.61 59177.54)" gradientUnits="userSpaceOnUse"><stop offset="0" stop-color="#ed2024"></stop><stop offset="0.09" stop-color="#e21e22"></stop><stop offset="0.25" stop-color="#c51a1e"></stop><stop offset="0.46" stop-color="#971416"></stop><stop offset="0.7" stop-color="#560b0d"></stop><stop offset="0.98" stop-color="#050000"></stop><stop offset="1"></stop></linearGradient><clipPath id="am8_svg__b"><path d="M230.38 3.15c-29.32 4.09-53.4 8.77-90.73 26.54C102.47 47.4 52.04 78.17 0 150.39c30.15 116.23 62.92 176.36 103.03 229.87 40.36 53.33 87.86 99.8 202.79 119.75-29-7.23-47.07-13.07-61.21-18.15-14.15-5.27-24.26-9.95-34.3-15-10.14-5-19.98-10.67-30.8-18.22-10.77-7.74-22.52-17.56-34.98-30.49-12.22-12.77-25-28.47-36.64-44.15-11.68-15.69-21.97-31.36-32.41-50.26-10.66-18.89-21.44-40.61-32.11-66.75-10.65-25.9-21.05-55.82-32.18-102.61 18.16-24.77 28.82-37.03 40.39-49.13C62.94 93.23 75.2 81.3 90.59 69.63c15.18-11.58 33.25-23 52.96-32.5 19.95-9.43 41.65-16.95 58.02-21.8 16.38-4.86 27.43-7.04 45.98-9.07 18.68-2.1 46.24-7.19 97.89-3.6C320.21.91 299.36.02 281.27.02c-19.44 0-35.71 1.03-50.89 3.15" style="fill:none"></path></clipPath><mask id="am8_svg__c" width="345.43" height="500.95" x="0" y="-0.95" maskUnits="userSpaceOnUse"><path d="M0-.95h345.43V500H0z" style="fill:url(#am8_svg__a)"></path></mask></defs><path d="M355.18 338.39h-101.4v-34.95c9.29-1.39 16.68-7.82 18.45-15.99h44.6c5.71 16.02 27.48 24.6 43.71 18.41l6.31 10.58-11.68 21.96Zm-222.05-21.96 6.31-10.58c16.25 6.17 37.9-2.32 43.71-18.41h44.62c1.76 8.17 9.15 14.6 18.44 15.99v34.95H144.83l-11.69-21.96Zm30.09-50.17s-.07-.01-.11-.01l-19.68 32.95c12.21 3.81 27.27-2.49 32.09-13.02 4.38-9.59-1.9-17.91-12.3-19.91m20.15-19.38h62.84v16.99c-9.29 1.39-16.68 7.82-18.44 15.99h-43.28c-.1-9.96-7.34-17.65-17.32-20.45l2.1-3.52 14.1-9Zm69.38 49.04c7-1.07 12.31-6.17 12.31-12.28 0-6.88-6.76-12.48-15.06-12.48s-15.07 5.6-15.07 12.48c0 6.11 5.32 11.21 12.31 12.28zm77.97-40.03 2.1 3.52c-9.96 2.81-17.23 10.51-17.32 20.45h-43.29c-1.76-8.17-9.15-14.6-18.44-15.99v-16.99h62.84l14.1 9Zm6.17 10.34s-.07.01-.11.01c-10.48 2.06-16.66 10.36-12.3 19.91 4.82 10.53 19.88 16.83 32.11 13.02l-19.7-32.95Zm37.57 48.13-37.7-63.12c-.3-.5-.72-.93-1.22-1.25l-15.77-10.09a3.8 3.8 0 0 0-2.05-.59H182.27c-.73 0-1.43.2-2.05.59L164.45 250c-.5.31-.92.74-1.22 1.25l-37.7 63.12c-.67 1.14-.72 2.56-.09 3.72l13.76 25.86a3.78 3.78 0 0 0 3.35 2.02h214.89c1.4 0 2.69-.77 3.35-2.02l13.77-25.86a3.77 3.77 0 0 0-.1-3.72M167.04 168.9c-.06-5.1 5.9-8.04 9.99-4.94 3.28 2.48 7.64-1.37 5.57-4.94-2.39-4.08.54-9.36 5.38-9.36s7.79 5.27 5.4 9.36c-2.07 3.56 2.29 7.41 5.57 4.94 4.07-3.09 9.95-.19 9.99 5 .07 7.43-10.25 11.41-20.48 11.49-10.59.1-21.36-3.85-21.41-11.55m62 0c-.06-5.1 5.91-8.04 9.99-4.94 3.28 2.48 7.64-1.37 5.57-4.94-2.39-4.09.56-9.36 5.4-9.36s7.79 5.25 5.38 9.36c-.9 1.56-.59 3.55.76 4.75a3.81 3.81 0 0 0 4.81.19c4.05-3.09 9.95-.2 9.99 5 .07 7.43-10.25 11.41-20.47 11.49-10.61.11-21.36-3.85-21.43-11.55m62.01 0c-.03-5.11 5.91-8.04 10-4.94 3.28 2.48 7.61-1.37 5.55-4.94-2.39-4.11.56-9.36 5.4-9.36s7.77 5.3 5.38 9.36c-2.07 3.56 2.29 7.41 5.57 4.94 4.08-3.09 9.95-.19 9.99 5 .07 7.43-10.25 11.41-20.47 11.49-10.61.1-21.36-3.85-21.43-11.55m-128.17 46.42c-2.09 0-3.79 1.69-3.79 3.79s1.7 3.78 3.79 3.78h174.24c2.09 0 3.79-1.69 3.79-3.78s-1.7-3.79-3.79-3.79h-21.31v-27.44c12.52-.97 24.83-7.04 24.73-18.98-.07-7.93-6.77-14.26-14.74-13.76-.39-7.27-6.43-13.05-13.78-13.05s-13.41 5.78-13.8 13.05c-8.06-.5-14.8 5.84-14.73 13.81.06 6.16 3.59 11.44 9.96 14.87 4.09 2.2 9.23 3.61 14.77 4.05v27.44h-54.43v-27.44c12.54-.97 24.83-7.04 24.75-18.98-.07-7.94-6.78-14.27-14.74-13.76-.39-7.27-6.43-13.05-13.78-13.05s-13.41 5.78-13.8 13.05c-8.03-.52-14.8 5.83-14.73 13.81.04 6.16 3.59 11.44 9.95 14.87 4.11 2.2 9.25 3.61 14.79 4.05v27.44h-54.44v-27.44c12.54-.97 24.85-7.04 24.75-18.98-.07-7.93-6.77-14.26-14.74-13.76-.39-7.27-6.43-13.05-13.8-13.05s-13.4 5.78-13.78 13.05c-8.04-.5-14.8 5.83-14.74 13.81.06 6.16 3.59 11.44 9.96 14.87 4.09 2.2 9.23 3.61 14.79 4.05v27.44H162.9Z" style="fill-rule:evenodd"></path><g style="clip-path:url(#am8_svg__b)"><g style="mask:url(#am8_svg__c)"><path d="M0-.95h345.43V500H0z" style="fill:url(#am8_svg__d)"></path></g></g></svg>