<svg xmlns="http://www.w3.org/2000/svg" id="am4_svg__Layer_3" viewBox="0 0 500 500"><defs><style>.am4_svg__st0,.am4_svg__st3{stroke-width:10px;fill:none;stroke:#162a53;stroke-linecap:round;stroke-linejoin:round}.am4_svg__st3{stroke-width:9.3px}</style></defs><path d="M419.1 267.9c-113.4-24.7-226.2-25.4-338.2 0V93.1c112.1 25.1 224.9 24.6 338.2 0z" style="fill:none;stroke:#162a53;stroke-linecap:round;stroke-linejoin:round;stroke-width:11.5px"></path><path d="M397.3 236.6c-72.8-14.3-187.2-14.6-294.6 0v-113c112.2 12.1 225.7 12.3 294.6 0zM117.8 328.5v-22.3c0-9.3 7.6-16.9 16.9-16.9h30.9c9.3 0 16.9 7.6 16.9 16.9v22.3" class="am4_svg__st3"></path><path d="M150.1 347.7h-1.7" class="am4_svg__st0"></path><path d="M182.5 328.5v-22.3c0-9.3 7.6-16.9 16.9-16.9h30.9c9.3 0 16.9 7.6 16.9 16.9v22.3" class="am4_svg__st3"></path><path d="M214.8 347.7" class="am4_svg__st0"></path><path d="M247.1 328.5v-22.3c0-9.3 7.6-16.9 16.9-16.9h30.9c9.3 0 16.9 7.6 16.9 16.9v22.3" class="am4_svg__st3"></path><path d="M279.5 347.7h-.1" class="am4_svg__st0"></path><path d="M311.8 328.5v-22.3c0-9.3 7.6-16.9 16.9-16.9h30.9c9.3 0 16.9 7.6 16.9 16.9v22.3" class="am4_svg__st3"></path><path d="M147.5 380.4c.6-2 .9-4.2.9-6.4v-26.2c-.3-10.6-7.8-19.1-16.9-19.1h-30.9c-9.3 0-16.9 8.9-16.9 19.9v25.5c0 2.3.3 4.4.9 6.4M213.9 380.4c.6-2 .9-4.2.9-6.4v-26.2c-.3-10.6-7.8-19.1-16.9-19.1H167c-9.1 0-16.5 8.5-16.9 19.1V374c0 2.3.3 4.4.9 6.4" class="am4_svg__st0"></path><path d="M278.5 380.4c.6-2 .9-4.2.9-6.4v-26.2c-.3-10.6-7.8-19.1-16.9-19.1h-30.9c-9.1 0-16.5 8.5-16.9 19.1V374c0 2.3.3 4.4.9 6.4M343.2 380.4c.6-2 .9-4.2.9-6.4v-26.2c-.3-10.6-7.8-19.1-16.9-19.1h-30.9c-9.1 0-16.6 8.5-16.9 19.1V374c0 2.3.3 4.4.9 6.4M407.9 380.4c.6-2 .9-4.2.9-6.4v-25.5c0-11-7.6-19.9-16.9-19.9H361c-9.1 0-16.6 8.5-16.9 19.1v26.2c0 2.3.3 4.4.9 6.4" class="am4_svg__st0"></path><path d="M66.3 380.4h363v18.4h-363z" style="fill:none;stroke:#162a53;stroke-linecap:round;stroke-linejoin:round;stroke-width:10.5px"></path></svg>