<svg xmlns="http://www.w3.org/2000/svg" id="am8_svg__Layer_7" data-name="Layer 7" viewBox="0 0 415.12 425.95"><defs><style>.am8_svg__cls-1{stroke-linecap:round;stroke-linejoin:round}.am8_svg__cls-1,.am8_svg__cls-2{stroke-width:11.45px}.am8_svg__cls-1,.am8_svg__cls-2,.am8_svg__cls-3{fill:none;stroke:#162a53}.am8_svg__cls-2,.am8_svg__cls-3{stroke-miterlimit:10}.am8_svg__cls-3{stroke-width:14.05px}</style></defs><path d="M12.43 193.15c.15 4.24 1.67 8.61 2.26 12.76 5.41 38.11 31.59 71.72 65.79 95.59 7.46 5.23 15.44 9.98 23.89 14.19 24.65 12.32 53.14 20.14 83.7 22.01M215.79 337.77c30.57-1.74 59.09-9.4 83.81-21.6 8.46-4.16 16.47-8.85 23.96-14.04 35.3-24.33 62.75-67.92 67.66-107.19" class="am8_svg__cls-3"></path><path d="M391.55 191.46c0 33.43-86.29 60.53-190.5 60.53s-188.69-27.1-188.69-60.53 84.48-60.53 188.68-60.53 190.5 27.1 190.5 60.53Z" class="am8_svg__cls-3"></path><rect width="27.72" height="111.54" x="188.08" y="305.25" class="am8_svg__cls-2" rx="9.86" ry="9.86"></rect><path d="m323.57 302.13 35.77 71.6c3.4 6.83.6 15.19-6.21 18.59s-15.19.62-18.59-6.21l-34.92-69.94M104.38 315.69l-35.16 70.42c-3.4 6.83-11.78 9.61-18.59 6.21s-9.61-11.76-6.21-18.59l36.07-72.23" class="am8_svg__cls-2"></path><path d="M178.66 36.02c-52.09 48.09 8.85 38.07-23.71 77.97M218.31 36.02c-52.09 48.09 8.85 38.07-23.71 77.97M256.95 36.02c-52.09 48.09 8.85 38.07-23.71 77.97M56.02 203.23l35.44-35.43M84.07 214l53.1-53.09M117.88 220.33l64.03-64.02M150.16 226.81l71.29-71.29M189.73 227.06l64.15-64.15M227.8 227.56l58.76-58.76M273.64 221.05l52.2-52.21M318.72 214.29l27.43-27.44" class="am8_svg__cls-1"></path></svg>