<svg xmlns="http://www.w3.org/2000/svg" xml:space="preserve" viewBox="0 0 500 500"><path d="M186.9 419.1c-1.1-2.1-2.4-4.1-4.1-5.9 10-7.4 12-21.6 4.6-31.6-4.3-5.7-11-9.1-18.1-9.1h-76l-30.8-92.3c-1.1-3.4-4.8-5.2-8.2-4.1s-5.2 4.8-4.1 8.2l32.3 96.8c.9 2.6 3.3 4.4 6.1 4.4h80.6c5.3 0 9.7 4.3 9.7 9.7 0 5.3-4.3 9.7-9.7 9.7H82.5c-10.6 0-20.1 6.4-24 16.2l-8 20.1c-1.3 3.3.3 7.1 3.6 8.4s7.1-.3 8.4-3.6l8-20.1c1.9-4.9 6.7-8.1 12-8.1h81.4c4.9 0 9.4 2.8 11.6 7.1l10.8 21.6c1.6 3.2 5.5 4.5 8.7 2.9s4.5-5.5 2.9-8.7zM449.5 441.1l-8-20.1c-3.9-9.8-13.4-16.2-24-16.2h-86.9c-5.3 0-9.7-4.3-9.7-9.7s4.3-9.7 9.7-9.7h80.6c2.8 0 5.3-1.8 6.1-4.4l32.2-96.8c1.1-3.4-.7-7-4.1-8.2-3.4-1.1-7 .7-8.2 4.1l-30.8 92.4h-76c-12.5 0-22.6 10.1-22.6 22.5 0 7.1 3.4 13.8 9.1 18.1-1.6 1.8-3 3.8-4.1 5.9L302 440.5c-1.6 3.2-.3 7.1 2.9 8.7s7.1.3 8.7-2.9l10.8-21.6c2.2-4.4 6.7-7.1 11.5-7.1h81.4c5.3 0 10 3.2 12 8.1l8 20.1c1.3 3.3 5.1 4.9 8.4 3.6 3.5-1.2 5.1-5 3.8-8.3"></path><path d="M275.3 408.9c-1-2.5-3.3-4.1-6-4.1v-45.2H350c10.7 0 19.4-8.7 19.4-19.4s-8.7-19.4-19.4-19.4h-93.5V199.7l114-40.1h73.1c3.6 0 6.5-2.9 6.5-6.5 0-2.2-1.1-4.3-3-5.5-16-10-157-97.8-197-97.8S69 137.8 53 147.8c-3 1.9-3.9 5.9-2 8.9 1.2 1.9 3.2 3 5.4 3h69.9l117.2 40.1V321H150c-10.7 0-19.4 8.7-19.4 19.4s8.7 19.4 19.4 19.4h80.6V405c-2.6 0-5 1.6-6 4.1l-12.9 32.2c-1.3 3.3.3 7.1 3.6 8.4.8.3 1.6.5 2.4.5h64.5c3.6 0 6.5-2.9 6.5-6.4 0-.8-.2-1.6-.5-2.4zm5.8-249.2L256.4 181v-21.4h24.7zM243.5 181l-24.6-21.4h24.6zm36.3-3.2 21-18.1h30.7zM250 62.9c26.8 0 119.4 52.8 170.7 83.9H79.2c51.4-31.1 144-83.9 170.8-83.9m-83.8 96.8h33l21.5 18.6zm-22.6 180.6c0-3.6 2.9-6.5 6.4-6.5h200c3.6 0 6.5 2.9 6.5 6.5s-2.9 6.4-6.5 6.4H150c-3.6.1-6.4-2.8-6.4-6.4m99.9 19.4h12.9v45.2h-12.9zm-16.2 77.4 7.7-19.4h30l7.7 19.4z"></path><path d="M256.5 75.8c0-3.6-2.9-6.5-6.5-6.5-2.9 0-11.6 0-44.6 15.5-3.2 1.5-4.6 5.3-3.1 8.6 1.5 3.2 5.4 4.6 8.6 3.1 27.5-12.9 36.6-14.2 39.2-14.2 3.5 0 6.4-2.9 6.4-6.5M185.8 94.3c-3.1 1.5-6.2 3.1-9.4 4.8-3.2 1.6-4.4 5.5-2.8 8.7s5.5 4.4 8.7 2.8c3.1-1.6 6.2-3.2 9.2-4.7 3.2-1.6 4.5-5.5 2.8-8.7-1.4-3.2-5.3-4.5-8.5-2.9"></path></svg>