<svg xmlns="http://www.w3.org/2000/svg" data-name="Layer 1" viewBox="0 0 66 66"><path d="M56.72 24.03v-5.71c0-5.61-4.55-10.17-10.17-10.17H19.44c-5.61 0-10.17 4.55-10.17 10.17v5.71C3.7 24.66-.31 29.69.31 35.27c.53 4.72 4.25 8.44 8.97 8.97v10.23c0 1.87 1.52 3.39 3.39 3.39h40.66c1.87 0 3.39-1.52 3.39-3.39V44.24c5.58-.63 9.59-5.66 8.97-11.24-.53-4.72-4.25-8.44-8.97-8.97M19.45 10.41h27.11c4.37 0 7.91 3.54 7.91 7.91v5.71a10.18 10.18 0 0 0-9.04 10.1v1.13H20.58v-1.13c0-5.18-3.89-9.52-9.04-10.1v-5.71c0-4.37 3.54-7.91 7.91-7.91m36.22 31.63h-.09c-.62 0-1.13.51-1.13 1.13v11.3c0 .62-.51 1.13-1.13 1.13H12.67c-.63 0-1.13-.51-1.13-1.13v-11.3c0-.62-.51-1.13-1.13-1.13h-.09c-4.37-.05-7.87-3.63-7.82-7.99.05-4.37 3.63-7.87 7.99-7.82 4.33.05 7.82 3.57 7.82 7.91v11.29a1.129 1.129 0 1 0 2.26 0v-7.91h24.85v7.91a1.129 1.129 0 1 0 2.26 0V34.14c0-4.37 3.54-7.91 7.91-7.91s7.91 3.54 7.91 7.91-3.49 7.86-7.82 7.91" style="fill:#000;stroke-width:0"></path></svg>