<svg xmlns="http://www.w3.org/2000/svg" xml:space="preserve" viewBox="0 0 500 500"><path d="M151.3 214.6 83 146.3c-8.2-8-21.2-7.8-29.2.4-8 8.1-7.8 21.2.4 29.2l91.1 91.1H52.6c-8.8.5-15.5 8-15 16.8.4 8.1 6.9 14.6 15 15h21.2l-30.4 54c-1.3 2.2-.5 5.1 1.8 6.3.7.4 1.5.6 2.3.6h25.8c1.7 0 3.2-.9 4-2.4L94.4 327h316.7l17 30.3c.8 1.5 2.4 2.4 4.1 2.4H458c2.6 0 4.6-2.1 4.6-4.7 0-.8-.2-1.5-.6-2.2l-43-76.5h16.7c11.4-.5 20.2-10.2 19.7-21.6-.5-10.6-9-19.1-19.7-19.6H173.1m-.7 3.3 1.7-.7-13.5-13.8m-99.5-71.1c4.3-4.1 11-4.1 15.4 0 98.4 98.1 90.6 91.5 93.3 91.5h265.8c6.3.4 11 5.8 10.6 12.1-.4 5.7-4.9 10.3-10.6 10.6H158.4L61 169.5c-4.6-4.4-4.7-11.6-.4-16.2.2-.2.4-.3.5-.5m9.3 197.5H55.3l29-51.6h15.1c-15.1 27-8.6 15.4-29 51.6m29.1-32.5 10.4-19.2h285.2l10.6 18.9zm335.3 32.5-32.9-58.6c-.8-1.5-2.4-2.4-4-2.4H52.5c-3.6-.3-6.4-3.5-6.1-7.2.3-3.2 2.8-5.8 6.1-6.1h355.8l41.8 74.2z"></path></svg>