<svg xmlns="http://www.w3.org/2000/svg" data-name="Layer 1" viewBox="0 0 66 66"><path d="M63.49 26.42V16.06c0-1.87-1.52-3.39-3.39-3.39H5.9c-1.87 0-3.39 1.52-3.39 3.39v10.36a3.4 3.4 0 0 0-2.26 3.19v13.55c0 1.87 1.52 3.39 3.39 3.39h3.39v5.65c0 .62.51 1.13 1.13 1.13s1.13-.51 1.13-1.13v-5.65h47.43v5.65c0 .62.51 1.13 1.13 1.13s1.13-.51 1.13-1.13v-5.65h3.39c1.87 0 3.39-1.52 3.39-3.39V29.61c0-1.43-.91-2.71-2.26-3.19m-2.27-10.36v10.16h-3.39c-1.87 0-3.39 1.52-3.39 3.39v5.65H34.12V14.93h25.97c.62 0 1.13.5 1.13 1.13M5.9 14.93h25.97v20.33H11.54v-5.65c0-1.87-1.52-3.39-3.39-3.39H4.76V16.06c0-.62.51-1.13 1.13-1.13m57.6 28.23c0 .62-.51 1.13-1.13 1.13H3.64c-.62 0-1.13-.51-1.13-1.13V29.61c0-.62.5-1.13 1.13-1.13h4.52c.62 0 1.13.51 1.13 1.13v6.78c0 .62.5 1.13 1.13 1.13h45.17c.62 0 1.13-.51 1.13-1.13v-6.78c0-.62.51-1.13 1.13-1.13h4.52c.62 0 1.13.51 1.13 1.13v13.55Z" style="fill:#000;stroke-width:0"></path></svg>