<svg xmlns="http://www.w3.org/2000/svg" xml:space="preserve" id="am9_svg__Layer_1" x="0" y="0" viewBox="0 0 500 500"><style>.am9_svg__st0{fill-rule:evenodd;clip-rule:evenodd}</style><path d="M163 265.6H64.2c-2.7 0-4.9-2.2-4.9-5v-95.4c0-10.1 8.2-18.4 18.3-18.4h72c10.1 0 18.3 8.2 18.3 18.4v95.4c0 2.8-2.2 5-4.9 5m-93.8-9.9H158v-90.4c0-4.7-3.8-8.4-8.4-8.4h-72c-4.7 0-8.4 3.8-8.4 8.4zM289.5 265.6h-79c-2.2 0-4-1.8-4-4v-76.3c0-8.1 6.6-14.7 14.7-14.7h57.6c8.1 0 14.7 6.6 14.7 14.7v76.3c0 2.3-1.8 4-4 4m-75-7.9h71v-72.3c0-3.7-3-6.7-6.7-6.7h-57.6c-3.7 0-6.7 3-6.7 6.7zM435.8 265.6H337c-2.7 0-4.9-2.2-4.9-5v-95.4c0-10.1 8.2-18.4 18.3-18.4h72c10.1 0 18.3 8.2 18.3 18.4v95.4c0 2.8-2.2 5-4.9 5m-93.8-9.9h88.8v-90.4c0-4.7-3.8-8.4-8.4-8.4h-72c-4.6 0-8.4 3.8-8.4 8.4z" class="am9_svg__st0"></path><path d="M452.8 298.3H47.2c-5.4 0-9.7-4.4-9.7-9.7v-23.1c0-5.4 4.4-9.7 9.7-9.7h405.6c5.3 0 9.7 4.3 9.7 9.7v23.1c0 5.3-4.4 9.7-9.7 9.7m-405.4-10h405.2v-22.7H47.4z" class="am9_svg__st0"></path><path d="M113.6 353.1c-2.7 0-5-2.2-5-5v-54.8c0-2.7 2.2-5 5-5s5 2.2 5 5v54.8c0 2.8-2.3 5-5 5" class="am9_svg__st0"></path><path d="M141 353.1H86.2c-2.7 0-4.9-2.2-4.9-5 0-2.7 2.2-5 4.9-5H141c2.7 0 5 2.2 5 5s-2.3 5-5 5M250 353.1c-2.7 0-5-2.2-5-5v-54.8c0-2.7 2.2-5 5-5s5 2.2 5 5v54.8c0 2.8-2.3 5-5 5" class="am9_svg__st0"></path><path d="M277.4 353.1h-54.8c-2.7 0-5-2.2-5-5 0-2.7 2.2-5 5-5h54.8c2.7 0 5 2.2 5 5s-2.3 5-5 5M386.4 353.1c-2.7 0-5-2.2-5-5v-54.8c0-2.7 2.2-5 5-5s5 2.2 5 5v54.8c0 2.8-2.3 5-5 5" class="am9_svg__st0"></path><path d="M413.8 353.1H359c-2.7 0-4.9-2.2-4.9-5 0-2.7 2.2-5 4.9-5h54.8c2.7 0 5 2.2 5 5s-2.3 5-5 5M457.5 270.4c-2.7 0-5-2.2-5-5v-33.1c0-2.7 2.2-4.9 5-4.9s5 2.2 5 4.9v33.1c0 2.8-2.2 5-5 5M42.5 270.4c-2.7 0-5-2.2-5-5v-33.1c0-2.7 2.2-4.9 5-4.9s5 2.2 5 4.9v33.1c-.1 2.8-2.3 5-5 5" class="am9_svg__st0"></path></svg>