<svg xmlns="http://www.w3.org/2000/svg" id="am5_svg__Layer_4" data-name="Layer 4" viewBox="0 0 500 500"><defs><style>.am5_svg__cls-1{stroke-width:9.44px}.am5_svg__cls-1,.am5_svg__cls-2,.am5_svg__cls-3{fill:none;stroke:#162a53;stroke-miterlimit:10}.am5_svg__cls-2{stroke-width:10.79px}.am5_svg__cls-3{stroke-width:10.99px}</style></defs><path d="m377.37 216.94 22.32-22.32c6.44-6.44 6.44-16.89 0-23.34l-23.87-23.87-23.36-23.36-24.13-24.13c-6.44-6.44-16.88-6.43-23.33 0l-22.35 22.35" class="am5_svg__cls-2"></path><rect width="185.49" height="52.54" x="219.28" y="162.47" class="am5_svg__cls-3" rx="19.49" ry="19.49" transform="rotate(45 312.02 188.743)"></rect><path d="m352.46 124.06.24-.24 19-19c5.68-5.68 14.97-5.68 20.64 0l2.73 2.73c5.67 5.67 5.67 14.96 0 20.64l-19 19-.24.24" class="am5_svg__cls-1"></path><path d="M118.02 288.31 95.7 310.63c-6.44 6.44-6.44 16.89 0 23.34l23.87 23.87 23.36 23.36 24.13 24.13c6.44 6.44 16.88 6.43 23.33 0l22.35-22.35" class="am5_svg__cls-2"></path><rect width="185.49" height="52.54" x="90.62" y="290.25" class="am5_svg__cls-3" rx="19.49" ry="19.49" transform="rotate(-135 183.37 316.517)"></rect><path d="m142.93 381.19-.24.24-19 19c-5.68 5.68-14.97 5.68-20.64 0l-2.73-2.73c-5.67-5.67-5.67-14.96 0-20.64l19-19 .24-.24M190.26 286.26l91.07-91.06M213.62 309.62l91.06-91.06" class="am5_svg__cls-1"></path></svg>