<svg xmlns="http://www.w3.org/2000/svg" xml:space="preserve" viewBox="0 0 500 500"><path d="M427.1 191.9H390c-.9-8.9-8.4-15.8-17.5-15.8h-60.8c-9.1 0-16.6 6.9-17.5 15.8H118.6v-48.2c0-9.2 7.5-16.7 16.7-16.7s16.6 7.5 16.6 16.7v5.8c0 3.3 2.6 5.9 5.9 5.9 3.2 0 5.9-2.6 5.9-5.9v-5.8c0-15.7-12.7-28.4-28.4-28.4s-28.4 12.7-28.4 28.4v48.2h-34c-12.6 0-22.9 10.3-22.9 22.9s10.3 22.9 22.9 22.9H75v113.6c0 15 11.3 27.3 25.8 29.1V397c0 9.7 7.9 17.6 17.6 17.6h263.4c9.7 0 17.6-7.9 17.6-17.6v-16.6c14.5-1.8 25.8-14.2 25.8-29.1V237.6h2.1c12.6 0 22.9-10.3 22.9-22.9-.2-12.6-10.5-22.8-23.1-22.8m-121.3 1.8c0-3.2 2.6-5.9 5.9-5.9h60.8c3.2 0 5.9 2.6 5.9 5.9v90.6h-72.6zM72.9 225.8c-6.1 0-11.1-5-11.1-11.1s5-11.1 11.1-11.1h221.2v22.2zm314.7 171.1c0 3.2-2.6 5.9-5.9 5.9H118.3c-3.2 0-5.9-2.6-5.9-5.9v-16.3h275.1v16.3zm25.7-45.7c0 9.7-7.9 17.6-17.6 17.6H104.3c-9.7 0-17.6-7.9-17.6-17.6V237.6h207.4v52.6c0 3.2 2.6 5.9 5.9 5.9h84.2c3.3 0 5.9-2.6 5.9-5.9v-52.6h23.3v113.6zm13.8-125.4H390v-22.2h37.1c6.1 0 11.1 5 11.1 11.1.1 6.2-4.9 11.1-11.1 11.1"></path><path d="M204 127.7c3.6 3.5 5.8 5.9 5.8 9.2 0 5.7-5.6 8.5-5.8 8.6-2.9 1.4-4.2 4.9-2.9 7.8 1.4 3 4.9 4.2 7.8 2.9 4.7-2.2 12.6-8.7 12.6-19.3 0-8.5-5.4-13.8-9.4-17.6-1.5-1.5-3.3-3.2-3.7-4.2-2.1-5.2 3.1-8.4 4.2-9 2.8-1.5 3.9-5.1 2.4-7.9-1.5-2.9-5.1-3.9-7.9-2.4-.4.2-3.9 2.1-6.8 5.7-4.3 5.3-5.2 11.7-2.7 17.9 1.3 3.3 3.9 5.9 6.4 8.3M305 127.7c3.6 3.5 5.8 5.9 5.8 9.2 0 5.7-5.6 8.5-5.8 8.6-2.9 1.4-4.2 4.9-2.9 7.8 1.4 3 4.9 4.2 7.8 2.9 4.7-2.2 12.6-8.7 12.6-19.3 0-8.5-5.4-13.8-9.4-17.6-1.5-1.5-3.3-3.2-3.7-4.2-2.1-5.2 3.1-8.4 4.2-9 2.8-1.5 3.9-5.1 2.4-7.9-1.5-2.9-5.1-3.9-8-2.4-.4.2-3.9 2.1-6.8 5.7-4.3 5.3-5.2 11.7-2.7 17.9 1.4 3.3 4 5.9 6.5 8.3M254.5 118.1c3.6 3.5 5.8 5.9 5.8 9.2 0 5.7-5.6 8.5-5.8 8.6-2.9 1.4-4.2 4.9-2.9 7.8 1.4 3 4.9 4.2 7.8 2.9 4.7-2.2 12.6-8.7 12.6-19.3 0-8.5-5.4-13.8-9.4-17.6-1.5-1.5-3.3-3.2-3.7-4.2-2.1-5.2 3.1-8.4 4.2-9 2.8-1.5 3.9-5.1 2.4-7.9-1.5-2.9-5.1-3.9-7.9-2.4-.4.2-3.9 2.1-6.8 5.7-4.3 5.3-5.2 11.7-2.7 17.9 1.3 3.4 3.9 5.9 6.4 8.3"></path></svg>