<svg xmlns="http://www.w3.org/2000/svg" id="am9_svg__Layer_16" data-name="Layer 16" viewBox="0 0 500 500"><defs><style>.am9_svg__cls-1,.am9_svg__cls-3{fill:none;stroke:#172b54}.am9_svg__cls-1{stroke-width:8.1px;stroke-miterlimit:10}.am9_svg__cls-3{stroke-linecap:round;stroke-linejoin:round;stroke-width:6.69px}</style></defs><path d="M191.87 169.4c-66.28 9.59-113.11 33.11-113.11 60.62 0 7.26 3.26 14.26 9.31 20.79 23.88 25.83 91.07 44.44 170.2 44.44s146.32-18.61 170.2-44.44c6.04-6.53 9.31-13.52 9.31-20.79 0-23.95-35.5-44.87-88.42-56.22" class="am9_svg__cls-1"></path><path d="M428.47 250.81c6.04 6.53 9.31 13.52 9.31 20.79 0 6.86-2.91 13.47-8.34 19.7-6.29 7.23-15.97 13.91-28.35 19.8-32.79 15.65-84.56 25.73-142.82 25.73s-110.01-10.08-142.82-25.73c-12.39-5.89-22.06-12.57-28.35-19.8-5.42-6.23-8.34-12.84-8.34-19.7 0-7.26 3.26-14.26 9.31-20.79" class="am9_svg__cls-1"></path><path d="M87.1 291.28v.02c-5.42 6.21-8.34 12.82-8.34 19.68s2.96 13.57 8.44 19.82c23.08 26.34 90.95 45.41 171.07 45.41s147.99-19.06 171.07-45.41c5.47-6.24 8.44-12.9 8.44-19.82s-2.91-13.47-8.34-19.68v-.02" class="am9_svg__cls-1"></path><path d="M429.34 330.8c5.49 6.24 8.44 12.9 8.44 19.8 0 36.02-80.36 65.23-179.51 65.23S78.76 386.62 78.76 350.6c0-6.9 2.95-13.56 8.44-19.8M78.76 230.02V350.6M437.78 230.02V350.6" class="am9_svg__cls-1"></path><path d="M341.35 202c35.18 6.83 58.04 17.93 58.04 30.45 0 20.75-62.8 37.59-140.29 37.59s-140.29-16.84-140.29-37.59c0-13.66 27.23-25.62 67.94-32.2" style="stroke-miterlimit:10;fill:none;stroke:#172b54;stroke-width:8.92px"></path><path d="M212.75 130.93c1.38-.41 1.76-2.23.7-3.2-31.6-28.92.98-57.37 25.97-55.27 20.54 1.98 51.68 38.21 15.78 66.02-5.57 4.31-5.21 12.92.63 16.85 16.67 11.21 60.23 9.69 78.49-14.36 0 0 29.53 20.28 7.16 49.22 0 0 11.15 54.89-83.22 57.57-94.36 2.68-79.45-84.71-46.64-101.72 0 0-7.19-12.66 1.12-15.12Z" class="am9_svg__cls-3"></path><path d="M201.47 110.18s-24.83.42-33.18 0c0 0 1.35 24.33 41.54 22.69M231.68 72.36s5.61-12.62 1.94-18.15c-.19-.28.09-.63.39-.49 3.77 1.76 14.47 7.95 13.48 21.03" class="am9_svg__cls-3"></path><circle cx="228.75" cy="104.43" r="4.44" style="fill:#172b54"></circle><path d="M215.35 187.94c8.65 14.91 64.13 49.52 62.64 16.11 0 0 35.2 15.51 35.79-8.35 0 0 17 3.58 5.67-17.9" class="am9_svg__cls-3"></path></svg>