<svg xmlns="http://www.w3.org/2000/svg" id="am3_svg__Layer_2" viewBox="0 0 500 500"><defs><style>.am3_svg__st0{stroke-width:13.7px}.am3_svg__st0,.am3_svg__st3,.am3_svg__st5{fill:none;stroke:#162a53;stroke-miterlimit:10}.am3_svg__st3{stroke-width:15.2px}.am3_svg__st5{stroke-width:12.2px}</style></defs><path d="m167.2 50.1-87.6 87.6c-9.1 9.1-2.7 24.7 10.2 24.7h173.8c12.8 0 19.3-15.4 10.4-24.6l-85.5-87.6c-5.8-6-15.4-6-21.3-.1Z" style="fill:none;stroke:#162a53;stroke-miterlimit:10;stroke-width:18.3px"></path><path d="M91.1 161v132.4M261.9 161v132.4" class="am3_svg__st3"></path><rect width="218.9" height="36.5" x="67.3" y="298.9" rx="12" ry="12" style="fill:none;stroke:#162a53;stroke-miterlimit:10;stroke-width:14"></rect><path d="M93.5 335.4h36.9V452c0 2.4-2 4.4-4.4 4.4H97.9c-2.4 0-4.4-2-4.4-4.4V335.4ZM225 335.4h36.9V452c0 2.4-2 4.4-4.4 4.4h-28.1c-2.4 0-4.4-2-4.4-4.4V335.4Z" class="am3_svg__st5"></path><path d="M130.4 374.7H225M130.4 415.9H225M261.9 232.3s56.9-11.8 72.1 26.4c12.6 31.6 50.4 121.6 63 151.5 2.5 6 8.3 9.8 14.8 9.8h36c5.8 0 10.5 4.7 10.5 10.5v13.1c0 5.6-4.4 10.2-10 10.5h-54.8c-12.4-1-20.9-6.2-25-16.1l-57.1-151.7c-2.6-6.5-7-12-12.6-15.9s-13.3-6-20.6-5.7l-16.2.5" class="am3_svg__st0"></path><circle cx="176.8" cy="230.6" r="44.3" style="fill:none;stroke:#162a53;stroke-miterlimit:10;stroke-width:13.9px"></circle></svg>