<svg xmlns="http://www.w3.org/2000/svg" xml:space="preserve" id="am8_svg__Layer_1" x="0" y="0" viewBox="0 0 500 500"><style>.am8_svg__st0{fill-rule:evenodd;clip-rule:evenodd}</style><path d="M419 260.8H81.2c-3.3 0-6.2-2.7-6.2-6V226c0-3.5 2.9-6.2 6.2-6.2H419c3.3 0 6 2.7 6 6.2v28.8c0 3.3-2.7 6-6 6M87.4 248.7h325.5V232H87.4zM143.9 346.1h-32.1c-3.5 0-6.2-2.7-6.2-6.2v-56.3c0-3.5 2.7-6.2 6.2-6.2h32.1c3.5 0 6.2 2.7 6.2 6.2V340c0 3.5-2.7 6.1-6.2 6.1M118 333.8h19.8v-44H118zM388.4 346.1h-32.1c-3.5 0-6.2-2.7-6.2-6.2v-56.3c0-3.5 2.7-6.2 6.2-6.2h32.1c3.3 0 6.2 2.7 6.2 6.2V340c0 3.5-2.9 6.1-6.2 6.1m-26.1-12.3h20v-44h-20zM298.3 167.2H81.2c-3.3 0-6.2-2.9-6.2-6.2 0-3.5 2.9-6.2 6.2-6.2h217.2c3.3 0 6.2 2.7 6.2 6.2-.1 3.4-3 6.2-6.3 6.2" class="am8_svg__st0"></path><path d="M275.9 232c-3.5 0-6.2-2.7-6.2-6v-65c0-3.5 2.7-6.2 6.2-6.2s6.2 2.7 6.2 6.2v65c0 3.3-2.7 6-6.2 6M232.7 232c-3.3 0-6.2-2.7-6.2-6v-65c0-3.5 2.9-6.2 6.2-6.2 3.5 0 6.2 2.7 6.2 6.2v65c0 3.3-2.7 6-6.2 6M189.8 232c-3.5 0-6.2-2.7-6.2-6v-65c0-3.5 2.7-6.2 6.2-6.2 3.3 0 6.2 2.7 6.2 6.2v65c-.1 3.3-3 6-6.2 6M146.6 232c-3.3 0-6.2-2.7-6.2-6v-65c0-3.5 2.9-6.2 6.2-6.2 3.5 0 6.2 2.7 6.2 6.2v65c-.1 3.3-2.7 6-6.2 6M103.6 232c-3.5 0-6.2-2.7-6.2-6v-65c0-3.5 2.7-6.2 6.2-6.2 3.3 0 6.2 2.7 6.2 6.2v65c0 3.3-2.9 6-6.2 6M388.4 289.8H111.8c-3.5 0-6.2-2.9-6.2-6.2v-28.8c0-3.5 2.7-6.2 6.2-6.2h276.6c3.3 0 6.2 2.7 6.2 6.2v28.8c0 3.3-2.9 6.2-6.2 6.2M118 277.5h264.2v-16.7H118zM419 422.2H81.2c-3.3 0-6.2-2.9-6.2-6.2v-76c0-3.3 2.9-6.2 6.2-6.2H419c3.3 0 6 2.9 6 6.2v76.1c0 3.3-2.7 6.1-6 6.1M87.4 409.9h325.5v-63.7H87.4z" class="am8_svg__st0"></path><path d="M138.3 371.8h-31.5c-3.3 0-6.2-2.7-6.2-6.2 0-3.3 2.9-6.2 6.2-6.2h31.5c3.5 0 6.2 2.9 6.2 6.2 0 3.6-2.7 6.2-6.2 6.2M167.3 396.5h-31.7c-3.3 0-6-2.9-6-6.2 0-3.5 2.6-6.2 6-6.2h31.7c3.3 0 6.2 2.7 6.2 6.2 0 3.3-2.9 6.2-6.2 6.2M223.3 371.8h-31.5c-3.3 0-6.2-2.7-6.2-6.2 0-3.3 2.9-6.2 6.2-6.2h31.5c3.5 0 6.2 2.9 6.2 6.2-.1 3.6-2.7 6.2-6.2 6.2M252.3 396.5h-31.7c-3.3 0-6-2.9-6-6.2 0-3.5 2.6-6.2 6-6.2h31.7c3.3 0 6.2 2.7 6.2 6.2-.1 3.3-3 6.2-6.2 6.2M308.2 371.8h-31.5c-3.3 0-6.2-2.7-6.2-6.2 0-3.3 2.9-6.2 6.2-6.2h31.5c3.5 0 6.2 2.9 6.2 6.2 0 3.6-2.7 6.2-6.2 6.2M337.2 396.5h-31.7c-3.3 0-6-2.9-6-6.2 0-3.5 2.6-6.2 6-6.2h31.7c3.3 0 6.2 2.7 6.2 6.2 0 3.3-2.9 6.2-6.2 6.2M393.1 371.8h-31.5c-3.3 0-6.2-2.7-6.2-6.2 0-3.3 2.9-6.2 6.2-6.2h31.5c3.5 0 6.2 2.9 6.2 6.2 0 3.6-2.7 6.2-6.2 6.2M396.8 153.9H344c-15.6 0-28.4-12.7-28.4-28.2 0-15 11.5-27.1 26.1-28.2 1.4-14.4 13.6-25.5 28.2-25.5s26.5 11.1 28.2 25.3c15 .6 26.9 13.2 26.9 28.4 0 15.4-12.5 28.2-28.2 28.2M344 109.7c-8.9 0-16 7.2-16 16 0 8.6 7.2 15.8 16 15.8h52.8c8.9 0 16-7.2 16-15.8 0-8.8-7.2-16-16-16-1.2 0-2.5.2-3.7.4-2.1.4-4.1 0-5.6-1.5-1.7-1.4-2.3-3.5-1.9-5.5 0-.8.2-1.8.2-2.7 0-8.9-7.2-16-16-16-8.9 0-16.1 7.2-16.1 16 0 .8.2 1.7.2 2.5.4 2-.2 4.1-1.6 5.3-1.4 1.4-3.5 2-5.5 1.6-.8-.1-1.8-.1-2.8-.1M219.4 102.3c-2.9 0-5.4-2-6.2-4.9-3.1-13.4-10.3-13.2-11.7-13-3.5.6-6.6-1.6-7.2-4.9s1.6-6.6 5.1-7.2c4.9-.8 13.6.4 20 8.8 6.2-8.4 15-9.7 20-8.8 3.3.6 5.5 3.9 4.9 7.2s-3.9 5.6-7.2 4.9c-1.2-.2-8.6-.4-11.7 13-.7 2.8-3.1 4.9-6 4.9M271.2 129.2c-2.9 0-5.4-2-6-4.7-4.9-21.2-17.7-19.9-19.1-19.8-3.3.4-6.4-1.8-7-5.1-.4-3.3 1.6-6.4 5-7 6.8-1.2 19.1.8 27.1 14 8.2-13.2 20.3-15.2 27.1-14 3.3.6 5.6 3.7 5 7.2-.6 3.3-3.7 5.6-7 4.9-1.4-.2-14.2-1.4-19.1 19.8-.7 2.6-3.1 4.7-6 4.7" class="am8_svg__st0"></path></svg>