<svg xmlns="http://www.w3.org/2000/svg" xml:space="preserve" viewBox="0 0 500 500"><path d="M443.4 194.3H427c-6.7 0-13.2.5-19.7 1.4-4.4.6-8.8 1.4-13.1 2.4-63.8 14.9-111.5 72.2-111.5 140.5V355c0 .4 0 .9.1 1.3 0 .2.1.4.2.6s.1.4.2.7l.3.6c.1.2.2.3.3.5q.75 1.05 1.8 1.8c.2.1.3.2.5.3l.6.3c.2.1.4.1.7.2.2.1.4.1.6.2.4.1.9.1 1.3.1h16.4c33.4 0 64.1-11.4 88.5-30.5 4.6-3.6 9-7.4 13.1-11.5 26.3-26.1 42.6-62.3 42.6-102.3v-16.4c.1-3.7-2.8-6.6-6.5-6.6m-6.5 22.9c0 72.3-58.8 131.2-131.2 131.2h-.6l56-56c2.6-2.6 2.6-6.7 0-9.3s-6.7-2.6-9.3 0l-56 56v-.6c0-72.3 58.8-131.2 131.1-131.2h9.8v9.9zM239 361.5h27.4c.4 0 .9-.1 1.3-.1.2 0 .4-.1.6-.2s.4-.1.6-.2l.6-.3c.2-.1.3-.2.5-.3q1.05-.75 1.8-1.8c.1-.2.2-.3.3-.5l.3-.6c.1-.2.1-.4.2-.7.1-.2.1-.4.2-.6.1-.4.1-.9.1-1.3v-27.4c0-92.3-66.5-169.3-154.1-185.7-4.3-.8-8.7-1.5-13.1-2-7.2-.8-14.4-1.3-21.8-1.3H56.6c-3.6 0-6.6 2.9-6.6 6.6v27.4c0 52.3 21.3 99.6 55.7 133.9 4.2 4.2 8.5 8.1 13.1 11.9 32.7 26.9 74.6 43.2 120.2 43.2m-175.9-189v-20.8h20.8c97 0 175.9 78.9 175.9 175.9v11.5L189 268.3c-2.6-2.6-6.7-2.6-9.3 0s-2.6 6.7 0 9.3l70.8 70.8H239c-97 0-175.9-79-175.9-175.9"></path></svg>