<svg xmlns="http://www.w3.org/2000/svg" id="am4_svg__Layer_1" viewBox="0 0 500 500"><defs><linearGradient id="am4_svg__linear-gradient" x1="70.52" x2="82.65" y1="2068.5" y2="2068.5" gradientTransform="matrix(28.49 0 0 -28.49 -2008.99 59177.54)" gradientUnits="userSpaceOnUse"><stop offset="0" stop-color="#fff"></stop><stop offset="0.1" stop-color="#f9f9f9"></stop><stop offset="0.22" stop-color="#e9e9e9"></stop><stop offset="0.36" stop-color="#cecece"></stop><stop offset="0.51" stop-color="#a8a8a8"></stop><stop offset="0.67" stop-color="#787878"></stop><stop offset="0.84" stop-color="#3e3e3e"></stop><stop offset="1"></stop></linearGradient><linearGradient id="am4_svg__linear-gradient1" x1="70.52" x2="82.65" y1="2068.5" y2="2068.5" gradientTransform="matrix(28.49 0 0 -28.49 -2008.99 59177.54)" gradientUnits="userSpaceOnUse"><stop offset="0" stop-color="#ed2024"></stop><stop offset="0.09" stop-color="#e21e22"></stop><stop offset="0.25" stop-color="#c51a1e"></stop><stop offset="0.46" stop-color="#971416"></stop><stop offset="0.7" stop-color="#560b0d"></stop><stop offset="0.98" stop-color="#050000"></stop><stop offset="1"></stop></linearGradient><clipPath id="am4_svg__clippath"><path d="M230.38 3.15c-29.32 4.09-53.4 8.77-90.73 26.54C102.47 47.4 52.04 78.17 0 150.39c30.15 116.23 62.92 176.36 103.03 229.87 40.36 53.33 87.86 99.8 202.79 119.75-29-7.23-47.07-13.07-61.21-18.15-14.15-5.27-24.26-9.95-34.3-15-10.14-5-19.98-10.67-30.8-18.22-10.77-7.74-22.52-17.56-34.98-30.49-12.22-12.77-25-28.47-36.64-44.15-11.68-15.69-21.97-31.36-32.41-50.26-10.66-18.89-21.44-40.61-32.11-66.75-10.65-25.9-21.05-55.82-32.18-102.61 18.16-24.77 28.82-37.03 40.39-49.13C62.94 93.23 75.2 81.3 90.59 69.63c15.18-11.58 33.25-23 52.96-32.5 19.95-9.43 41.65-16.95 58.02-21.8 16.38-4.86 27.43-7.04 45.98-9.07 18.68-2.1 46.24-7.19 97.89-3.6C320.21.91 299.36.02 281.27.02c-19.44 0-35.71 1.03-50.89 3.15" style="fill:none"></path></clipPath><style>.am4_svg__st4{fill-rule:evenodd}</style><mask id="am4_svg__mask" width="345.43" height="500.95" x="0" y="-0.95" maskUnits="userSpaceOnUse"><path d="M0-.95h345.43V500H0z" style="fill:url(#am4_svg__linear-gradient)"></path></mask></defs><path d="M188.57 255.06h-69.7c-1.93 0-3.49-1.57-3.49-3.51v-67.33c0-7.14 5.81-12.95 12.95-12.95h50.79c7.14 0 12.96 5.81 12.96 12.95v67.33c0 1.94-1.57 3.51-3.51 3.51m-66.2-7h62.69v-63.84c0-3.28-2.66-5.95-5.95-5.95h-50.79c-3.28 0-5.95 2.67-5.95 5.95zM277.86 255.07h-55.74c-1.54 0-2.8-1.26-2.8-2.8v-53.86c0-5.7 4.66-10.36 10.36-10.36h40.62c5.72 0 10.36 4.66 10.36 10.36v53.86c0 1.54-1.25 2.8-2.8 2.8m-52.93-5.61h50.13v-51.05c0-2.62-2.13-4.76-4.76-4.76h-40.62c-2.62 0-4.76 2.14-4.76 4.76v51.05ZM381.13 255.06h-69.7c-1.93 0-3.49-1.57-3.49-3.51v-67.33c0-7.14 5.81-12.95 12.95-12.95h50.79c7.14 0 12.96 5.81 12.96 12.95v67.33c0 1.94-1.57 3.51-3.51 3.51m-66.2-7h62.69v-63.84c0-3.28-2.66-5.95-5.95-5.95h-50.79c-3.28 0-5.95 2.67-5.95 5.95z" class="am4_svg__st4"></path><path d="M393.15 278.1H106.86c-3.78 0-6.85-3.08-6.85-6.87v-16.32c0-3.78 3.07-6.85 6.85-6.85h286.29c3.76 0 6.85 3.08 6.85 6.85v16.32c0 3.79-3.09 6.87-6.85 6.87M107 271.09h285.99v-16.02H107z" class="am4_svg__st4"></path><path d="M153.72 316.79c-1.94 0-3.51-1.57-3.51-3.49v-38.7c0-1.94 1.57-3.51 3.51-3.51s3.49 1.57 3.49 3.51v38.7a3.48 3.48 0 0 1-3.49 3.49" class="am4_svg__st4"></path><path d="M173.06 316.79h-38.7c-1.93 0-3.49-1.57-3.49-3.49s1.57-3.51 3.49-3.51h38.7c1.94 0 3.51 1.57 3.51 3.51s-1.57 3.49-3.51 3.49M250 316.79c-1.94 0-3.51-1.57-3.51-3.49v-38.7c0-1.94 1.57-3.51 3.51-3.51s3.51 1.57 3.51 3.51v38.7c0 1.93-1.57 3.49-3.51 3.49" class="am4_svg__st4"></path><path d="M269.35 316.79h-38.7c-1.93 0-3.51-1.57-3.51-3.49s1.58-3.51 3.51-3.51h38.7c1.94 0 3.49 1.57 3.49 3.51s-1.55 3.49-3.49 3.49M346.28 316.79c-1.94 0-3.51-1.57-3.51-3.49v-38.7c0-1.94 1.57-3.51 3.51-3.51s3.49 1.57 3.49 3.51v38.7a3.48 3.48 0 0 1-3.49 3.49" class="am4_svg__st4"></path><path d="M365.62 316.79h-38.7c-1.93 0-3.49-1.57-3.49-3.49s1.57-3.51 3.49-3.51h38.7c1.94 0 3.51 1.57 3.51 3.51s-1.57 3.49-3.51 3.49M396.49 258.41c-1.94 0-3.49-1.57-3.49-3.49v-23.34c0-1.94 1.55-3.51 3.49-3.51s3.51 1.57 3.51 3.51v23.34c0 1.93-1.57 3.49-3.51 3.49M103.51 258.41c-1.94 0-3.51-1.57-3.51-3.49v-23.34c0-1.94 1.57-3.51 3.51-3.51s3.49 1.57 3.49 3.51v23.34a3.48 3.48 0 0 1-3.49 3.49" class="am4_svg__st4"></path><g style="clip-path:url(#am4_svg__clippath)"><g style="mask:url(#am4_svg__mask)"><path d="M0-.95h345.43V500H0z" style="fill:url(#am4_svg__linear-gradient1)"></path></g></g></svg>