<svg xmlns="http://www.w3.org/2000/svg" id="am6_svg__Layer_5" data-name="Layer 5" viewBox="0 0 500 500"><defs><style>.am6_svg__cls-1{stroke-width:15.35px}.am6_svg__cls-1,.am6_svg__cls-2,.am6_svg__cls-3{fill:none;stroke:#162a53;stroke-linecap:round;stroke-linejoin:round}.am6_svg__cls-2{stroke-width:13.95px}.am6_svg__cls-3{stroke-width:16.74px}</style></defs><path d="M321 319.57V116.82c0-81.57 106.76-73.11 106.76-6.47M160.23 319.57V116.82c0-81.57 106.76-73.11 106.76-6.47" class="am6_svg__cls-3"></path><path d="M160.23 149.48H321M160.23 196.23H321M160.23 241.6H321M160.23 287.74H321" class="am6_svg__cls-2"></path><path d="M73.24 363.59c52.47-27.61 68.28-2.97 103.08 6.04 11.98 3.1 24.59 3.04 36.64.21 38.63-9.09 55.87-32.91 119.89-5.52 40.29 18.4 78.58-3.01 78.58-3.01M73.24 425.44c52.47-27.61 68.28-2.97 103.08 6.04 11.98 3.1 24.59 3.04 36.64.21 38.63-9.09 55.87-32.91 119.89-5.52 40.29 18.4 78.58-3.01 78.58-3.01" class="am6_svg__cls-1"></path></svg>