<svg xmlns="http://www.w3.org/2000/svg" xml:space="preserve" viewBox="0 0 500 500"><path d="M110.5 145.7V120c0-1.5.1-3.1.7-4.3 3.6-7.5 7.2-15.1 11.1-22.4 3.2-5.8 11.2-5.7 14.4.2 3.9 7.2 7.5 14.6 11 22 .8 1.6.7 3.7.7 5.6.1 8 .1 16.1.1 24.4H161v-46c0-4.2.8-7.9 5.2-9.7 4.3-1.7 7.3.4 10.2 3.2 6.4 6.4 13 12.6 19 19.3 2 2.2 3.4 5.6 3.6 8.6.5 8 .2 16.1.2 24.5h29.5c0-8.4.7-16.7-.2-24.9-1.2-12 5.7-20.8 10.6-30.3 2.6-4.9 10.3-3.9 13.3 1.3 1 1.8 1.8 3.7 2.8 5.5.8 1.7 1.7 3.3 2.8 5.4 1.9-3.7 3.6-6.9 5.2-10.2 1.5-3.1 3.8-4.8 7.4-4.8 3.5 0 5.9 1.6 7.5 4.7 2.8 5.6 5.6 11.2 8.8 17.5.9-1.6 1.4-2.7 2.1-3.7 3.3-5.6 10.9-5.7 14 0 3.2 5.9 6.2 11.9 8.9 18 .8 1.7.7 4 .7 6 .1 5.1 0 10.3 0 15.7h17.2v-15.8c0-19.8 0-19.8 9.1-37.3 1.7-3.2 3.8-5.2 7.6-5.2s6.1 1.9 7.6 5.1c1.5 3.1 3.1 6.2 5.1 10.1 2-4 3.7-7.3 5.3-10.5 1.5-3.1 3.9-4.7 7.5-4.7 3.4.1 5.7 1.6 7.2 4.6 2.8 5.7 5.9 11.4 8.6 17.2.8 1.6.9 3.7.9 5.6.1 10.2 0 20.4 0 31.2H402c10.4.1 16.4 5.9 16.5 16.1q.15 11.7 0 23.4c-.1 9.5-5.8 15.2-15.4 15.5-1.1.1-2.2 0-3.3 0H103.6c-2.6 0-5.3 0-7.7-.6-6.2-1.5-10.6-7.4-10.7-13.9-.1-8.4-.1-16.7 0-25 .1-8.9 6.2-15.1 15.2-15.4 3.1-.4 6.4-.3 10.1-.3m141.6 12.9H103.5c-5.5 0-5.5 0-5.5 5.7v17.2c0 6.5 0 6.5 6.4 6.5h297.1c3.2.3 4.4-1.3 4.3-4.4-.1-6.6 0-13.1 0-19.7 0-5.3-.1-5.4-5.6-5.4H252.1m-122.7-50c-9.6 10.9-5.3 24.2-6.2 36.8h12.7c-1.1-12.7 3.2-25.8-6.5-36.8m56.8 37v-23c0-.6-.1-1.5-.5-1.9-3.7-3.8-7.5-7.6-11.7-11.8v36.7zm60.5-39c-.6.1-1.1.1-1.7.2-3 3.9-4 8.3-3.8 13.3.3 8.4.1 16.9.1 25.4h7.9c0-8.7.3-17.2-.1-25.6-.2-4.5-1.6-8.9-2.4-13.3m27.8 39c0-10.6.2-20.7-.2-30.7-.1-2.8-2.2-5.5-3.4-8.3-.6 0-1.3.1-1.9.1-.8 4.3-2.1 8.5-2.5 12.8-.4 5.3-.1 10.6-.1 16v10.1zm101.2 0c0-8.8.3-17.5-.1-26.2-.2-4.4-1.6-8.7-2.5-13.1l-1.6.1c-1.1 2.4-3.2 4.8-3.3 7.3-.4 10.5-.2 21.1-.2 31.9zm-25.4 0c0-9-.2-17.8.1-26.6.2-4.8-1.2-8.7-4.1-12.9-1.3 2.8-3.3 5.3-3.4 8-.4 10.4-.2 20.9-.2 31.6h7.6zm-54.6-24.4c-6 7.7-3.3 16.2-3.8 24.4h7.3c2.1-10.3.8-18.7-3.5-24.4M270.9 268.3H85.2c-1.9 0-3.9-.1-5.7-.5-3.4-.9-4.8-3.5-4.4-6.9.4-3.3 2.5-5 5.7-5.4 1.4-.2 2.7-.1 4.1-.1h185.7c0-6.3-.1-12.1 0-18 .4-14.4 11.1-26.4 25.2-28.6 14-2.2 28.1 6.3 32.2 20.2 1.4 5 1.4 10.5 1.4 15.8 0 3.2-2.6 5.1-5.8 5.3s-5.7-1.4-6.4-4.6c-.5-2.3-.4-4.6-.5-6.9-.3-10.2-7.2-17.3-17-17.1-9.5.1-16.2 7.3-16.3 17.4v45.8H334v-4.3c0-13.7-.1-27.3 0-41 .2-15.8 9.4-27.2 24.2-30.3 16.2-3.4 32.8 8.9 34.4 25.3.3 3.3.5 6.6.2 9.8-.3 3.7-3.2 6.3-6.5 6.1-3.4-.2-5.9-2.8-6-6.5-.1-1.9 0-3.8-.1-5.7-.5-9.4-7.1-16.2-16-16.5-9.1-.3-16.4 5.8-17.3 15.1-.5 6.1-.1 12.2-.1 18.9h69c1.2 0 2.5-.2 3.7.1 3 .6 4.9 2.4 5.2 5.5.3 3.2-.9 5.7-4.1 6.7-1.7.5-3.5.6-5.3.6h-68.4V352c6.6.9 12.9-.5 18.8-3.6 3.6-1.9 7.1-4.1 10.6-6.2 7.7-4.6 16.1-6.6 25-6.5 4.1.1 6.7 2.4 6.8 6 .1 3.8-2.2 6.4-6.4 6.5-9.1.2-16.9 3.5-24.4 8.3-19.2 12.1-38.7 12.2-57.8 0-11.1-7.1-22.7-10.2-35.4-6.6-4.7 1.4-9.3 4-13.5 6.6-19.5 11.9-39 12.3-58.2-.1-10.9-7.1-22.4-10.1-35-6.5-5 1.4-9.7 4.3-14.2 7-19 11.3-38 11.7-56.8 0-8-4.9-16.1-8.6-25.6-8.7-3.8 0-6.1-2.9-5.9-6.4.1-3.5 2.6-5.9 6.4-6 10.6-.3 20.2 2.8 28.9 8.6 7.5 5.1 15.5 8.3 24.9 8.1 7.3-.2 13.8-2.3 20.2-5.7 6.9-3.7 13.9-7.9 21.4-9.7 14-3.4 27.7-1.2 40 7.1 7.9 5.3 16.2 9 26 8.2 9.9-.8 18.5-5.5 26.9-10.3.7-.4 1.1-1.8 1.1-2.8.2-23.6.2-46.9.2-71m63.1 57.1h-50.1v11.4c18.9-4.5 34.7 2.6 50.1 13.5zm-.1-27.3h-50.1v14.1h50.1zM348.9 407.2c-10.4.4-19.5-2.3-27.9-7.8-8-5.2-16.3-9.3-26.3-8.9-7.4.2-14.3 1.8-20.5 6-10.9 7.5-22.7 11.7-36.2 10.7-8.2-.6-15.7-3-22.8-6.9-6.2-3.4-12.5-7.1-19.2-8.8-9.6-2.4-19.3-1-27.9 4.5-7.7 5-15.6 9.7-24.9 10.8-12.2 1.4-24 .2-34.7-6.6-8.4-5.3-16.8-10.1-27.3-9.8-4 .1-6.3-3.1-6.1-6.8.2-3.6 2.9-5.9 7-6 10.7-.1 20.4 3.2 29.2 9.3 8.9 6.3 18.7 8.4 29.5 7.2 6.7-.8 12.5-3.8 18-7.5 8.3-5.4 17.2-8.7 27.2-9 11.4-.4 22 2.3 31.4 8.8 9.1 6.3 19.1 9 30.2 7.7 7-.9 13-4 18.7-7.8 9.6-6.3 20-9.1 31.4-8.7 10.2.4 19.5 3.7 27.9 9.5 10.4 7.2 21.9 9.1 33.9 5.8 4.9-1.3 9.5-4.1 13.9-6.9 8.6-5.3 17.7-8.5 27.8-8.5 4.5 0 7.2 2.2 7.4 5.9.2 4-2.3 6.9-6.9 6.9-8.7-.1-16.2 3.1-23.3 7.8-9.2 6.2-18.9 9.7-29.5 9.1"></path></svg>