<svg xmlns="http://www.w3.org/2000/svg" xml:space="preserve" viewBox="0 0 500 500"><path d="M289.7 340.6c17 0 33.9.1 50.8-.1 1.4 0 2.9-1.5 4-2.6 17.4-17.3 34.7-34.7 52.1-52 9.7-9.7 24.4-10 33.7-.9 9.7 9.5 9.6 24-.6 34.2-18 18.1-36.1 36.3-54.4 54.3-2.9 2.9-3.5 5.1-1.9 8.9 5.5 13 10.6 26.2 15.8 39.4 3.1 8-.2 12.7-8.7 12.8-9 0-18-.1-27 .1-5.2.1-8.2-2-10.1-6.8-4.8-12.3-9.8-24.5-14.6-36.9-.9-2.3-2-3.2-4.6-3.2-49.2.1-98.5.1-147.7 0-2.8 0-4 1-5 3.5-4.6 11.8-9.3 23.5-14 35.2-2.9 7.2-4.3 8.2-12.3 8.2h-25.6c-8.3-.1-11.6-4.9-8.5-12.7 4.4-11.2 8.9-22.3 13.6-34.1h-5c-10.8 0-21.7.1-32.5 0-14-.1-24.6-10.3-24.6-23.5s10.6-23.5 24.5-23.7c8.4-.1 16.8 0 25.2 0h129.9V213.3c0-3 0-5.6-3.2-7.3-1.3-.7-2-2.6-2.8-4-2.9-5-5.7-10-9-15.8-2.8 5.6-5.6 10.4-7.7 15.4-2.2 5.1-5.7 7-11.1 6.8-8.8-.2-17.7-.2-26.5 0-4.8.1-8-1.9-10.1-6.3-3.3-7-6.4-14.2-10.5-20.8-4.8-7.8-5.3-15.9-4.2-24.6 5.9-49.3 44.5-89 93.3-95.9 59.4-8.3 114.6 32.8 123.4 92 .7 4.5 1.2 9.1 1.2 13.6 0 2.7-.5 5.5-1.6 7.9-4.5 9.5-9.4 18.8-14 28.2-1.9 3.9-4.7 5.7-9 5.7q-14.4-.15-28.8 0c-4.3 0-7.1-1.9-8.9-5.8-2.5-5.3-5.2-10.5-8.2-16.5-3 5.4-5.6 10.2-8.5 14.8-1.5 2.4-3.6 4.4-5.3 6.7-.7.9-1.2 2.1-1.2 3.1V339c-.2.3-.1.6.2 1.6m-70.8 31.2c43.2 0 86.3-.1 129.5.1 4.4 0 7.8-1.2 10.9-4.4 19.3-19.5 38.8-38.8 58.2-58.3.8-.8 1.6-1.5 2.2-2.3 2.6-3.2 2.5-7.6-.2-10.4-2.8-2.9-7.4-3-10.7-.2-1.1.9-2 1.9-3 2.8-17.4 17.3-34.8 34.6-52.1 52.1-3.8 3.9-7.9 5.4-13.3 5.4-83.3-.1-166.5-.1-249.8-.1-1.8 0-3.7-.1-5.5.1-3.9.4-6.7 3.5-6.8 7.3-.1 4 2.8 7.2 6.9 7.7 1.6.1 3.3.1 5 .1h128.7m15.7-210.9h62.1c-1.3-23.8-3.9-47-14.4-68.5-2.4-5-6-9.6-9.8-13.6-4.5-4.7-9.8-4.7-14 .2-4.3 5-8.3 10.6-11.1 16.5-9.3 20.6-11.8 42.7-12.8 65.4m-15.9.1c1.5-28 5.2-55 18.2-80.3-27.6 6.7-61.3 37.3-64.5 80.3zM294 80.2c13.2 25.6 17 52.9 18.4 80.7h46.3C357 125.7 328 89.3 294 80.2m-35.7 260H273V208.5h-14.7zM240 177c2.9 5.1 5.2 9.5 7.9 13.7.6.9 2.5 1.5 3.7 1.6 9.3.1 18.5.1 27.8 0 1.1 0 2.8-.1 3.3-.8 2.9-4.6 5.4-9.3 8.4-14.5zm-63 .1c2.5 5.1 4.7 9.5 7.1 13.9.4.7 1.7 1.3 2.5 1.3 5.8.1 11.6.1 17.3 0 1 0 2.5-.7 2.9-1.5 2.3-4.3 4.5-8.8 6.8-13.7zm141-.1c5.3 15.3 5.3 15.3 20.6 15.3 2 0 4 .1 5.9 0 .9-.1 2.2-.5 2.6-1.2 2.4-4.5 4.7-9.1 7.2-14.1zm26.7 211.3c3.9 9.8 7.6 19.2 11.5 28.6.3.9 1.7 1.8 2.6 1.9 3.9.2 7.7.1 12.2.1-4.2-10.6-8.1-20.4-12.1-30.1-.3-.8-1.8-1.6-2.7-1.5-3.6 0-7.2.5-11.5 1m-188.9-.2c-1.2-.2-1.6-.3-2.1-.3-12-.3-12-.3-16.3 10.6-2.6 6.6-5.2 13.1-8.1 20.3 4.6 0 8.3.1 12.1-.1 1-.1 2.5-1.1 2.9-2.1 3.9-9.2 7.6-18.6 11.5-28.4"></path></svg>