<svg xmlns="http://www.w3.org/2000/svg" xml:space="preserve" viewBox="0 0 500 500"><path d="M249.9 177.3c-35.1 0-63.7-28.5-63.7-63.7S214.7 50 249.9 50s63.7 28.5 63.7 63.7c-.1 35.1-28.6 63.6-63.7 63.6m0-116.4c-29.1 0-52.8 23.6-52.8 52.8 0 29.1 23.6 52.7 52.8 52.7s52.8-23.6 52.8-52.7c-.1-29.1-23.7-52.7-52.8-52.8M211.7 450c-8.8 0-17.1-4.2-22.3-11.3-.1-.1-.2-.3-.3-.4l-24.7-40.6c-6.9-10.7-7-24.4-.3-35.2.1-.1.2-.3.3-.4l28.7-37.4c.9-1.2 2.2-1.9 3.6-2.1 1.5-.2 2.9.2 4.1 1.1l37.5 29.8c1.2 1 1.9 2.3 2 3.8s-.4 3-1.4 4.1l-19.6 21.2L234 406c9 12.4 6.2 29.7-6.2 38.7-4.7 3.4-10.3 5.3-16.1 5.3m-13.5-17.5c6 7.1 16.6 8 23.7 2 6.5-5.5 7.9-15.1 3.1-22.2l-.2-.3-17.1-27c-1.3-2.1-1.1-4.8.6-6.6l18.4-20-28.5-22.8-25.2 32.8c-4.3 7.2-4.2 16.2.3 23.2.1.1.1.2.1.3zM288.1 450c-15.3 0-27.7-12.4-27.7-27.7 0-5.9 1.9-11.6 5.3-16.3l14.7-23.3-19.4-21.3c-1-1.1-1.6-2.6-1.4-4.1.1-1.5.9-2.9 2-3.8l37.5-29.8c1.1-.9 2.6-1.3 4.1-1.1 1.4.2 2.8.9 3.6 2.1l28.7 37.5c.1.1.2.3.3.4 6.7 10.8 6.6 24.5-.3 35.3l-24.7 40.6c-.1.1-.1.3-.3.4-5.3 7-13.6 11.1-22.4 11.1m-15.2-91.7 18.4 20c1.7 1.8 1.9 4.5.6 6.6l-17.1 27-.2.3c-5.2 7.7-3.1 18.2 4.6 23.3 7.1 4.7 16.7 3.4 22.2-3.1l24.6-40.5c0-.1.1-.2.1-.3 4.4-7.1 4.5-16.1.3-23.2l-25.2-32.8z"></path><path d="M146.5 325.6c-4.3 0-8.5-1-12.3-3-13.7-7.2-19-24-11.9-37.7l.3-.5 47-69.7c16-26.8 35.8-29 53-29h54.8c17.3 0 37.1 2.2 53 29l47 69.7.3.5c7.1 13.7 1.7 30.6-11.9 37.7-13.1 6.7-27.7 2.2-37.4-11.5-.9-1.3-17.7-24.3-29.5-41.3v27.5c0 1.4-.6 2.8-1.6 3.8s-2.4 1.6-3.8 1.6h-86.9c-1.4 0-2.8-.6-3.9-1.6-1-1-1.6-2.4-1.6-3.8v-27.5c-11.9 17.1-28.6 40.1-29.6 41.4-6.7 9.3-15.6 14.4-25 14.4M131.6 290c-4.1 8.4-.8 18.5 7.5 22.8 9.6 5 18.4-.9 23.4-8.1.4-.5 32-43.9 39.2-55.8 1.6-2.5 5-3.3 7.5-1.7 1.6 1 2.5 2.7 2.6 4.6v40h75.9v-40c0-3 2.5-5.4 5.5-5.4 1.8 0 3.6 1 4.6 2.5 7.3 11.9 38.8 55.3 39.2 55.7 5.1 7.2 13.9 13.1 23.5 8.1 8.3-4.3 11.6-14.4 7.5-22.8l-46.9-69.5-.2-.3c-13.1-22-28.2-23.9-43.8-23.9h-54.7c-15.6 0-30.7 1.9-43.8 23.9l-.2.3zM265 363.3h-30.1c-3 0-5.4-2.4-5.4-5.4s2.4-5.4 5.4-5.4H265c3 0 5.4 2.4 5.4 5.4s-2.4 5.4-5.4 5.4"></path><path d="M197.4 333.4c-3 0-5.4-2.4-5.5-5.3 0-.6.1-1.1.2-1.6l9-30.8c1.1-2.8 4.3-4.1 7.1-3 2.4 1 3.8 3.5 3.3 6l-9.1 30.8c-.6 2.2-2.6 3.8-5 3.9M302.4 333.4c-2.4 0-4.5-1.6-5.2-3.9l-9.1-30.8c-1.1-2.8.2-6 3-7.1s6 .2 7.1 3c.1.4.2.7.3 1.1l9 30.8c.9 2.9-.7 5.9-3.6 6.7-.5.1-1.1.2-1.6.2z"></path></svg>