<svg xmlns="http://www.w3.org/2000/svg" xml:space="preserve" viewBox="0 0 500 500"><path d="M177.6 361.1c-23.1 0-41.8 18.7-41.8 41.8s18.7 41.8 41.8 41.8 41.8-18.7 41.8-41.8-18.7-41.8-41.8-41.8m0 65c-12.8 0-23.2-10.4-23.2-23.2s10.4-23.2 23.2-23.2 23.2 10.4 23.2 23.2-10.4 23.2-23.2 23.2M353.9 361.1c-23.1 0-41.8 18.7-41.8 41.8s18.7 41.8 41.8 41.8 41.8-18.7 41.8-41.8-18.7-41.8-41.8-41.8m0 65c-12.8 0-23.2-10.4-23.2-23.2s10.4-23.2 23.2-23.2 23.2 10.4 23.2 23.2-10.4 23.2-23.2 23.2M448.1 117.5c-1.9-2.1-4.6-3.4-7.4-3.7l-302.1-4.2-8.4-25.5c-5.9-17.1-21.9-28.6-39.9-28.8h-31c-5.1 0-9.3 4.2-9.3 9.3s4.2 9.3 9.3 9.3h31.1c10.1.2 19 6.7 22.3 16.2l58.9 177.7-4.6 10.7c-5.2 13.3-3.6 28.4 4.2 40.4 7.7 11.8 20.7 19.1 34.8 19.5h180.5c5.1 0 9.3-4.2 9.3-9.3s-4.2-9.3-9.3-9.3H205.9c-8-.2-15.3-4.4-19.5-11.1s-5-14.9-2.3-22.3l3.7-8.4 195.3-20.4c21.4-2.4 39.1-18 44.1-39l22.3-93.3c1-2.6.5-5.6-1.4-7.8m-39 97c-3 13.5-14.5 23.5-28.3 24.6l-193 20-43.1-130.8 284.4 4.2z"></path></svg>