<svg xmlns="http://www.w3.org/2000/svg" xml:space="preserve" id="am6_svg__Layer_1" x="0" y="0" viewBox="0 0 500 500"><style>.am6_svg__st0{fill-rule:evenodd;clip-rule:evenodd}</style><path d="M429.8 126.4H70.2c-6.1 0-11.1 5-11.1 11.1v225.1c0 6.1 5 11.1 11.1 11.1h359.5c6.1 0 11.1-5 11.1-11.1V137.4c0-6.1-4.9-11-11-11m0 256.4H70.2c-11.2 0-20.2-9.1-20.2-20.2V137.4c0-11.2 9.1-20.2 20.2-20.2h359.5c11.2 0 20.2 9.1 20.2 20.2v225.1c.1 11.2-9 20.3-20.1 20.3" class="am6_svg__st0"></path><path d="M83.9 348.9H416V151.1H83.9zm336.7 9.1H79.4c-2.5 0-4.6-2-4.6-4.6V146.6c0-2.5 2.1-4.6 4.6-4.6h341.3c2.5 0 4.6 2.1 4.6 4.6v206.9c-.1 2.5-2.1 4.5-4.7 4.5" class="am6_svg__st0"></path><path d="M124.6 296.8H79.4c-2.5 0-4.6-2-4.6-4.6 0-2.5 2-4.6 4.6-4.6h45.2c1.2 0 2.1-1 2.1-2.1v-71.1c0-1.2-.9-2.1-2.1-2.1H79.4c-2.5 0-4.6-2-4.6-4.6 0-2.5 2-4.6 4.6-4.6h45.2c6.2 0 11.3 5 11.3 11.3v71.1c0 6.3-5.1 11.3-11.3 11.3" class="am6_svg__st0"></path><path d="M131.3 278.7c-2.5 0-4.6-2-4.6-4.6 0-2.5 2.1-4.6 4.6-4.6 10.8 0 19.5-8.8 19.5-19.5 0-10.8-8.8-19.5-19.5-19.5-2.5 0-4.6-2.1-4.6-4.6s2.1-4.6 4.6-4.6c15.8 0 28.7 12.9 28.7 28.7s-12.9 28.7-28.7 28.7M375.4 296.8c-6.2 0-11.3-5.1-11.3-11.3v-71.1c0-6.2 5-11.3 11.3-11.3h45.3c2.5 0 4.6 2 4.6 4.6 0 2.5-2 4.6-4.6 4.6h-45.3c-1.2 0-2.1 1-2.1 2.1v71.1c0 1.2.9 2.1 2.1 2.1h45.3c2.5 0 4.6 2 4.6 4.6 0 2.5-2 4.6-4.6 4.6z" class="am6_svg__st0"></path><path d="M368.7 278.7c-15.8 0-28.7-12.9-28.7-28.7s12.9-28.7 28.7-28.7c2.5 0 4.6 2.1 4.6 4.6s-2.1 4.6-4.6 4.6c-10.8 0-19.5 8.8-19.5 19.5 0 10.8 8.8 19.5 19.5 19.5 2.5 0 4.6 2 4.6 4.6 0 2.5-2.1 4.6-4.6 4.6M250 217.9c-17.7 0-32.1 14.4-32.1 32.1s14.4 32.1 32.1 32.1 32-14.4 32-32.1-14.3-32.1-32-32.1m0 73.3c-22.7 0-41.2-18.5-41.2-41.2s18.5-41.2 41.2-41.2 41.2 18.5 41.2 41.2-18.5 41.2-41.2 41.2" class="am6_svg__st0"></path><path d="M250 358c-2.5 0-4.6-2-4.6-4.6V146.6c0-2.5 2.1-4.6 4.6-4.6s4.6 2 4.6 4.6v206.9c0 2.5-2.1 4.5-4.6 4.5M79.4 183.6c-2.5 0-4.6-2-4.6-4.6 0-2.5 2-4.6 4.6-4.6 15.4 0 27.8-12.5 27.8-27.8 0-2.5 2-4.6 4.6-4.6 2.5 0 4.6 2.1 4.6 4.6 0 20.4-16.6 37-37 37M111.8 358c-2.5 0-4.6-2-4.6-4.6 0-15.3-12.5-27.8-27.8-27.8-2.5 0-4.6-2.1-4.6-4.6s2-4.6 4.6-4.6c20.4 0 37 16.6 37 37 0 2.6-2.1 4.6-4.6 4.6M420.6 183.6c-20.4 0-37-16.6-37-37 0-2.5 2.1-4.6 4.6-4.6s4.6 2.1 4.6 4.6c0 15.4 12.5 27.8 27.8 27.8 2.5 0 4.6 2 4.6 4.6 0 2.5-2 4.6-4.6 4.6M388.2 358c-2.5 0-4.6-2-4.6-4.6 0-20.4 16.6-37 37-37 2.5 0 4.6 2.1 4.6 4.6s-2 4.6-4.6 4.6c-15.4 0-27.8 12.5-27.8 27.8 0 2.6-2.1 4.6-4.6 4.6" class="am6_svg__st0"></path></svg>