<svg xmlns="http://www.w3.org/2000/svg" xml:space="preserve" viewBox="0 0 500 500"><path d="M375.5 50c-34.2 0-61.9 27.7-61.9 61.9v32.8H166.7v-32.8c0-24.9 20.3-45.3 45.3-45.3 24.9 0 45.3 20.3 45.3 45.3 0 4.6 3.7 8.3 8.3 8.3s8.3-3.7 8.3-8.3c0-34.2-27.7-61.9-61.9-61.9s-61.9 27.7-61.9 61.9v210.2c-.5 4.6 3.7 8.8 8.3 8.8s8.3-3.7 8.3-8.3v-20.8h147.4v20.8c0 4.6 3.7 8.3 8.3 8.3s8.3-3.7 8.3-8.3V111.9c0-24.9 20.3-45.3 45.3-45.3 24.9 0 44.8 20.3 44.8 45.3 0 4.6 3.7 8.3 8.3 8.3s8.3-3.7 8.3-8.3c0-34.2-27.7-61.9-61.9-61.9m-61.4 234.2H166.7v-29.6h147.4zm0-46.2H166.7v-29.6h147.4zm0-47.1H166.7v-29.6h147.4zM416.6 363.2c-1.8-4.1-6.9-6.5-11.1-4.1-41.6 18-61.9 9.2-83.6 0-22.2-9.2-44.8-18.9-85 0-41.6 18-61.9 9.2-83.6 0-22.2-9.2-45.3-18.9-85.5 0-4.1 1.8-6 6.9-4.1 11.1 1.8 4.1 6.9 6 11.1 4.1 33.7-15.7 51.3-8.3 71.6.5 13.4 5.5 27.7 11.5 46.7 11.5 13.9 0 30-3.2 50.3-12 33.7-15.7 51.3-8.3 71.6.5 13.4 5.5 27.7 11.5 46.7 11.5 13.9 0 30-3.2 50.4-12 4.1-1.9 6.4-7 4.5-11.1M416.2 426.9c-1.8-4.2-6.9-6.5-11.1-4.2-41.6 18-61.9 9.2-83.6 0-22.2-9.2-44.8-18.9-85 0-41.6 18-61.9 9.2-83.6 0-22.2-9.2-44.8-18.9-85.5 0-4.1 1.8-6 6.9-4.1 11.1 2.3 4.1 7.4 6 11.5 4.1 33.7-15.7 51.3-8.3 71.6.5 13.4 5.5 27.7 11.5 46.7 11.5 13.8 0 30-3.2 50.4-12 33.7-15.7 51.3-8.3 71.6.5 13.4 5.5 27.7 11.5 46.7 11.5 13.8 0 30-3.2 50.3-12 4.1-1.8 6.4-6.8 4.1-11"></path></svg>