<svg xmlns="http://www.w3.org/2000/svg" xml:space="preserve" viewBox="0 0 500 500">
    <path
        d="M443.3 214.6v-.6c0-43.1-99.6-66.4-193.3-66.4S56.7 170.9 56.7 214v.2c-.1 37.1 13.6 73 38.5 100.6 6.4 6.9 13.4 13.2 21 18.8l-32.6 62.5c-2.4 4.7-2.9 10.2-1.3 15.2s5.2 9.3 9.9 11.7c2.8 1.5 6 2.2 9.2 2.2 7.4 0 14.3-4.1 17.7-10.7l32.2-61.5c25.2 9.8 51.8 15.3 78.8 16.4V430c0 11 9 20 20 20s20-9 20-20v-60.6c25.9-1.1 51.4-6.2 75.6-15.1 1-.4 2-.9 3-1.3l32.3 61.9c3.5 6.6 10.3 10.7 17.7 10.7 3.2 0 6.4-.8 9.3-2.3 9.7-5.2 13.5-17.2 8.5-27l-32.7-62.6c37.5-28 59.6-72.2 59.5-119.1M250 161c106 0 179.9 27.9 180 53 0 .1-.1.2-.1.3v.2c-1 25-74.6 52.5-179.9 52.5-106.1 0-180-27.9-180-53s73.9-53 180-53M107.2 408.4c-1.7 3.2-5.7 4.5-8.9 2.9-1.6-.8-2.8-2.2-3.3-3.9s-.4-3.6.5-5.1l31.9-61.2c3.8 2.3 7.7 4.4 11.7 6.4zM256.6 430c0 3.7-3 6.7-6.7 6.7s-6.6-3-6.6-6.7v-86.7c0-3.7 3-6.7 6.6-6.7 3.7 0 6.7 3 6.7 6.7zm147.9-27.5c1.7 3.2.5 7.2-2.7 8.9-1.6.9-3.4 1.1-5.1.6s-3.1-1.7-3.9-3.4l-31.9-61.2c3.3-1.6 6.6-3.3 9.8-5.2.3-.2.5-.3.8-.5.4-.2.7-.5 1.1-.7zm-40.6-71.8c-.2.2-.5.3-.7.5-7.1 4.1-14.6 7.7-22.3 10.6-22.7 8.4-46.6 13.2-70.8 14.2v-12.7c0-11-9-20-20-20s-20 9-20 20v12.6c-55.2-3.2-97.3-19.9-124.9-49.9-16.3-18-27.4-40.2-32.1-64 32 25.1 106.2 38.4 177 38.4s145-13.3 177-38.4c-7.4 37.3-30.4 69.6-63.2 88.7">
    </path>
    <path
        d="M101.6 229.8c2.3.6 4.8-.1 6.5-1.7l33.3-33.3c1.3-1.3 1.9-3 1.9-4.7 0-1.8-.7-3.5-1.9-4.7-1.3-1.3-3-1.9-4.7-1.9-1.8 0-3.5.7-4.7 1.9l-33.3 33.3c-1.7 1.7-2.4 4.1-1.7 6.5.5 2.2 2.3 4 4.6 4.6M123.5 238.4c.6 2.3 2.4 4.1 4.7 4.7s4.8 0 6.5-1.7L188 188c1.3-1.3 1.9-2.9 1.9-4.7s-.7-3.5-1.9-4.7c-1.3-1.3-3-2-4.7-2-1.8 0-3.5.7-4.7 2L125.3 232c-1.7 1.6-2.4 4.1-1.8 6.4M156.8 245.1c.6 2.3 2.4 4.1 4.7 4.7s4.8 0 6.5-1.7l66.7-66.7c1.3-1.3 2-3 2-4.7s-.7-3.5-2-4.7c-1.3-1.3-2.9-2-4.7-2s-3.5.7-4.7 2l-66.7 66.7c-1.7 1.6-2.4 4.1-1.8 6.4M190.2 251.7c.6 2.3 2.4 4.1 4.7 4.7s4.8 0 6.5-1.7l73.3-73.3c1.3-1.3 2-3 2-4.7s-.7-3.5-2-4.7c-1.3-1.3-2.9-2-4.7-2s-3.5.7-4.7 2l-73.4 73.3c-1.7 1.7-2.3 4.1-1.7 6.4M230.2 251.7c.6 2.3 2.4 4.1 4.7 4.7s4.8 0 6.5-1.7l66.7-66.7c1.3-1.3 2-3 2-4.7 0-1.8-.7-3.5-2-4.7s-2.9-2-4.7-2-3.5.7-4.7 2L232 245.3c-1.8 1.7-2.4 4.1-1.8 6.4M270.2 251.7c.6 2.3 2.4 4.1 4.7 4.7s4.8 0 6.5-1.7l60-60c1.3-1.2 2-2.9 2-4.7s-.7-3.5-2-4.7c-1.2-1.3-2.9-2-4.7-2s-3.5.7-4.7 2l-60 60c-1.8 1.7-2.5 4.1-1.8 6.4M316.8 245.1c.6 2.3 2.4 4.1 4.7 4.7s4.8 0 6.5-1.7l53.3-53.3c1.3-1.3 1.9-2.9 1.9-4.7s-.7-3.5-1.9-4.7c-1.3-1.3-3-2-4.7-2-1.8 0-3.5.7-4.7 2l-53.3 53.3c-1.7 1.6-2.4 4.1-1.8 6.4M363.5 238.4c.6 2.3 2.4 4.1 4.7 4.7s4.8-.1 6.5-1.8l26.7-26.7c1.7-1.7 2.4-4.1 1.8-6.5-.6-2.3-2.4-4.1-4.7-4.7s-4.8.1-6.5 1.8L365.3 232c-1.8 1.6-2.4 4.1-1.8 6.4M202.8 105.6c4.1 4.9 4.1 12 0 16.9l-2.7 3.2c-1.5 1.8-2 4.3-1.1 6.6.8 2.2 2.8 3.9 5.1 4.3s4.7-.5 6.3-2.3l2.7-3.2c8.2-9.8 8.2-24 .1-33.9l-.2-.2c-4.1-4.9-4.1-12 0-16.9L229 61c1.5-1.8 2-4.3 1.1-6.6-.8-2.2-2.8-3.9-5.1-4.3-2.4-.4-4.7.5-6.3 2.3l-16 19.1c-8.2 9.8-8.2 24-.1 33.9zM242.8 105.6c4.1 4.9 4.1 12 0 16.9l-2.7 3.2c-1.5 1.8-2 4.3-1.1 6.6.8 2.2 2.8 3.9 5.1 4.3s4.7-.5 6.3-2.3l2.7-3.2c8.2-9.8 8.2-24 .1-33.9l-.2-.2c-4.1-4.9-4.1-12 0-16.9L269 61c2.4-2.8 2-7-.8-9.4s-7-2-9.4.8l-16 19.1c-8.2 9.8-8.2 24-.1 33.9zM282.8 105.6c4.1 4.9 4.1 12 0 16.9l-2.7 3.2c-2.4 2.8-2 7 .8 9.4s7 2 9.4-.8l2.7-3.2c8.2-9.8 8.2-24 .1-33.9l-.1-.2c-4.1-4.9-4.1-12 0-16.9L309 61c2.4-2.8 2-7-.8-9.4s-7-2-9.4.8l-16 19.1c-8.2 9.8-8.2 24-.1 33.9z">
    </path>
</svg>