<svg xmlns="http://www.w3.org/2000/svg" xml:space="preserve" viewBox="0 0 500 500"><path d="M386.1 250.5c0-7.8-6.3-14.1-14.1-14.1-18.8.8-18.8 27.6 0 28.3 7.8-.1 14.1-6.4 14.1-14.2m-14.1 4c-5.3-.2-5.3-7.9 0-8 5.3.1 5.3 7.8 0 8"></path><path d="M444.1 243.8c-.2-8.3-4.8-15.8-12.1-19.8l-18.9-10.2c-6.7-3.6-14.9-3.7-21.7-.3l-9-4.9c-7.3-4-16.2-3.7-23.2.6l-18.4 11.2c-7 4.3-11.3 12.1-11.1 20.4l.5 21.5c.2 8.3 4.8 15.8 12.1 19.8l18.9 10.2c3.3 1.8 6.9 2.7 10.5 2.8-4.5 12.7-12.7 26.5-20.1 34.9-3 3.5-6.5 6.8-9.7 10.3-4-8.5-7.9-17.2-11.9-25.7-1.2-2.5-2.3-4.9-2.9-7.4-1.3-4.5-1.2-9.3-1.1-14.5.9-20.8-5.3-41.4-17.6-52.7-11.9-11.4-29.7-15.8-43.9-19.4-8.9-2.1-19.1-6.3-24.9-11.1-.7-.5-1-1.4-.9-2.4.3-3 1.3-11.9 5-15.3 4.9-4.4 13.4-3.2 19.5-1.4 3.6 1.3 7.7 0 9.4-4.1 5.5-11.9 7.8-22.2 6.9-32 3-1.9 5.8-4.3 8-7.1 1.6-2 1.4-4.6 0-6.6-1.8-3.2-3.6-6.3-5.3-9.5-.8-1.5-1.8-3.1-2.1-4.7-.3-1.8 0-3.9.4-6.3.4-2.2.8-4.7.8-7.3-.1-21.8-8-42.6-26.9-53.9-19-11.8-52.4-9.9-71.3 7.1-1.4-.9-3-1.5-4.6-1.8-14.5-19.5-44-18.7-60.8-1.2-20.6 20.8-16.9 52.1-7.7 76.5 4.4 13 10.5 22.3 12.8 36.2 1.8 10.2 1.7 25.3-7.5 37.5-1.3 2-.9 4.8.8 6.4 1.9 1.8 5.2 1.8 7-.1 18.5-19.9 36.4-52.4 31.8-76.5-3.3-17.3-3.6-21.4-3.4-40.4 0-1.6.6-3.4 1.6-5.2.7-1.3 1.7-2.2 2.6-2.4 2.2-.3 5.8 1.1 8.2 1.2-5.8 17.3-1.3 36.9 9.7 52.9 7.7 11.7 8.9 16.8 6 32.2-2.8 13.9-11.4 26.1-23.3 32.6-14.4 7.9-32.3 8.7-47 16.9-15.6 8.6-26.9 25-29.3 42.7-1.6 11.3.5 22.7-.8 33.6-.9 8-3.7 15.8-6.7 24-10.9 31.9-22.8 72-14 111.4.3 1.7 1.5 3 3.1 3.6 5.9 2.3 12.9 3.4 21 3.4 27.1-.1 57.8-.1 86.2-9.8 17.8 3.8 41.9 10.3 59.1 10.3 19.8-.3 42.4-5.7 57.6-21.3 1-1.1 1.5-2.7 1.3-4.2-1.2-7.4-2.2-14.7-3.2-21.9-1.4-11.1-5.2-23-4.8-34.2 7.9 15.8 16.8 31.2 26.4 45.8 7.6 12.2 18.6 24.9 33.7 26.8 6.7.9 13.5-2.4 16.9-8.4 22.2-38.1 34.7-67.4 44.4-103.4 2.9-10.5 5.9-21.3 11.3-30.4 2.3-.6 19.5-11.6 21.9-12.9 7-4.3 11.3-12.1 11.1-20.4.1-.2-.4-21.7-.4-21.7m-96.6 29.3c-4.1-2.2-6.7-6.5-6.8-11.1l-.5-21.5c-.1-4.7 2.3-9.1 6.3-11.4l18.3-11.2c4-2.4 9-2.5 13-.3l18.9 10.3c3.6 2 6.1 5.6 6.7 9.7.1.4.1.9.1 1.4l.5 21.5c.1 4.6-2.3 9-6.3 11.4l-18.4 11.2c-3.9 2.4-9 2.5-13 .3zm-79 97.6c-6 1.5-12.2 2.4-18.3 2.5-14.1-10.2-35.4-8.5-50.3 1.6-15.9-.7-31.8-2.3-47.5-5.3-.4-3.6-.9-7-1.6-10.6 39.8 2.6 79.3 8.4 118.5 2-.6 3.1-.8 6.3-.8 9.8m-130.7-23.2c3.5 12.5 5.4 25.5 5.8 38.6-7.9-.8-15.8-1.2-22.1-.8 1.5-5.9 5.4-12.2 8.4-18 3.2-6.4 5.8-13 7.9-19.8m15.9 39.6c0-2.3-.1-4.7-.3-6.9 11.4 2 22.9 3.5 34.5 4.2-1.2 1.1-2.4 2.3-3.5 3.6-9.5.8-20.4 0-30.7-.9m120.4-37.4s0 .1 0 0c-39.1 8.3-83.8 1.8-125.4-1 23.9-12.3 26.1-31 18.2-53.8-6.9-22-16-43.1-20.7-65.7 2.7-.8 5.4-1.8 8-2.9 6.4 18.1 14.1 36 22.6 53.2 1.7 3.3 3.4 6.5 6 9.3 3.7 3.7 7.7 5.9 11.7 8.9 2.8 1.9 5.2 4 9.1 5.2 3.1.9 6.4.7 9.5.3l22.2-2.2c3.1-.3 7.3-.8 10.8-3.2 9-7.3 12.3-21 10.5-31.8-.7-4-1.9-7.7-3.1-11.3-2.7-8.1-5.8-19.1-7.5-29.8 2.1.9 4.3 1.9 6.7 2.7 2.3 13.9 8 31.5 16.7 44.4 15.8 23.1 20.7 54.9 4.7 77.7M153.9 85.1c-7.5 1.3-12.4 10.4-12.4 17.4-.3 19.7.2 24.5 3.6 42.5 1.9 10.1-1.7 26.1-11.2 43.1.7-13.2-4-28-9.1-38.9-1.7-4-3.5-8.2-5.1-12.9-7.8-20.8-12.2-48.4 5.3-66 11.8-12.3 32-14.4 43.9-1.9-3.8 5-5.8 11.2-5.9 17.3-2.6-.4-5.4-1.3-9.1-.6m23.8 50.6c-7.2-14.9-7.8-27.3-2-41.6 5.6-14.4 19-27.1 33.9-30.3 24.7-5.6 44.8.5 55.9 21.5-16.1 1-29.5 14.9-36.4 30.4-5.8-2.9-12.8-1.1-16.9 4.2-4.3 5.3-4.9 14.8-2.4 21.4-.1 5.1-2.6 10.2-6.7 13.1-3.5 2.6-8.1 3.9-12.8 5-2.5-8.7-8.7-16-12.6-23.7m12.1 47.6c.8-3.9 1.5-8.9 1.5-13.8 10.8-2.4 21.4-6.5 26.2-17.9 1.4.8 2.9 1.9 4.5 1.9 1.9 0 3.7-1.1 4.6-3 1.2-2.5.1-5.6-2.4-6.8-5.8-2.8-7.7-12.5-4.1-17.8.9-1.2 2.3-1.9 3.3-1.7.8.1 1.9.7 2.6 1.4 3.6 3.4 9.7 1.7 11.1-3 4.1-12.8 19.2-30.3 32.4-26.8 1.1 4.6 1.8 11.9 1.9 17.4.1 1.5-.2 3.3-.6 5.2-.5 3-1.2 6.5-.3 10.2.6 3 2 5.5 3.2 7.5 1.4 2.4 2.7 4.8 4.1 7.3-1.7 1.5-3.6 2.8-5.5 3.8-2 1-3.1 3.1-2.8 5.3 1.3 8.4-.3 17.2-4.9 27.7-23.4-5.8-34.1 5-35.7 25.8-.6 4.9 1.8 9.6 5.9 12.2 1.2 13.7 5.4 28.8 8.9 39.4 3.9 10.2 4.6 19.9-1.5 29.3-1.9 3.3-4.4 3.4-8 3.8l-22.2 2.2c-5.9.8-7-.4-11.7-3.7-3.3-2.5-7.4-4.8-10.2-7.6-1.7-1.8-2.9-4.1-4.2-6.8-8.6-17.2-16.1-35.1-22.5-53.2 13.4-8.1 23.2-22.3 26.4-38.3M82.6 439.1c-5.7 0-10.6-.6-14.8-1.9-4.2-18-4.5-51.2 14.6-102.6 3.1-8.4 6.1-17 7.2-26.3.7-5.8.5-11.4.3-16.9-.2-5.8-.3-11.2.4-16.5 1.9-14.6 11.3-28.1 24.1-35.2 6.6-3.6 14-5.7 21.8-7.9 4.9 22.9 13.9 43.9 20.8 66 5.8 17.7 6.3 31-11.4 40.8-1.2-3.6-2.4-7.3-3.8-10.7 1.2-9.6 1.3-19.5.1-29-.3-2.8-2.9-4.7-5.7-4.4s-4.7 2.9-4.4 5.7c1.2 9.4 1.1 18.9-.2 28.4-1.7 12-5.3 23.5-10.7 34.2-4 7.7-8.7 15.1-10 24-5.3 1.1-10.2 2.8-14.5 5.1-5.8 3.3-1.4 11.9 4.7 9 4.5-2.4 9.5-4 15.4-4.8 21.2-2.9 49 4.9 71 1.8 1.2-.2 2.4-.8 3.1-1.6 3.8-4.2 7.8-7.9 11.8-10.7 13.1-10.1 32.8-12.8 44.7-1.5-2 13.1-8 30.7-16.8 40.8-.4.4-1.4 1.5-1.9 1.8-.5.2-1.8.1-2.5 0-5.8-.4-11.6-1.2-17.3-2.1-4.6-.8-9-1.6-13.9-1.6-9 0-17.2 3-25.1 5.8-27.9 10.1-58 10.2-87 10.3m179.1-6.5c-25.2 10.9-45.9 7-73.6.8 6.3-1.4 12.4-.2 18.9.8 6.1 1 12.2 1.8 18.2 2.2 1.7.2 4.2.3 6.8-.6 14.1-6.8 24.5-40.2 25.3-52.9 4.1-.4 8.1-1.1 12.2-2 1.1 7.5 3.1 15.5 4.1 22.7.8 6.4 1.8 13 2.8 19.6-3.8 3.6-9 6.9-14.7 9.4m128.7-106.3c-9.5 35-21.7 63.6-43.4 100.9-1.4 2.4-4.1 3.7-6.8 3.4-12-1.6-20.5-12.5-26.6-22.3-11.3-17.2-21.5-35.4-30.3-54.1 17.4-26.1 12.5-61.7-5.5-87.7-7.3-10.6-11.8-24.3-14.4-35.7 13.5 3.4 28.6 7.3 38.3 16.6 14 14.1 14.6 32.2 14.5 45.2-.1 5.7-.2 11.5 1.4 17.4.9 3.2 2.2 6.1 3.5 8.9 4.7 10.2 9.3 20.2 14 30.4-4.6 6.4-8.3 13.4-11.1 20.9-1 2.6.3 5.6 3 6.5 2.5 1 5.6-.3 6.5-3 2.9-7.6 6.8-14.8 11.8-21.3 4.2-5.7 9.5-10.3 14.1-15.6 9-10.1 20.4-30.3 23.8-44.2.4-.2.8-.4 1.3-.7l18.3-11.2c7-4.3 11.3-12.1 11.1-20.4l-.4-15.6c2.5 1.4 6.1 4 7.3 6.3-.2 13-5.3 25.2-12.9 34.9-9.2 11.6-13.8 26.5-17.5 40.4m37.8-49.3-4.2 2.6c3.8-7.7 6.3-16.4 7.1-25.5.2-1.7.3-3.7-.3-5.9-2.2-7.1-11.7-12.9-18.2-15.3-1.3-4.4-3.9-8.4-7.4-11.3 1.6 0 20 10.6 21.9 11.4 4.1 2.2 6.7 6.5 6.8 11.1l.5 21.5c.2 4.6-2.2 9-6.2 11.4"></path></svg>