<svg xmlns="http://www.w3.org/2000/svg" xml:space="preserve" viewBox="0 0 500 500">
    <path
        d="M129.5 290.7c-1.6-4.6-6.7-7.1-11.3-5.4-4.6 1.6-7.1 6.7-5.5 11.3.1.1.1.3.2.4 9.4 24.9 25.9 46.4 47.4 62 4 2.9 9.5 2 12.4-2s2-9.5-2-12.4c-18.6-13.5-33-32.3-41.2-53.9">
    </path>
    <path
        d="M391.2 313.4c24.5 0 44.4-19.9 44.4-44.4v-9.7c0-24.5-19.9-44.4-44.4-44.4h-6.1v-13.7c0-14.7-11.9-26.7-26.7-26.7H91c-14.7 0-26.7 11.9-26.7 26.7v62.2c.1 83.4 67.7 151 151.1 151.1H234c64.1-.1 121.1-40.6 142.4-101h14.8zm0-80.8c14.7 0 26.7 11.9 26.7 26.7v9.7c0 14.7-11.9 26.7-26.7 26.7h-6.1v-63h6.1zM234 396.7h-18.6c-73.6-.1-133.3-59.7-133.3-133.3v-62.2c0-4.9 4-8.9 8.9-8.9h267.4c4.9 0 8.9 4 8.9 8.9v62.2c0 73.5-59.7 133.2-133.3 133.3M94.4 432.2c-4.9 0-8.9 4-8.9 8.9s4 8.9 8.9 8.9h266.7c4.9 0 8.9-4 8.9-8.9s-4-8.9-8.9-8.9zM154.1 52.6c-3.5-3.5-9.1-3.5-12.6 0-13.3 13.3-13.3 34.8 0 48.1 6.3 6.3 6.3 16.6 0 23l-4.4 4.4c-3.5 3.4-3.6 9-.2 12.6 3.4 3.5 9 3.6 12.6.2l.2-.2 4.4-4.4c13.3-13.3 13.3-34.8 0-48.1-6.3-6.4-6.3-16.6 0-23 3.4-3.5 3.4-9.1 0-12.6M234.1 65.2c3.4-3.5 3.3-9.2-.2-12.6-3.4-3.3-8.9-3.3-12.3 0-13.3 13.3-13.3 34.8 0 48.1 6.3 6.3 6.3 16.6 0 23l-4.4 4.4c-3.5 3.4-3.6 9-.2 12.6 3.4 3.5 9 3.6 12.6.2l.2-.2 4.4-4.4c13.3-13.3 13.3-34.8 0-48.1-6.5-6.4-6.5-16.7-.1-23M314.1 52.6c-3.5-3.5-9.1-3.5-12.6 0-13.3 13.3-13.3 34.8 0 48.1 6.3 6.3 6.3 16.6 0 23l-4.4 4.4c-3.5 3.4-3.6 9-.2 12.6 3.4 3.5 9 3.6 12.6.2l.2-.2 4.4-4.4c13.3-13.3 13.3-34.8 0-48.1-6.3-6.4-6.3-16.6 0-23 3.4-3.5 3.4-9.1 0-12.6">
    </path>
</svg>