<svg xmlns="http://www.w3.org/2000/svg" xml:space="preserve" viewBox="0 0 500 500"><path d="M309.4 120.1h-20.8V76.4c5.8-1.3 10.1-6.7 10.1-13 0-7.3-5.8-13.4-12.8-13.4h-71.8c-7.1 0-12.9 6-12.9 13.4 0 6.5 4.4 11.8 10.3 13.1v43.6h-21.1c-29.7 0-53.8 25.1-53.8 56v187.5c0 30.7 23.8 55.5 53 56-2 3.1-3.2 6.8-3.2 10.8 0 10.9 8.4 19.6 18.8 19.6s18.8-8.8 18.8-19.6c0-3.9-1.1-7.7-3.2-10.8h57.8c-2 3.1-3.2 6.8-3.2 10.8 0 10.9 8.4 19.6 18.9 19.6 10.4 0 18.8-8.8 18.8-19.6 0-4-1.2-7.8-3.2-10.8 29.4-.4 53.1-25.3 53.1-56V176.1c.2-30.9-23.9-56-53.6-56m-99.8-56.8c0-2.5 2-4.6 4.4-4.6h71.8c2.4 0 4.4 2.1 4.4 4.6s-2 4.6-4.4 4.6H214c-2.4.1-4.4-2-4.4-4.6m10.3 13.4h60.3v43.4h-60.3zm-4.1 353.7c0 5.9-4.6 10.9-10.4 10.9s-10.4-4.8-10.4-10.9c0-6 4.6-10.8 10.4-10.8 5.8-.1 10.4 4.9 10.4 10.8m78.7 10.8c-5.7 0-10.4-4.8-10.4-10.9 0-6 4.6-10.8 10.4-10.8s10.4 4.8 10.4 10.8c0 6.1-4.6 10.9-10.4 10.9m60.3-77.6c0 26.1-20.3 47.2-45.4 47.2H190.5c-25.1 0-45.4-21.1-45.4-47.2V176.1c0-26.1 20.3-47.2 45.4-47.2h118.9c25 0 45.4 21.1 45.4 47.2z"></path><path d="M182.2 164.3c-2.3 0-4.2 2-4.2 4.4v212.1c0 2.4 1.9 4.4 4.2 4.4s4.2-2 4.2-4.4V168.7c0-2.6-1.9-4.4-4.2-4.4M316.2 164.3c-2.3 0-4.2 2-4.2 4.4v212.1c0 2.4 1.9 4.4 4.2 4.4s4.2-2 4.2-4.4V168.7c0-2.6-1.9-4.4-4.2-4.4M272.6 164.3c-2.3 0-4.2 2-4.2 4.4v212.1c0 2.4 1.9 4.4 4.2 4.4s4.2-2 4.2-4.4V168.7c0-2.6-1.9-4.4-4.2-4.4M227.4 164.3c-2.3 0-4.2 2-4.2 4.4v212.1c0 2.4 1.9 4.4 4.2 4.4s4.2-2 4.2-4.4V168.7c0-2.6-1.9-4.4-4.2-4.4"></path></svg>