<svg xmlns="http://www.w3.org/2000/svg" xml:space="preserve" viewBox="0 0 500 500"><path d="M308 371h27.2c3.2 0 5.8-2.6 5.8-5.9 0-3.2-2.6-5.9-5.8-5.9H308c-3.2 0-5.9 2.6-5.9 5.9s2.7 5.9 5.9 5.9"></path><path d="M450 201.8c0-3.2-2.6-5.9-5.9-5.9h-14.5c-3.2 0-5.9 2.6-5.9 5.9 0 3.2 2.6 5.9 5.9 5.9h8.6V264H330.7l20-43.9c3.4-7.6 11.1-12.5 19.4-12.5h68c3.2 0 5.8-2.6 5.8-5.9 0-3.2-2.6-5.9-5.8-5.9h-68c-12.9 0-24.7 7.6-30.1 19.3l-9.8 21.5h-35.9c-10.7 0-19.5 8.7-19.5 19.5 0 10.7 8.7 19.5 19.5 19.5h13.1l-22.9 22.9c-5.1 5.1-8.3 11.5-9.3 18.4-16.4.2-31.1 13.1-31.1 30.1v24.3c0 10.2-8.3 18.4-18.4 18.4-10.2 0-18.4-8.2-18.4-18.4V347c0-14.6-10.5-26.8-24.3-29.6V202.1c0-3.2-2.6-5.9-5.9-5.9-3.2 0-5.9 2.6-5.9 5.9V317h-12.6v-18.5c0-16.6-13.5-30.1-30.1-30.1h-24.4c-16.6 0-30.1 13.5-30.1 30.1v48.6c0 16.6 13.5 30.1 30.1 30.1h24.4c16.6 0 30.1-13.5 30.1-30.1v-18.5h12.6v61.1h-42c-3.2 0-5.9 2.6-5.9 5.9 0 3.2 2.6 5.9 5.9 5.9h42V414H61.7v-12.6h79.6c3.2 0 5.9-2.6 5.9-5.9 0-3.2-2.6-5.9-5.9-5.9H61.7V134.5h109.6v71.8c0 3.2 2.6 5.9 5.9 5.9 3.2 0 5.9-2.6 5.9-5.9v-77.7c0-3.2-2.6-5.9-5.9-5.9h-6.3v-18.5c0-16.6-13.5-30.1-30.1-30.1H92.2c-16.6 0-30.1 13.5-30.1 30.1v18.5h-6.3c-3.2 0-5.9 2.6-5.9 5.9v291.2c0 3.2 2.6 5.9 5.9 5.9h121.3c3.2 0 5.9-2.6 5.9-5.9v-90.2c7.3 2.4 12.6 9.3 12.6 17.4v24.3c0 16.6 13.5 30.1 30.1 30.1s30.1-13.5 30.1-30.1V347c0-11.2 9.5-17.2 19.1-18.4v50.5c0 9.7 7.3 17.7 16.7 18.9v8.4c0 10.5 8.5 19 19 19h38.6c10.5 0 19-8.5 19-19v-8.2H444c3.2 0 5.9-2.6 5.9-5.9V201.8zM147.1 347.1c0 10.1-8.2 18.4-18.4 18.4h-24.4c-10.1 0-18.4-8.2-18.4-18.4v-48.7c0-10.1 8.2-18.4 18.4-18.4h24.4c10.1 0 18.4 8.2 18.4 18.4V317h-12.6v-6.3c0-9.9-8.1-18-18-18s-18 8.1-18 18V335c0 9.9 8.1 18 18 18s18-8.1 18-18v-6.3h12.6zm-24.3-12.2c0 3.5-2.8 6.3-6.3 6.3s-6.3-2.8-6.3-6.3v-24.3c0-3.5 2.8-6.3 6.3-6.3 3.4 0 6.3 2.8 6.3 6.3zM73.9 104.3c0-10.1 8.2-18.4 18.4-18.4h48.6c10.1 0 18.4 8.2 18.4 18.4v18.5H73.9zM380 311.7l-38.8-9.7-24.3-19.1 7.2-7.2h114.2v36zm-66.1-16.2 21 16.5c.6.5 1.4.9 2.2 1.1l30.6 7.7-10.6 10.6-43.2-11.6zm-27.3-39.3c0-4.3 3.5-7.8 7.8-7.8h30.5l-7.1 15.5h-23.5c-4.2.1-7.7-3.4-7.7-7.7m0 123v-57.3c0-5.7 2.2-11 6.2-15.1l9.3-9.3v26.7c0 2.7 1.8 5 4.4 5.7l50.8 13.6q3 .75 5.7-1.5l18.6-18.6h56.7v22.2h-21.4c-18.2 0-33 14.8-33 33v7.8H294c-4.1.1-7.4-3.2-7.4-7.2m70 27.2c0 4-3.3 7.3-7.3 7.3h-38.6c-4 0-7.3-3.3-7.3-7.3v-8.2h53.2zm81.7-19.9h-42.7v-7.8c0-11.7 9.5-21.3 21.3-21.3h21.4z"></path><path d="m123.7 253 36.4-60.7c3-4.3.7-8.7-5-8.9h-30.5v-30.5c-.3-6.9-7.5-8.2-10.9-3l-36.4 60.7c-2.3 3.8-1.1 8.9 5 8.9h30.5V250c0 7.3 7.3 8.4 10.9 3m-31.1-45.3 20.2-33.7v15.2c0 3.2 2.6 5.9 5.9 5.9h26l-20.2 33.7v-15.2c0-3.2-2.6-5.9-5.9-5.9zM133 98.5h-32.9c-3.2 0-5.8 2.6-5.8 5.9s2.6 5.9 5.8 5.9H133c3.2 0 5.9-2.6 5.9-5.9s-2.7-5.9-5.9-5.9"></path></svg>