<svg xmlns="http://www.w3.org/2000/svg" xml:space="preserve" viewBox="0 0 500 500"><path d="M447 54.1c-1.9-1.6-4.4-2.3-6.9-1.8C314.4 75 185.6 75 59.9 52.3c-4.6-.8-8.9 2.2-9.8 6.8-.1.5-.2 1-.2 1.5v235.5c0 4.6 3.8 8.4 8.4 8.4.5 0 1-.1 1.5-.1 125.7-22.8 254.5-22.8 380.2 0 4.6.8 9-2.2 9.8-6.8.1-.5.1-1 .1-1.5V60.5c.1-2.5-1-4.8-2.9-6.4M433.2 286c-121.2-20.8-245.1-20.8-366.3 0V70.6c121.2 20.8 245.1 20.8 366.3 0zM402.6 358.2H373c-.4-20.2-16.9-36.4-37.1-36.4h-38.2c-20.2 0-36.7 16.2-37.1 36.4h-21.1c-.4-20.2-16.9-36.4-37.1-36.4h-38.2c-20.2 0-36.7 16.2-37.1 36.4H97.5c-20.5 0-37.1 16.6-37.1 37.1v44.2c0 4.6 3.8 8.4 8.4 8.4h95.5c4.6 0 8.4-3.8 8.4-8.4v-28h21.1v28c0 4.6 3.8 8.4 8.4 8.4h95.5c4.6 0 8.4-3.8 8.4-8.4v-28h21.1v28c0 4.6 3.8 8.4 8.4 8.4h95.5c4.6 0 8.4-3.8 8.4-8.4v-44.2c.1-20.5-16.5-37.1-36.9-37.1m-246.7 72.9H77.2v-35.8c0-11.2 9.1-20.3 20.3-20.3h38.2c11.2 0 20.2 9.1 20.3 20.3v35.8zm37.9-36.5h-21.1c-.3-17-12.2-31.7-28.8-35.5v-.3c0-11.2 9.1-20.3 20.2-20.3h38.2c11.2 0 20.2 9.1 20.2 20.3v.3c-16.5 3.9-28.3 18.5-28.7 35.5m95.6 36.5h-78.7v-35.8c0-11.2 9.1-20.3 20.3-20.3h38.2c11.2 0 20.2 9.1 20.3 20.3v35.8zm37.9-36.5h-21.1c-.3-17-12.2-31.7-28.8-35.5v-.3c0-11.2 9.1-20.3 20.3-20.3h38.2c11.2 0 20.2 9.1 20.2 20.3v.3c-16.6 3.9-28.5 18.5-28.8 35.5m95.5 36.5h-78.7v-35.8c0-11.2 9.1-20.3 20.2-20.3h38.2c11.2 0 20.3 9.1 20.3 20.3z"></path></svg>