<svg xmlns="http://www.w3.org/2000/svg" xml:space="preserve" viewBox="0 0 500 500"><path d="M450 163.8c0-7.6-3-14.8-8.3-20.1l-23.9-23.9 18.5-18.5c9.7-9.7 9.7-25.4 0-35.1-8.7-11-24.6-12.8-35.6-4.1-.7.5-1.4 1.1-2 1.7l-18.5 18.5-23.9-23.9c-11.1-11.1-29.1-11.1-40.2 0l-21.3 21.3c-34.9-32.7-88.3 22-54.6 56.1l43.2 43.2-104.5 104.5-43.2-43.2c-34.1-33.7-88.7 19.5-56.1 54.5l-21.3 21.3c-11.1 11.1-11.1 29.1 0 40.2l23.9 23.9-18.5 18.5c-23.2 23.6 13.8 60.8 37.6 37.6l18.5-18.5 23.9 23.9c11.1 11.1 29.1 11.1 40.2 0l21.3-21.3c34.9 32.7 88.3-22 54.5-56.1l-43.2-43.2 104.6-104.6 43.2 43.2c14.7 14.3 38.3 14 52.6-.8 1-1 1.9-2.1 2.8-3.2 13.8-13.9 14.1-36.3.7-50.6l21.3-21.3c5.3-5.2 8.3-12.5 8.3-20m-41.2-90c10.1-10.3 27.7 7.3 17.4 17.4l-18.5 18.5-17.4-17.4zM91.2 426.2c-10.1 10.2-27.7-7.3-17.4-17.4l18.5-18.5 17.4 17.5zm82.6 5.4c-5.6 5.4-14.5 5.4-20.1 0l-85.3-85.3c-5.5-5.6-5.5-14.5 0-20.1L89.6 305 195 410.4zm75.8-25.9c-7.5 10.9-22.4 13.6-33.3 6a23.6 23.6 0 0 1-6.3-6.3L90.3 285.6c-8.8-9.3-8.4-24 .9-32.8 1-.9 2-1.7 3.1-2.5 8.6-8.6 22.6-8.6 31.3 0l124 124c8.7 8.7 8.7 22.7 0 31.4M311 206.4 206.4 311 189 293.6 293.6 189zm98.7 39.3c-7.1 10.7-21.5 13.5-32.2 6.4-1.1-.7-2.1-1.6-3.1-2.5l-124-124c-8.6-8.6-8.6-22.6 0-31.3C255 88 262.2 84.2 270 83.8c7.9.4 15.2 4.4 19.9 10.7L405.4 210l4.3 4.3c8.6 8.7 8.6 22.7 0 31.4m21.9-71.9L410.4 195 305 89.6l21.2-21.2c5.6-5.4 14.5-5.4 20.1 0l85.3 85.3c5.5 5.6 5.5 14.5 0 20.1"></path></svg>