<svg xmlns="http://www.w3.org/2000/svg" xml:space="preserve" viewBox="0 0 500 500"><path d="m160.6 413.3 3.7 6.5c3.9 7 1.4 15.8-5.5 19.7l-15.1 8.6c-6.9 3.9-15.8 1.4-19.7-5.5l-44.4-78.5c-3.9-6.9-1.5-15.8 5.5-19.7l15.1-8.6c6.9-3.9 15.8-1.4 19.7 5.5l2.9 5.1 38.5-22.3c12.2-7.1 24.7-11.6 38.1-7.2 12.7 4.1 33.4 13 54.5 16.8.3.1.6.1.8.2 11.3 3.7 18.1 15.1 15.1 26.6-.2.8-.5 1.6-.7 2.4 1.3-.5 2.7-1.2 4-1.9l53.9-31.4c20.1-11.7 33.5-10.2 41-5.1 6.7 4.5 9.8 12.1 9.6 19.6-.2 7.6-3.9 14.8-9.8 18.5L270 422.7c-10.6 6.5-22.1 8.1-34.1 4.9l-68.3-18.3zm-31.4-55.4 24.9 44 9.2-5.3c1.5-.9 3.3-1.1 5-.7l70.9 19c8.4 2.2 16.5 1.2 23.9-3.3l97.7-60.2c2.4-1.5 3.5-4.6 3.6-7.7.2-9.3-9.1-15.5-30.9-2.8l-53.9 31.4c-8.9 5.2-18.2 6.6-28.3 5l-6.7-1.1h-.3c-12.2-2.5-23.5-6.2-36-9.6-3.5-.9-5.6-4.5-4.6-8 .9-3.5 4.5-5.6 8-4.6 12.2 3.3 23.2 6.9 35 9.3 5.3.6 9.2-1.5 10.5-6.1 1.2-4.6-1.7-9-6.1-10.6-21.6-4-42.8-12.9-55.7-17.2-9.7-3.1-18.6 1-27.5 6.1zm-20.7-10.1c-.4-.7-1.2-.9-1.9-.5l-15.1 8.6c-.7.4-.9 1.2-.5 1.9l44.4 78.5c.4.7 1.2.9 1.9.5l15.1-8.5c.7-.4.9-1.2.5-1.9zm-4.7 7.7c3.4-.5 6.6 1.9 7.1 5.3s-1.9 6.6-5.3 7.1-6.6-1.9-7.1-5.3 1.9-6.6 5.3-7.1M314.5 73c10 2.7 19.7 6.7 28.7 11.9l18.4-8.2c2.5-1.1 5.4-.6 7.3 1.3l25.4 25.4c1.9 1.9 2.5 4.8 1.3 7.3l-8.2 18.4c5.2 9 9.2 18.7 11.9 28.7l18.8 7.2c2.5 1 4.2 3.4 4.2 6.1V207c0 2.7-1.7 5.1-4.2 6.1l-18.8 7.2c-2.7 10-6.7 19.7-11.9 28.7l8.2 18.4c1.1 2.5.6 5.4-1.3 7.3l-25.4 25.4c-1.9 1.9-4.8 2.5-7.3 1.3l-18.4-8.2c-9 5.2-18.7 9.2-28.7 11.9l-7.2 18.8c-1 2.5-3.4 4.2-6.1 4.2h-35.9c-2.7 0-5.1-1.7-6.1-4.2l-7.2-18.8c-10.1-2.7-19.7-6.7-28.7-11.9l-18.4 8.2c-2.5 1.1-5.4.6-7.3-1.3l-25.4-25.4c-1.9-1.9-2.5-4.8-1.3-7.3l8.2-18.4c-5.2-9-9.2-18.7-11.9-28.7l-18.8-7.2c-2.5-1-4.2-3.4-4.2-6.1v-35.9c0-2.7 1.7-5.1 4.2-6.1l18.8-7.2c2.7-10.1 6.7-19.7 11.9-28.7l-8.2-18.4c-1.1-2.5-.6-5.4 1.3-7.3L197.6 78c1.9-1.9 4.8-2.5 7.3-1.3l18.4 8.2c9-5.2 18.7-9.2 28.7-11.9l7.3-18.9c1-2.5 3.4-4.2 6.1-4.2h35.9c2.7 0 5.1 1.7 6.1 4.2zm-11 7.9-6.8-17.8h-26.9l-6.9 17.8c-.8 2-2.5 3.5-4.6 4-11 2.6-21.6 7-31.2 12.9-1.8 1.1-4.1 1.3-6.1.4l-17.4-7.7-19 19 7.7 17.4c.9 2 .7 4.2-.4 6.1-6 9.7-10.3 20.2-13 31.3-.5 2.1-2 3.8-4 4.6l-17.8 6.8v26.9l17.8 6.8c2 .8 3.5 2.5 4 4.6 2.7 11 7 21.6 13 31.2 1.1 1.8 1.3 4.1.4 6.1l-7.7 17.4 19 19L221 280c2-.9 4.2-.7 6.1.4 9.7 5.9 20.2 10.3 31.2 12.9 2.1.5 3.8 2 4.6 4l6.8 17.8h26.9l6.8-17.8c.8-2 2.5-3.5 4.6-4 11-2.6 21.6-7 31.2-12.9 1.8-1.1 4.1-1.3 6.1-.4l17.4 7.7 19-19-7.7-17.4c-.9-2-.7-4.2.4-6.1 5.9-9.7 10.3-20.2 12.9-31.2.5-2.1 2-3.8 4-4.6l17.8-6.8v-26.9l-17.8-6.8c-2-.8-3.5-2.5-4-4.6-2.6-11.1-7-21.6-12.9-31.2-1.1-1.9-1.3-4.1-.4-6.1l7.7-17.4-19-19-17.4 7.7c-2 .9-4.3.7-6.1-.4-9.7-6-20.2-10.3-31.2-12.9-2-.6-3.7-2.1-4.5-4.1m-20.3 14c52.1 0 94.4 42.2 94.4 94.3s-42.3 94.3-94.4 94.3-94.3-42.2-94.3-94.3c0-52.2 42.2-94.3 94.3-94.3m0 13.1c-44.9 0-81.2 36.3-81.2 81.2s36.3 81.2 81.2 81.2 81.2-36.4 81.2-81.2c0-44.9-36.3-81.2-81.2-81.2m-10.5 142.7c0 3.6-2.9 6.5-6.5 6.5s-6.5-2.9-6.5-6.5v-30.3c-16.1-8.5-27.1-25.4-27.1-44.8 0-19.8 11.3-36.9 27.8-45.3 2-1 4.5-.9 6.4.3s3.1 3.3 3.1 5.6v40.6l13.4 7.7 13.4-7.7v-40.6c0-2.3 1.2-4.4 3.1-5.6s4.4-1.3 6.4-.3c16.5 8.4 27.8 25.5 27.8 45.3 0 19.4-10.9 36.3-27.1 44.8v30.3c0 3.6-2.9 6.6-6.5 6.6s-6.6-2.9-6.6-6.6v-34.5c0-2.7 1.6-5 4-6 13.5-5.7 23-19.1 23-34.6 0-10.4-4.2-19.9-11.1-26.7v31.7c0 2.3-1.2 4.5-3.3 5.7l-19.9 11.5c-2 1.2-4.5 1.2-6.5 0l-20-11.6c-2-1.2-3.3-3.3-3.3-5.7v-31.7c-6.8 6.8-11.1 16.2-11.1 26.7 0 15.6 9.5 29 23 34.6 2.4 1 4 3.4 4 6v34.6z" style="fill-rule:evenodd;clip-rule:evenodd"></path></svg>