<svg xmlns="http://www.w3.org/2000/svg" xml:space="preserve" viewBox="0 0 500 500"><path d="M243.3 146c-52 1.8-98.9 23.6-133.3 58-35.9 35.9-58.1 85.5-58.1 140.3 0 3.9 3.2 7.1 7.1 7.1h382.8c3.9 0 7-3.2 7-7.1 0-54.8-22.2-104.4-58.1-140.3-34.4-34.4-81.3-56.2-133.3-58v-9.4h24.4c3.9 0 7.1-3.2 7.1-7.1s-3.2-7-7.1-7h-62.9c-3.9 0-7.1 3.1-7.1 7s3.2 7.1 7.1 7.1h24.4zM120 214c33.4-33.4 79.4-54 130.3-54s97 20.6 130.3 54c31.8 31.8 52 75.2 53.9 123.3H66.2c1.8-48.2 22-91.6 53.8-123.3m322.9 149.4H57c-3.9 0-7 3.1-7 7s3.1 7.1 7 7.1h385.9c3.9 0 7.1-3.1 7.1-7.1 0-3.8-3.2-7-7.1-7M136.7 235.5c18.9-19.8 43-34.6 70-42.4 3.8-1.1 5.9-4.9 4.8-8.7-1.1-3.7-4.9-5.9-8.7-4.8-29.5 8.5-55.7 24.7-76.3 46.2S90.9 274.1 83.7 304c-.9 3.8 1.4 7.6 5.2 8.5s7.6-1.4 8.5-5.2c6.6-27.5 20.4-52.1 39.3-71.8" style="fill-rule:evenodd;clip-rule:evenodd"></path></svg>