<svg xmlns="http://www.w3.org/2000/svg" xml:space="preserve" viewBox="0 0 500 500">
    <path
        d="M442.5 356h-36.7c-6.2 0-12.4.9-18.4 2.5-1.5-32.8-17.4-63.1-42.3-79.9-2.5-1.7-5.8-1.7-8.4 0-12.9 8.9-23.4 21-30.5 35-15.9-14-34.4-24.9-54.3-32.1 27.9-6.1 49.9-18.7 49.9-44.5 0-27.9-25.5-60.1-61.8-77.1 24-4.1 47-14 47-38 0-32.3-42.4-71.8-91.8-71.8-49.5 0-91.9 39.5-91.9 71.8 0 20.4 16.6 30.6 36.3 35.7-38.9 16.3-66.9 50.2-66.9 79.4 0 30.4 30.2 42.5 65 47.1-51 20.8-87.7 64.8-87.7 102.6 0 56.7 84.7 63.2 148.3 63.2 26.2.4 52.3-1.5 78.2-5.6 8.8 3.7 18.2 5.6 27.7 5.6h73.4c40 0 72.4-32.4 72.4-72.4v-14.1c0-4.1-3.4-7.4-7.5-7.4m-101.6-62c19.6 15.5 31.7 41.6 31.7 69.6v.5c-13.7 7.1-24.8 18.5-31.7 32.3-6.8-13.9-17.9-25.2-31.6-32.2v-.5c0-11.9 2.1-23.7 6.4-34.8 5.2-13.7 13.9-25.7 25.2-34.9M118.2 121.8c0-22.5 34.4-56.9 76.9-56.9 42.4 0 76.9 34.4 76.9 56.9 0 17.4-25.1 25.9-76.9 25.9s-76.9-8.5-76.9-25.9M87.6 236.9c0-41 60.3-74.2 99.6-74.2s99.6 33.2 99.6 74.2c0 8.6 0 34.9-99.6 34.9s-99.6-26.3-99.6-34.9M65 386.7c0-39.3 57.3-100 133.4-100 37.9.5 74.2 15.4 101.7 41.5-3.3 9.8-5.2 20-5.6 30.2-6-1.6-12.3-2.5-18.5-2.5h-36.7c-4.1 0-7.5 3.4-7.5 7.5v14.1c0 20.9 9.1 40.8 24.9 54.6-19.4 2.1-38.8 3-58.3 2.9-91 0-133.4-15.3-133.4-48.3m215.4 43.1c-20.5-9.3-33.6-29.7-33.6-52.2V371H276c7.9 0 15.7 1.6 23 4.8 13.5 5.9 24.2 16.8 30 30.3 3 7 4.5 14.6 4.5 22.3v6.6h-29.2c-8.3 0-16.5-1.8-23.9-5.2M435 377.6c0 31.7-25.7 57.4-57.4 57.4h-29.2v-6.6c0-22.8 13.5-43.5 34.5-52.6 7.2-3.2 15-4.8 22.9-4.8H435z">
    </path>
</svg>