<svg xmlns="http://www.w3.org/2000/svg" xml:space="preserve" viewBox="0 0 500 500"><path d="M394.2 332.1c-.1-.1-.1-.2-.2-.2-.3-.5-.7-1.1-1-1.6l-.6-.9c-.2-.4-.5-.7-.7-1.1-.3-.5-.7-.9-1-1.4-.1-.1-.2-.3-.3-.4s-.2-.2-.2-.3c-.4-.5-.8-1.1-1.2-1.6-.2-.2-.3-.3-.4-.5-.4-.5-.8-1-1.3-1.5-.2-.2-.4-.4-.5-.6-.3-.4-.7-.8-1.1-1.2-.3-.3-.5-.6-.8-.9-.2-.2-.4-.4-.6-.7-8.1-8.2-18.1-14.2-29.3-17.5-.2-.1-.4-.1-.6-.2l-53-9.8h-.3c-2.5-.4-5-.1-7.3.9-1.9-2.3-3.1-5.4-3.1-8.2v-9.6c3.4-2.1 6.6-4.5 9.7-7.2 13.1-11.3 21.4-27.6 23.2-45.4 9.6-.4 17.3-8.4 17.3-18.2v-13.7c0-5.5-2.5-10.6-6.6-14v-31.4c19.1-9.5 23.3-20.4 23.3-28.2 0-13.3-12.4-30-32.4-43.5C312.5 64.5 285.7 50 250 50s-62.4 14.5-75.3 23.2c-20 13.5-32.4 30.2-32.4 43.5 0 7.8 4.2 18.8 23.3 28.2v31.4c-4.2 3.4-6.6 8.5-6.6 14V204c0 9.7 7.7 17.7 17.3 18.2 1.8 17.8 10.1 34.1 23.2 45.4 3.2 2.7 6.4 5.1 9.8 7.2v9.6c0 2.9-1.2 6-3.1 8.2-2.4-1-5-1.4-7.6-.9l-53 9.8c-.2 0-.4.1-.6.2-11.2 3.3-21.2 9.3-29.3 17.5l-.7.7c-.3.3-.5.6-.8.9-.4.4-.7.8-1.1 1.2-.2.2-.3.4-.5.6-.4.5-.8 1-1.3 1.5-.2.2-.3.4-.4.5-.4.5-.8 1-1.2 1.6-.1.1-.2.2-.2.3-.1.1-.2.3-.3.4-.3.5-.7.9-1 1.4-.2.3-.5.7-.7 1.1l-.6.9c-.3.5-.7 1.1-1 1.6 0 .1-.1.2-.1.2-6.5 10.7-9.9 22.8-9.9 35.4v7.1c0 3.2 2.6 5.9 5.9 5.9 3.2 0 5.9-2.6 5.9-5.9v-7.1c0-5.7.8-11.3 2.5-16.6 3.5 2.7 7.6 4.2 12 4.2.7 0 1.4 0 2.1-.1 5.1-.5 9.8-3.1 13-7.1l6.4-7.9c3.2-4 4.7-9.1 4.2-14.2-.4-4.1-2.1-7.8-4.8-10.8 1.7-.7 3.4-1.3 5.2-1.8l33.8-6.3 26.8 37.5c2.7 3.7 6.9 5.8 11.3 5.8 1.8 0 3.7-.4 5.5-1.1l1.8-.7 7.8 9.1-11.2 80.9h-73.7v-47.5c0-3.2-2.6-5.9-5.9-5.9-3.2 0-5.9 2.6-5.9 5.9v47.5H115c-4 0-7.3-3.3-7.3-7.3V402c0-3.2-2.6-5.9-5.9-5.9-3.2 0-5.9 2.6-5.9 5.9v29c0 10.5 8.5 19 19 19h270c10.5 0 19-8.5 19-19v-63.5c.1-12.6-3.3-24.8-9.7-35.4m-259.7.5-6.4 7.9c-1.3 1.6-3.1 2.6-5.1 2.8s-4-.3-5.6-1.6l-2.5-2c.5-.9 1.1-1.9 1.7-2.7.5-.8 1-1.5 1.5-2.3.2-.2.3-.4.5-.7.5-.6.9-1.3 1.4-1.9.1-.2.3-.3.4-.5.6-.7 1.1-1.3 1.7-2 .2-.2.3-.4.5-.6.6-.6 1.2-1.3 1.8-1.9l.2-.2c2.3-2.2 4.7-4.3 7.4-6.1l1.3 1c1.6 1.3 2.6 3.1 2.8 5.1.3 2.1-.3 4.1-1.6 5.7m232.2-10.7 1.3-1c2.6 1.8 5.1 3.9 7.4 6.1l.2.2c.6.6 1.2 1.2 1.8 1.9.2.2.4.4.5.6.6.7 1.2 1.4 1.7 2 .1.2.3.3.4.5.5.6 1 1.3 1.4 1.9.2.2.3.5.5.7.5.7 1 1.5 1.5 2.3.6.9 1.1 1.8 1.7 2.7l-2.5 2c-1.6 1.3-3.5 1.9-5.6 1.6-2-.2-3.8-1.2-5.1-2.8l-6.4-7.9c-2.6-3.4-2.1-8.1 1.2-10.8m-70-17.2 1.6-1.2c.3-.2.6-.3 1-.2l6.1 1.1-23.6 33.1c-.6.8-1.7 1.1-2.6.7l-17.4-7.4zM250 325l-34.2-25.5c3.2-4.2 5.2-9.6 5.2-15V281c9 3.8 18.7 5.8 28.9 5.9h.2c10.2-.1 19.9-2.1 28.9-5.9v3.4c0 5.4 1.9 10.8 5.2 15zm11.4 18.5-5.4 6.2h-12.1l-5.3-6.2 11.4-4.9zm-95.7-222.8v10.9c-7.5-4.6-11.6-9.8-11.6-14.9 0-10.6 14.1-24.9 27.2-33.8C193 75 217.5 61.7 250 61.7s57 13.3 68.7 21.2c13.1 8.9 27.2 23.3 27.2 33.8 0 5.1-4 10.2-11.6 14.9v-10.7c0-8.3-5.6-15.5-13.6-17.5-15.2-3.9-45-10.4-74.4-10.4h-.1c-25.4 0-50.6 5.6-67.4 10.3-7.7 2.1-13.1 9.3-13.1 17.4m154.1 26.7q-.15.3-.3.3c-.2.2-.4.5-.7.7l-.4.4c-.2.2-.4.4-.6.5-.2.2-.4.3-.6.5s-.4.3-.5.4c-.3.2-.6.4-.8.6-.2.1-.3.2-.4.3-.3.2-.7.5-1.1.7-.1 0-.2.1-.3.2-2.4 1.5-5.3 3-8.6 4.4-.1 0-.1.1-.2.1-12.6 5.2-31.4 9.1-55.1 9.1s-42.6-3.9-55.1-9.1c-.1 0-.1-.1-.2-.1-3.3-1.4-6.2-2.9-8.7-4.4-.1 0-.2-.1-.2-.2-.4-.2-.7-.5-1.1-.7-.2-.1-.3-.2-.4-.3-.3-.2-.6-.4-.8-.6s-.4-.3-.5-.4c-.2-.2-.4-.3-.6-.5s-.4-.4-.6-.5-.3-.3-.4-.4c-.2-.2-.5-.4-.7-.7l-.3-.3c-2.7-2.5-2.7-11.7-2.7-11.7v-15c0-2.8 1.9-5.4 4.7-6.1 16-4.5 40.1-9.8 64.2-9.8h.1c28.1 0 56.8 6.3 71.5 10 2.8.7 4.8 3.3 4.8 6.2v14.8c.5 6.2-3.4 11.6-3.4 11.6m2.8 13.1v13.6c-2.7.5-5.9 1.4-9.1 3v-11.4c3.6-1.6 6.6-3.4 9.1-5.2m-136 5.3v11.4c-3.2-1.7-6.5-2.6-9.2-3v-13.6c2.5 1.7 5.6 3.5 9.2 5.2m20.6 92.9c-12-10.3-19.1-25.8-19.5-42.5-.1-3.2-2.7-5.7-5.9-5.7h-4.7c-3.6 0-6.5-2.9-6.5-6.5v-13.7c0-2 .9-3.8 2.4-5 2.1.2 5.9.8 9.2 2.9 0 0 .1 0 .1.1.5.3.9.6 1.3 1 0 0 .1.1.2.1l.6.6.5.5s.1.1.2.1c.2.1.3.2.4.3.1 0 .1.1.2.1l.6.3.6.3c.1 0 .1 0 .2.1.2.1.3.1.5.2h.2c.2.1.4.1.7.2.2 0 .5.1.7.1h1.6c.2 0 .5-.1.7-.1h.2c.2 0 .3-.1.5-.1.1 0 .1 0 .2-.1.2-.1.5-.2.7-.2 3-1.3 5-4.2 5-7.5v-14c15.1 4.8 33.7 7.2 51.7 7.2 18.1 0 36.6-2.5 51.7-7.2v14c0 3.3 1.9 6.2 5 7.5.2.1.5.2.7.2l.2.1c.2 0 .3.1.5.1h.2c.5.1 1 .1 1.4.1h.9c.5-.1.9-.2 1.4-.3h.2c.2-.1.3-.1.5-.2.1 0 .1 0 .2-.1.2-.1.4-.2.7-.3l.6-.3s.1-.1.2-.1c.1-.1.3-.2.4-.3 0 0 .1-.1.2-.1.2-.2.4-.3.5-.5l.6-.6s.1-.1.2-.1c.2-.2.4-.3.6-.5h.1c.2-.2.4-.3.7-.4.1 0 .1-.1.2-.1l.6-.3.1-.1c.2-.1.5-.2.7-.3 0 0 .1-.1.2-.1l.6-.3h.1c.2-.1.5-.2.7-.3 0 0 .1 0 .1-.1.2-.1.5-.2.7-.2.3-.1.5-.2.8-.2 1.8-.5 3.4-.7 4.6-.8 1.5 1.2 2.4 3 2.4 5v13.7c0 3.5-2.9 6.5-6.5 6.5h-4.7c-3.2 0-5.8 2.5-5.9 5.7-.3 16.7-7.4 32.2-19.4 42.5-12.4 10.7-26.8 16.3-42.8 16.5-15.9-.5-30.3-6-42.8-16.8m13.7 79.6c-.9.4-2 .1-2.6-.7l-23.6-33.1 6.1-1.1c.3-.1.7 0 1 .2l1.5 1.2 35 26.2zm14.8 100 10.7-76.8h7.3l10.7 76.8zm149.3 0h-23.5v-47.5c0-3.2-2.6-5.9-5.9-5.9-3.2 0-5.9 2.6-5.9 5.9v47.5h-73.6l-11.3-80.9 7.8-9.1 1.8.7c1.8.8 3.6 1.1 5.5 1.1 4.4 0 8.6-2.1 11.3-5.8l26.8-37.5 33.8 6.3c1.8.5 3.5 1.2 5.2 1.8-6.2 6.9-6.7 17.6-.7 25l6.4 7.9c3.2 4 7.9 6.5 13 7.1.7.1 1.4.1 2.1.1 4.3 0 8.5-1.5 12-4.2 1.6 5.3 2.5 10.9 2.5 16.6V431c0 4-3.3 7.3-7.3 7.3"></path><path d="M330 384.9h-30.9c-5.3 0-9.6 4.3-9.6 9.6v16.4c0 5.3 4.3 9.6 9.6 9.6H330c5.3 0 9.6-4.3 9.6-9.6v-16.4c0-5.3-4.3-9.6-9.6-9.6m-28.7 11.7h26.6v12.2h-26.6zM200.9 384.9H170c-5.3 0-9.6 4.3-9.6 9.6V411c0 5.3 4.3 9.6 9.6 9.6h30.9c5.3 0 9.6-4.3 9.6-9.6v-16.5c0-5.3-4.4-9.6-9.6-9.6m-2.2 23.9h-26.6v-12.2h26.6z"></path></svg>