<svg xmlns="http://www.w3.org/2000/svg" xml:space="preserve" viewBox="0 0 500 500"><path d="M404 450H96c-2.9 0-5.3-2.4-5.3-5.3V207.4c0-2.9 2.4-5.3 5.3-5.3 3 0 5.3 2.4 5.3 5.3v231.9h297.3V207.4c0-2.9 2.4-5.3 5.3-5.3s5.3 2.4 5.3 5.3v237.2c.1 3-2.3 5.4-5.2 5.4"></path><path d="M432.4 240.8c-1.4 0-2.8-.5-3.8-1.5L250 62.9 71.4 239.3c-2.1 2.1-5.5 2.1-7.6 0s-2.1-5.5 0-7.6l.1-.1L246.3 51.5c2.1-2 5.4-2 7.5 0l182.4 180.1c2.1 2.1 2.1 5.5 0 7.6-1 1-2.4 1.6-3.8 1.6"></path><path d="M404 240.8H96c-2.9 0-5.3-2.4-5.3-5.3s2.4-5.3 5.3-5.3h308c2.9 0 5.3 2.4 5.3 5.3s-2.4 5.3-5.3 5.3"></path><path d="M96 350.4c-2.9 0-5.3-2.4-5.3-5.3 0-2.3 1.5-4.3 3.6-5.1 34-11.8 59.9-33 76.8-63.1 12.7-22.6 15.3-42 15.3-42.2.4-2.9 3.1-5 6-4.6s5 3.1 4.6 6c-.1.9-2.8 21.3-16.4 45.6-7.8 14.1-18 26.9-30 37.7-14.9 13.4-32.7 23.7-52.9 30.7-.5.2-1.1.3-1.7.3"></path><path d="M123.5 376.8H96c-2.9 0-5.3-2.4-5.3-5.3v-26.4c0-3 2.4-5.3 5.3-5.3h27.5c10.2.1 18.4 8.6 18.3 18.8-.2 10-8.3 18.1-18.3 18.2m-22.1-10.7h22.1c4.3-.1 7.8-3.7 7.7-8-.1-4.2-3.5-7.6-7.7-7.7h-22.1zM404 350.4c-.6 0-1.2-.1-1.7-.3-20.2-7-38-17.3-52.9-30.7-12-10.8-22.1-23.6-30-37.7-13.6-24.3-16.3-44.8-16.4-45.6-.4-2.9 1.7-5.6 4.6-6s5.6 1.7 6 4.6c0 .4 2.7 19.7 15.3 42.2 16.9 30.1 42.7 51.3 76.8 63.1 2.8.9 4.3 4 3.3 6.8-.7 2.2-2.7 3.6-5 3.6"></path><path d="M404 376.8h-27.5c-10.3.2-18.7-8-18.9-18.3-.1-10.2 8-18.7 18.3-18.8H404c2.9 0 5.3 2.4 5.3 5.3v26.4c.1 3-2.3 5.4-5.3 5.4m-27.5-26.4c-4.3-.1-7.9 3.3-8 7.7-.1 4.3 3.3 7.9 7.6 8h22.5v-15.7zM158.8 450c-1 0-2-.3-2.9-.9-24.4-15.7-35.3-35.9-40.2-50.1-5.3-15.4-4.7-27.2-4.7-27.7.2-2.9 2.7-5.2 5.6-5.1s5.2 2.7 5.1 5.6c0 .1-.4 10.6 4.3 24.1 6.3 18.1 18.3 32.9 35.7 44.2 2.5 1.6 3.2 4.9 1.6 7.4-1 1.6-2.7 2.5-4.5 2.5"></path><path d="M341.2 450c-2.9 0-5.3-2.4-5.4-5.3 0-1.8.9-3.5 2.4-4.5 17.4-11.2 29.4-26.1 35.7-44.2 4.7-13.6 4.3-24 4.3-24.1-.2-2.9 2.1-5.5 5.1-5.6s5.5 2.1 5.6 5.1c0 .5.6 12.3-4.7 27.7-4.9 14.2-15.7 34.4-40.2 50.1-.7.5-1.7.8-2.8.8M306.8 450H193.2c-2.9 0-5.3-2.4-5.3-5.3v-58.1c0-2.9 2.4-5.3 5.3-5.3h113.6c3 0 5.4 2.4 5.4 5.3v58.1c0 2.9-2.4 5.3-5.4 5.3m-108.2-10.7h102.9v-47.4H198.6z"></path><path d="M306.8 391.9H250c-2.9 0-5.3-2.4-5.3-5.3v-14.9c0-18.6 15.1-33.7 33.8-33.7 18.6 0 33.7 15.1 33.7 33.7v14.9c-.1 2.9-2.5 5.3-5.4 5.3m-51.4-10.7h46.1v-9.6c0-12.7-10.3-23-23-23s-23.1 10.3-23.1 23z"></path><path d="M250 391.9h-56.8c-2.9 0-5.3-2.4-5.3-5.3v-14.9c-.2-18.6 14.7-33.9 33.3-34.1s33.9 14.7 34.2 33.3v15.700000000000001c0 2.9-2.4 5.3-5.4 5.3m-51.4-10.7h46.1v-9.6c.2-12.7-10-23.2-22.7-23.4s-23.2 10-23.4 22.7v10.299999999999999M306.8 420.9H193.2c-3 0-5.3-2.4-5.3-5.3s2.4-5.3 5.3-5.3h113.6c2.9 0 5.3 2.4 5.3 5.3s-2.3 5.3-5.3 5.3"></path></svg>