<svg xmlns="http://www.w3.org/2000/svg" xml:space="preserve" viewBox="0 0 500 500"><path d="M442.7 221.6c-1.9-12.8-5-25.3-9.3-37.4.4-.6.6-1.3.8-2.1l4-23.4c4.9-28-4.3-56.2-24.5-75.5-.5-.5-1-1-1.5-1.4-18.9-17.2-44.6-24.6-70.4-20.4l-25.1 3.8c-.9.1-1.6.4-2.3.9-11.6-4.1-23.7-7-36-8.8-2.1-4.3-6.5-7.3-11.7-7.3h-33.4c-5.1 0-9.6 3-11.7 7.3Q203.15 60 185.9 66l-27.7-4.6c-25.8-4.3-51.5 3.2-70.4 20.4-2 1.9-4 3.8-5.8 5.8-17.2 18.9-24.6 44.6-20.4 70.4l4.3 26c.1.4.2.9.4 1.3-4.1 11.6-7.1 23.7-8.9 36.3-4.4 2.1-7.3 6.5-7.3 11.7v33.4c0 5.2 3 9.6 7.3 11.7 1.8 12.2 4.7 24 8.6 35.5-.3.5-.5 1.1-.6 1.7l-3.5 20.3c-4.9 28 4.3 56.3 24.4 75.5.5.5 1 1 1.5 1.4 15.4 14 35.3 21.5 56.1 21.5 4.7 0 9.5-.4 14.3-1.2l17.8-3c14.5 5.9 29.7 10.1 45.5 12.4 2.1 4.3 6.6 7.3 11.7 7.3h33.4c5.2 0 9.6-3 11.7-7.3 15.8-2.3 31-6.5 45.5-12.4l17.8 2.9c4.8.8 9.6 1.2 14.3 1.2 20.8 0 40.7-7.5 56.1-21.5 1.5-1.4 3-2.9 4.5-4.4 17.9-18.8 26-45.7 21.7-71.9l-3.7-22.5c-.1-.4-.2-.7-.3-1.1 3.8-11.2 6.6-22.7 8.3-34.6 4.3-2.1 7.3-6.5 7.3-11.7V233c.2-4.9-2.8-9.3-7.1-11.4m-63.6 158.1c-16.8 16.7-36.3 29.8-57.5 38.9-.5.1-1 .3-1.4.6-12.9 5.3-26.4 9.2-40.4 11.5v-63c43.2-10.9 77-44.8 87.9-87.9h63c-6.3 38-24.1 72.5-51.6 99.9m-199.3 39.4q-.6-.45-1.5-.6c-21.3-9-40.7-22.1-57.5-38.8-27.6-27.4-45.3-61.9-51.5-100h63c10.9 43 44.8 77 87.9 87.9v63c-14-2.3-27.5-6.1-40.4-11.5M133.7 232c.7 0 1.3.6 1.3 1.3v33.4c0 .7-.6 1.3-1.3 1.3H63c-.7 0-1.3-.6-1.3-1.3v-33.4c0-.7.6-1.3 1.3-1.3zm90.9 124.6c-40.1-9.5-71.8-41.2-81.2-81.3 2.1-2.3 3.3-5.3 3.3-8.6v-33.4c0-3.3-1.3-6.3-3.3-8.6 3.9-16.7 11.9-32.3 23-45.5 2.1-2.5 1.8-6.2-.7-8.2-2.5-2.1-6.2-1.8-8.2.7-11.9 14.1-20.6 30.9-25.1 48.7h-63C82 142.9 143.2 82 220.3 69.4v63c-15.7 3.9-30.2 10.9-43.2 20.7-2.6 1.9-3.1 5.6-1.1 8.2 1.1 1.5 2.9 2.3 4.7 2.3 1.2 0 2.5-.4 3.5-1.2 12.2-9.2 25.8-15.5 40.5-19 2.3 2.1 5.3 3.3 8.6 3.3h33.4c3.3 0 6.3-1.3 8.6-3.3 40.2 9.5 71.8 41.1 81.3 81.3-2.1 2.3-3.3 5.3-3.3 8.6v33.4c0 3.3 1.3 6.3 3.3 8.6-9.5 40.2-41 71.7-81.3 81.3-2.3-2.1-5.3-3.3-8.6-3.3h-33.4c-3.3 0-6.4 1.3-8.7 3.3M437 232c.7 0 1.3.6 1.3 1.3v33.4c0 .7-.6 1.3-1.3 1.3h-70.7c-.7 0-1.3-.6-1.3-1.3v-33.4c0-.7.6-1.3 1.3-1.3zM343.6 73.1c22-3.6 44.7 2.9 60.7 17.4.5.4.9.8 1.3 1.2 17.3 16.5 25.2 40.8 21 65l-1.4 8.1c-7.8-16.1-17.9-31.1-30-44.7-2.2-2.4-5.9-2.6-8.3-.5-2.4 2.2-2.6 5.9-.5 8.3 23.3 26.1 38.6 57.9 44.2 92.3h-63c-10.9-43.1-44.7-77-87.9-87.9v-63c33.6 5.5 64.8 20.2 90.6 42.7 1.1 1 2.5 1.5 3.8 1.5 1.6 0 3.3-.7 4.4-2 2.1-2.4 1.9-6.1-.6-8.3-13.3-11.6-28-21.3-43.6-28.8zM232 63c0-.7.6-1.3 1.3-1.3h33.4c.7 0 1.3.6 1.3 1.3v70.7c0 .7-.6 1.3-1.3 1.3h-33.4c-.7 0-1.3-.6-1.3-1.3zM73.2 156.2c-3.6-21.9 2.9-44.6 17.5-60.6 1.6-1.7 3.3-3.4 5-5 16.3-14.8 38.4-21.1 60.6-17.5l9.1 1.5c-39.5 19.1-71.6 51.1-90.8 90.6zm83.1 265.5c-22.3 3.7-44.4-2.7-60.6-17.5-.4-.4-.9-.8-1.3-1.2-17.3-16.5-25.2-40.8-21-65l.7-4.1c9.5 19.9 22.4 38.2 38.5 54.2 13.5 13.4 28.6 24.6 44.9 33.5zM268 437c0 .7-.6 1.3-1.3 1.3h-33.4c-.7 0-1.3-.6-1.3-1.3v-70.7c0-.7.6-1.3 1.3-1.3h33.4c.7 0 1.3.6 1.3 1.3zm158.8-98.5c3.7 22.6-3.2 45.8-18.6 61.9-1.2 1.3-2.5 2.6-3.9 3.8-16 14.6-38.7 21.1-60.6 17.5l-1.2-.2c16.3-8.8 31.4-20 44.9-33.5 16.1-16.1 29.1-34.4 38.6-54.4z"></path></svg>