<svg xmlns="http://www.w3.org/2000/svg" xml:space="preserve" viewBox="0 0 500 500"><path d="M388.4 442.3H80.5c-15.9 0-28.9-12.9-28.9-28.9v-19.6c-.9-.9-1.6-2.3-1.6-3.9 0-3 2.5-5.5 5.4-5.5h57.2v-185c0-10.6 7.2-19.6 17.9-22.3l58.7-14.5v-15.8c-16.4-2.6-29-16.8-29-34 0-16 19.2-37.5 29.9-52.9 2.1-3 6.8-3 9 0 10.8 15.4 30 36.8 30 52.9 0 17.2-12.6 31.4-29 34v13.1l48.7-12.1c13.9-3.4 27.8 8 27.8 22.4v43.6c3.7.7 7.2 1.8 10.6 3.1 5.7-7.2 13-13.2 21.2-17.3 1.6-.7 3.3-.7 4.9 0 8.2 4.1 15.5 10.1 21.2 17.4 8.4-3.4 17.6-5 27.1-4.4 1.7.2 3.2 1 4.2 2.5 5.1 7.7 8.5 16.4 9.8 25.5 9 1.3 17.8 4.6 25.6 9.8 1.4 1 2.3 2.5 2.4 4.2 1.1 16.3-4.5 32.4-15.2 44.6 34.8 15.1 40.8 61.9 11.3 85.4h44.9c7.1 0 7.1 11 0 11h-27.4v17.9c0 15.9-13 28.8-28.8 28.8m-10.9-135.4-8.9-1H267.7c-11.6 0-21 9.5-21 21.1s9.4 21 21 21h94.1c7.1 0 7.1 11 0 11h-94.1c-27.9 0-41.6-33.1-24.1-53.2-25.1 0-41.3 19.4-41.1 39.9.2 21.3 18 38.8 39.3 38.8h126.8c21.7 0 39.3-17.6 39.3-39.3 0-18.6-13-34.2-30.4-38.3M62.6 395.5v17.9c0 9.9 8 17.9 17.9 17.9h307.9c9.9 0 17.9-8 17.9-17.9v-17.9zM194 329.9c5.4-16.8 19.8-29.9 37-33.7-9-11.8-13.7-26.7-12.7-41.6.1-1.8 1-3.2 2.4-4.2 7.8-5.2 16.4-8.5 25.6-9.8 1.2-8.2 4.5-19.1 10.3-26.1 2-2.5 6.3-2 9.2-1.9v-42.3c0-7.3-7.2-13.5-14.3-11.7l-118.4 29.3c-5.6 1.4-9.5 6.1-9.5 11.6v185.2h87c-16-13-23-35.2-16.6-54.8m50.6-34.9h60.7c-3.6-26.9-28.5-46.6-55.4-43.9-7.3.8-14.4 3.1-20.7 6.8-.2 13.8 5.5 27.5 15.4 37.1m72.2 0c16.5 0 37.5-.5 53.5 0l6.5.6c10.4-9.7 16.2-23.5 16.2-37.7-31.2-18.4-71.5 1.3-76.2 37.1m-122-222.7c-8.8 11.6-23.5 30.2-23.5 40.5 0 13 10.6 23.5 23.5 23.5s23.5-10.5 23.5-23.5c-.1-10.3-14.9-28.8-23.5-40.5m109.6 170.8c-9.6-12.4-24.6-19.8-40.6-19.8-3 5.2-5.2 10.8-6.3 16.6 15.2.7 29.9 7 40.7 17.7 1.5-5 3.6-9.9 6.2-14.5m2.9 25.9c1.4 2.2 2.6 4.5 3.7 6.9 9.6-21 30.6-34.9 53.5-35.9-1.1-5.8-3.2-11.4-6.3-16.6-26.4-.2-48.4 20-50.9 45.6m3.7-35.1c4-4.6 8.6-8.6 13.7-11.9-3.9-4.5-8.5-8.3-13.7-11.3-5.2 2.9-9.8 6.7-13.7 11.3 5.3 3.7 9.4 6.8 13.7 11.9" style="fill-rule:evenodd;clip-rule:evenodd"></path></svg>