<svg xmlns="http://www.w3.org/2000/svg" xml:space="preserve" viewBox="0 0 500 500"><path d="M448.8 274c-1-2-3.5-3-5.5-3.5-11.4 0-109.6-4-109.6-118.1 0-3.5-3-6.5-6.5-6.5s-6.5 3-6.5 6.5c0 114.1-98.2 118.1-109.1 118.1-1.5 0-3 .5-4 1.5-1 .5-1.5 1.5-2 2-1 2-1 4.5 0 6.4 1 2 3.5 3.5 6 3.5h.5c11.4 0 109.1 4 109.1 118.1 0 3.5 3 6.5 6.5 6.5s6.4-3 6.4-6.5c0-113.6 97.7-118.1 109.1-118.1 2.5 0 4.5-1.5 6-3.5 1.1-2 1.1-4.5-.4-6.4m-121.5 79.3c-14.4-47.1-49.6-67.5-77.4-76.4 27.8-8.9 63-29.3 77.4-76.4 14.4 47.1 49.6 67.5 77.4 76.4-27.8 9-63 29.3-77.4 76.4M245.4 145c3.5 0 6.5-3 6.5-6.9 0-3.5-3-6.5-6.5-6.5-6 0-59.5-2-59.5-64.5 0-3.5-3-6.5-6.4-6.5-3.5 0-6.5 3-6.5 6.5 0 62.5-53.6 64.5-59.5 64.5h-.5c-3.5.5-6 3-6 6.5s3 6.4 6.4 6.4c6.5 0 59.5 2 59.5 64.5 0 3.5 3 6.4 6.5 6.4 3 .5 6-2.5 6-6 0-62.5 53.6-64.5 59.5-64.5h.5zM179 173.3c-7.9-18.8-22.3-29.3-35.7-35.2 14.4-6 27.8-17.4 35.7-35.2 7.9 18.8 22.3 29.3 35.7 35.2-14.4 5.9-27.8 17.3-35.7 35.2M188.4 355.3c-6 0-59.5-2-59.5-64.5 0-3.5-3-6.4-6.4-6.4-3.5 0-6.5 3-6.5 6.4 0 62.5-53.6 64.5-59.5 64.5H56c-3.5.5-6 3-6 6.4 0 3.5 3 6.5 6.4 6.5 6.5 0 59.5 2 59.5 64.5 0 3.5 3 6.5 6.5 6.5 3 1 6-2 6-6 0-62.5 53.6-64.5 59.5-64.5h.5c3.5 0 6.5-3 6.5-6.9-.1-3.5-3-6.5-6.5-6.5m-66.5 42.2c-8.4-18.8-22.3-29.3-35.7-35.2 14.4-6 27.8-17.4 35.7-35.2 7.9 18.8 22.3 29.3 35.7 35.2-14.3 5.9-27.7 17.3-35.7 35.2"></path></svg>