<svg xmlns="http://www.w3.org/2000/svg" xml:space="preserve" viewBox="0 0 500 500"><path d="M431.3 113.8H315C310.6 95 298.8 85 283.1 82.5 269.4 55.6 245.6 50 217.5 50c-11.2 0-49.4 1.9-71.3 30-16.2 20.6-20.6 50-12.5 88.1-9.4 5-10 15.6-6.9 25.6 1.9 9.4 8.1 38.1 23.8 41.2 1.9 6.9 5.6 19.4 13.7 31.9V298l-78.8 30.6c-21.1 8.3-35.5 28.9-35.5 52v63.1c0 3.7 2.5 6.2 6.3 6.2h331.2c3.8 0 6.3-2.5 6.3-6.2v-37.5h37.5c10.6 0 18.7-8.1 18.7-18.7v-255c0-10.6-8.8-18.7-18.7-18.7m-272.5 110c-6.9-4.4-6.9 10.6-19.4-33.1-3.7-13.1 3.1-11.9 2.5-11.9 3.8 0 6.9-3.7 6.3-7.5-9.4-36.9-6.3-65 8.1-83.1 15-18.7 43.1-26.9 65-25.6h.6c39.4-1.9 51.2 26.9 51.2 27.5 3.1 8.1 13.7-.6 24.4 13.7 6.3 8.7 11.3 27.5-1.2 66.3-.6 1.9 0 3.7.6 5.6 3.7 5 11.9-1.2 7.5 14.4 0 .6-6.9 32.5-15 32.5-.6 0-2.5-.6-5 .6-1.2.6-2.5 2.5-2.5 4.4-.6 2.5-11.9 60.6-60.6 62.5-48.7-1.9-60-60-60.6-62.5.6-1.3-.7-2.6-1.9-3.8m88.7 213.7h-50.6l18.1-53.1c1.9-5.6-3.1-6.9-15.6-24.4l23.1-6.2L245 360c-20.6 33.7-23.1-.6 2.5 77.5M168.1 310l40.6 34.4L170 355l-16.2-39.4zm66.9 34.4 40-35 13.8 5.6-16.9 40zm32.5-61.3V300l-45.6 39.4-45.6-38.1v-18.1c25.6 25.5 63.7 27.4 91.2-.1m-205 97.5c0-17.5 11.3-33.7 27.5-40l51.9-20 18.8 44.4c1.2 2.5 3.1 3.8 5.6 3.8h1.9l18.1-5 15.6 20-18.7 53.7H62.5zm318.8 56.9H260.6l-18.8-53.7 15.6-20 16.2 4.4h1.9c2.5 0 5-1.2 5.6-3.7l18.7-45 53.1 20.6c16.2 6.3 27.5 22.5 27.5 40v57.5h.9zm57.4-50c0 3.7-3.7 6.2-7.5 6.2h-37.5V380c0-22.5-14.4-43.7-35.6-51.9l-78.1-30v-31.2c7.5-12.5 11.9-25 13.8-31.9 15-3.1 21.9-31.9 23.7-41.2 3.1-10 2.5-20-6.2-25.6 5-16.2 6.9-30.6 6.9-42.5h114.4c3.7 0 6.2 2.5 6.2 6.2v255.6z"></path><path d="M412.5 155h-25c-3.7 0-6.2 2.5-6.2 6.2 0 3.8 2.5 6.3 6.2 6.3h25c3.7 0 6.2-2.5 6.2-6.3 0-3.7-2.5-6.2-6.2-6.2M412.5 205h-25c-3.7 0-6.2 2.5-6.2 6.2 0 3.8 2.5 6.3 6.2 6.3h25c3.7 0 6.2-2.5 6.2-6.3 0-3.7-2.5-6.2-6.2-6.2M412.5 255h-25c-3.7 0-6.2 2.5-6.2 6.2 0 3.8 2.5 6.3 6.2 6.3h25c3.7 0 6.2-2.5 6.2-6.3 0-3.7-2.5-6.2-6.2-6.2M356.3 155h-12.5c-8.1 0-8.1 12.5 0 12.5h12.5c3.7 0 6.2-2.5 6.2-6.3 0-3.7-2.5-6.2-6.2-6.2M356.3 205c-5.6.6-18.7-3.1-18.7 6.2 0 3.8 2.5 6.3 6.2 6.3h12.5c3.7 0 6.2-2.5 6.2-6.3 0-3.7-2.5-6.2-6.2-6.2M356.3 255h-12.5c-3.7 0-6.2 2.5-6.2 6.2 0 3.8 2.5 6.3 6.2 6.3h12.5c3.7 0 6.2-2.5 6.2-6.3 0-3.7-2.5-6.2-6.2-6.2M412.5 304.4h-25c-3.7 0-6.2 2.5-6.2 6.2 0 3.8 2.5 6.3 6.2 6.3h25c3.7 0 6.2-2.5 6.2-6.3 0-3.7-2.5-6.2-6.2-6.2"></path></svg>