<svg xmlns="http://www.w3.org/2000/svg" xml:space="preserve" viewBox="0 0 500 500"><path d="M227.9 302c28.3 0 51.3-23 51.3-51.3s-23-51.3-51.3-51.3-51.3 23-51.3 51.3c.1 28.3 23.1 51.3 51.3 51.3m0-90.5c21.6 0 39.3 17.6 39.3 39.3 0 21.6-17.6 39.2-39.3 39.2s-39.3-17.6-39.3-39.2c.1-21.7 17.7-39.3 39.3-39.3"></path><path d="M437.6 374.8c-39.9-10.4-67.8-46.6-67.8-88v-48.5c0-10.2-8.3-18.4-18.4-18.4h-38.3v-47.2h16.6c5.5 0 10.3-3.3 12.3-8.3 2-5.1.7-10.7-3.2-14.5L235 52.1l-.1-.1c-1.5-1.3-3.4-2-5.3-2s-3.8.7-5.2 1.9l-.1.1-106.9 97.6c-4.1 3.7-5.4 9.4-3.4 14.5s6.8 8.4 12.3 8.4h16.4V255H72.4c-.9 0-1.7.2-2.4.5v-29.8c0-3.3-2.7-6-6-6s-6 2.7-6 6v213.5c0 3.3 2.7 6 6 6s6-2.7 6-6v-24.7c.7.2 1.4.4 2.1.4h70.5v26.4c0 4.7 3.8 8.5 8.5 8.5H186c4.7 0 8.5-3.8 8.5-8.5V340.9h66.7v100.6c0 4.7 3.8 8.5 8.6 8.5h34.9c4.7 0 8.6-3.8 8.6-8.5v-69.8C334.4 417.9 381 450 435 450h1.3c.7 0 1.5-.1 2.1-.4 2.5-1 4.1-3.4 3.9-6.1v-63c-.3-2.7-2.1-5-4.7-5.7M125 159.8c-.3-.7.2-1.2.3-1.3l104.2-95.1 101 95.1c.1.1.6.5.3 1.3-.3.7-.9.7-1.1.7H126.3c-.4.1-1 .1-1.3-.7m176.1 12.8v156.3H154.7V172.6zM70 316.1c.6.2 1.3.4 2 .4h70.6v37.3H72.2c-.8 0-1.5.2-2.2.4zm2.4-49h70.2v37.3H72c-.7 0-1.4.1-2 .4v-38.2c.7.4 1.5.5 2.4.5m-.3 136c-.7 0-1.5.1-2.1.4v-38.1c.7.3 1.4.4 2.2.4h70.4v37.3zM182.4 438h-27.9v-97.1h27.9zm90.7-97.1h28V438h-28zm156.9 97c-64.6-2.5-116.4-55.6-116.9-120.7v-85.4h38.3c3.5 0 6.4 2.9 6.4 6.4v48.5c0 45.2 29.5 85 72.3 98.3v52.9z"></path></svg>