<svg xmlns="http://www.w3.org/2000/svg" xml:space="preserve" viewBox="0 0 500 500"><path d="M432.9 185.2c-6.3-2.9-10.4-4.4-15.7-6.4-1-.4-2-.8-3.2-1.2-1.9-.7-4-.2-5.4 1.3l-23.8 25.4-23.8-25.5c-1.4-1.5-3.5-2-5.4-1.3-1.2.4-2.2.8-3.3 1.2-5.3 2-9.5 3.5-15.7 6.4-10.4 4.7-17.1 15.1-17.1 26.4v67.3c0 14.1 10.3 25.9 23.8 28.1v87.6c0 5.8 4.7 10.4 10.4 10.4h62c5.8 0 10.4-4.7 10.4-10.4V307c13.5-2.2 23.8-14 23.8-28.1v-67.3c.1-11.3-6.6-21.6-17-26.4m7.1 93.7c0 8.6-5.9 15.9-13.9 17.9v-67c0-2.8-2.2-5-5-5-2.7 0-5 2.2-5 5v164.8c0 .2-.2.5-.4.5h-26v-92.6c0-2.8-2.2-5-5-5s-5 2.2-5 5V395h-26c-.2 0-.5-.2-.5-.5V229.8c0-2.8-2.2-5-5-5s-5 2.2-5 5v67c-8-2.1-13.9-9.3-13.9-17.9v-67.3c0-7.4 4.4-14.2 11.3-17.3 6-2.7 9.8-4.2 15.1-6.1.1 0 .1 0 .2-.1l25.2 26.9c.9 1 2.2 1.6 3.6 1.6s2.7-.6 3.6-1.6l25.1-26.8h.1c5.3 2 9.2 3.4 15.1 6.2 6.9 3.1 11.3 9.9 11.3 17.3zm-83.2-158.3c-4.3 5.9-6.7 13-6.7 20.4 0 19.1 15.5 34.6 34.6 34.6s34.6-15.5 34.6-34.6c0-7.4-2.3-14.5-6.7-20.4l8.4-18.5c.7-1.6.6-3.3-.3-4.8-.9-1.4-2.5-2.3-4.2-2.3h-63.6c-1.7 0-3.3.9-4.2 2.3s-1 3.2-.3 4.8zm27.9 45c-13.6 0-24.6-11.1-24.6-24.6 0-5.3 1.7-10.5 4.9-14.7h39.6c3.1 4.2 4.8 9.4 4.8 14.7 0 13.6-11.1 24.6-24.7 24.6m24.1-60.6-5.1 11.4h-37.9l-5.1-11.4zM201.2 318.5c0 2.8-2.2 5-5 5h-38c-2.8 0-5-2.2-5-5s2.2-5 5-5h38c2.7 0 5 2.2 5 5m91-36.1c-2.8-4.4-6.9-7.3-11.7-8.4l-21.6-57c-2.9-7.5-9.9-12.4-18-12.4H113.5c-8 0-15.1 4.9-18 12.4l-21.6 57c-4.8 1.1-9 4.1-11.7 8.4L53 296.8c-2 3.2-3 6.5-3 10.3v78.2c0 10.8 8.8 19.7 19.6 19.7h29.6c10.8 0 19.6-8.8 19.6-19.7V362h116.6v23.3c0 10.8 8.8 19.7 19.7 19.7h29.6c10.9 0 19.7-8.8 19.7-19.7v-78.2c0-3.7-1-7.1-3-10.3zm-187.4-61.9c1.4-3.7 4.7-6 8.6-6h127.4c3.9 0 7.3 2.3 8.6 6l20.1 52.9H84.7zm4.1 164.8c0 5.3-4.4 9.7-9.7 9.7H69.6c-5.3 0-9.7-4.3-9.7-9.7v-25.1c2.3 1.1 4.9 1.8 7.6 1.8h41.4zm175.8 9.7h-29.6c-5.3 0-9.7-4.3-9.7-9.7V362h41.4c2.7 0 5.3-.6 7.6-1.7v25.1c0 5.3-4.3 9.6-9.7 9.6m2.1-43H67.6c-4.2 0-7.6-3.4-7.6-7.6v-37.3c0-1.9.4-3.4 1.4-4.9l9.2-14.5c1.8-2.8 4.5-4.3 7.8-4.3H276c3.3 0 6 1.5 7.8 4.3l9.2 14.5c1 1.6 1.4 3.1 1.4 4.9v37.3c0 4.2-3.4 7.6-7.6 7.6M263 298.9h-30.7c-8.7 0-15.8 7.1-15.8 15.8v8c0 8.7 7.1 15.8 15.8 15.8H263c8.7 0 15.8-7.1 15.8-15.8v-8c0-8.7-7-15.8-15.8-15.8m5.9 23.8c0 3.2-2.6 5.9-5.9 5.9h-30.7c-3.2 0-5.9-2.6-5.9-5.9v-8c0-3.2 2.6-5.9 5.9-5.9H263c3.2 0 5.9 2.6 5.9 5.9zm-146.8-23.8H91.3c-8.7 0-15.8 7.1-15.8 15.8v8c0 8.7 7.1 15.8 15.8 15.8H122c8.7 0 15.8-7.1 15.8-15.8v-8c.1-8.7-7-15.8-15.7-15.8m5.8 23.8c0 3.2-2.6 5.9-5.9 5.9H91.3c-3.2 0-5.9-2.6-5.9-5.9v-8c0-3.2 2.6-5.9 5.9-5.9H122c3.2 0 5.9 2.6 5.9 5.9z"></path></svg>