<svg xmlns="http://www.w3.org/2000/svg" xml:space="preserve" viewBox="0 0 500 500"><path d="M429.9 296.7c-3.2-88.5-70.3-161.5-158.2-172.1 14.8-14.7 25-26.6 25-43 0-29.8-29.3-41.6-46.7-22.5-17.4-19.1-46.7-7.3-46.7 22.5 0 16.4 10.2 28.3 25 43-87.8 10.8-154.8 83.7-158.2 172.1-11 0-20.1 8.9-20.1 19.9s8.9 20 19.9 20.1h6.7c-4 3.2-5.7 4.7-18 16-4.2 3.8-5.5 10-3.2 15.2l31 74.4c3.1 6.7 11 9.6 17.7 6.6 1.6-.7 3-1.8 4.2-3.1 24.7-26.7 20.1-21.6 22.7-24.7 2.9-3.5 8.9-11 12.5-11h110c7.7-.3 15-3.3 20.6-8.5l68.4-64.9H430c11 0 20-9 19.9-20.1.1-11-9-20-20-19.9M244.3 121.6c-17.2-16.7-27.6-26.8-27.6-39.9 0-8.9 4.7-18.4 13.3-18.4 6.1.7 11.5 4.6 13.9 10.3 1.4 3.4 5.4 5 8.8 3.5 1.6-.7 2.8-1.9 3.5-3.5 2.4-5.7 7.7-9.7 13.9-10.4 8.7 0 13.3 9.5 13.3 18.4 0 14.8-14.7 27.4-29.4 41.7-1.3 0-2.6-.1-3.9-.1-4.9.1-3.4.8-5.8-1.6m5.7 15c89.5 0 163 70.6 166.6 160.1H83.4c3.7-89.4 77.2-160 166.6-160.1m15.1 255.2c-3.2 3-7.4 4.7-11.8 4.9H143.5c-9.9 0-17.4 9.2-22.9 15.9l-22 24.3-31-74.4c9.7-10 20.7-18.7 32.6-25.8h150.5c4.2.9 7.4 4.3 8.1 8.5-.1 6.4-5.3 11.5-11.6 11.5h-67.1a6.7 6.7 0 0 0 0 13.4h67.1c17.1 0 30.3-18 22.9-33.4h53.1zm165-68.4H69.9a6.7 6.7 0 0 1 0-13.4H430c3.7 0 6.7 3 6.7 6.7s-2.9 6.7-6.6 6.7"></path><path d="M207.7 161.3c-44.6 14.1-79.3 49.6-92.3 94.5-1 3.5 1 7.2 4.5 8.3 3.5 1 7.2-1 8.3-4.6 11.8-40.7 43.1-72.7 83.5-85.5 3.5-1.2 5.3-5.1 4-8.5-1.1-3.3-4.6-5.1-8-4.2"></path></svg>