<svg xmlns="http://www.w3.org/2000/svg" viewBox="0 0 500 500"><path d="M361.6 88.4c-3.2-3.4-9.9-5.9-14.5-5.5l-171.2 80.8c-10.9 10.3-10.4 19.4-4.2 32.2 10.7 21.7 38.5 47.1 10.4 66.3-37.9 26-83.3 46.6-122.2 71.7l-1.7 2.9c7.2 3.6 13.8 8 21.8 9.9 38.1 9.3 52.6-19.3 87.6-21.2 38.2-2.1 54 25.4 88.1 22.8 21.9-1.7 35-18.9 56.5-21.2 1.6-1.3.6-1.2.1-2.3-1.4-3.3-6-9.1-8.3-12.5-23.9-36-49.6-70.8-73.6-106.8-6.3-10.7-3.4-23.3 6.7-30.2L360.3 113c6.8-6.4 7.6-17.5 1.2-24.5M250 192.8l90.8 133.6c26.9 4.8 39.1 23.8 68.4 21.9 25.8-1.6 45.4-26.2 73.4-22.8 14.3 1.7 14.6 20.6-1.1 22.6-20.2 2.5-19.4 3.7-36.7 12.1-17.8 8.7-31.1 11.6-51.3 9.8-32.3-2.9-43.9-30.8-83.2-19.9-9.9 2.7-16.6 8.8-25.5 12.9-20.4 9.3-46.2 10-67 1.4-14.5-6-21.2-14.9-38.8-16.1-34.3-2.4-43.6 19.2-72.6 21.8-31.9 2.8-36.8-4.7-62.3-16.4-9.6-4.4-15-4-24.7-5.3-22.7-3-12.2-29.8 8.3-21.7l144.1-84c1.2-2-19.7-35.3-22.2-41.1-9.6-22.3-3.1-45.1 17.2-58.2l165.9-78.7c47.6-17.9 77.3 43.5 35.5 69.7L250 193ZM14.4 394.1c10.8-2.4 28.9 2.6 38.9 7.3 8 3.8 14.2 9.5 23.1 12.2 41.2 12.4 52.6-17.1 87.1-19.8 15.2-1.2 30.7.9 44.5 7.5 7.1 3.4 13.8 9.1 21.4 11.7 41.4 14.6 62.1-22.8 106.2-19.1 35.5 2.9 49.4 33.3 90.2 18.7 9.5-3.4 18.1-10.5 27.5-14 10-3.8 40.3-11.4 40.3 6.2s-10.9 9.8-17.9 11c-29.5 5.1-41.5 25.1-76.8 22.7-38.7-2.7-54.8-37.5-99.1-16.1-21.8 10.5-30.6 18.2-57.4 16.1-28.8-2.3-43.6-24.1-72.7-22.8-25.1 1.1-39.7 20.8-67.3 22.8-28.3 2.1-35.8-6.5-58.5-17.1-10.9-5.1-17.6-4-28.3-5.9-11.5-2-11-19.1-1.1-21.3"></path><path d="M393.8 178.5c-63.6 8.1-62.3 106.8 1.8 112.7 85.9 8 83.4-123.6-1.8-112.7m5.2-22.8c50.3-2.3 90 42.5 81.8 92.2-10 60.2-82.5 86.8-129.3 46.9-54.3-46.2-23.4-135.9 47.5-139.1"></path></svg>