<svg xmlns="http://www.w3.org/2000/svg" data-name="Layer 1" viewBox="0 0 66 66"><path d="M65.44 62.85c-.42.52-1.18.61-1.7.19-.12-.09-12.06-9.43-30.76-9.43S2.34 62.95 2.22 63.05c-.52.42-1.29.34-1.71-.19-.42-.52-.33-1.29.19-1.71.49-.4 11.99-9.42 30.6-9.94a35.2 35.2 0 0 1-1.35-12.54c.54-6.78 3.59-15.98 14.73-22.47-1.96-.68-4.94-1.46-8.03-1.36-6.28.2-10.39 3.97-12.2 11.19a1.218 1.218 0 0 1-2.36-.6c2.62-10.47 9.32-12.86 14.47-13.03 3.47-.11 6.73.74 8.89 1.49-1.1-2.54-3.31-6.36-7.09-7.99-3.38-1.44-7.44-.87-12.08 1.72-.59.33-1.32.12-1.65-.47s-.12-1.32.47-1.65c5.33-2.98 10.12-3.59 14.24-1.82 4.43 1.9 6.97 6.1 8.25 9.01 1.28-2.54 3.6-5.96 7.22-7.15 3.2-1.04 6.7-.15 10.4 2.66.55.39.68 1.15.29 1.69-.39.55-1.14.68-1.69.29-.02-.02-.04-.03-.06-.05-3.03-2.29-5.79-3.06-8.18-2.28-3.38 1.09-5.46 4.98-6.36 7.11 2.6.34 5.1 1.17 7.39 2.46 7.52 4.3 9.09 12.17 9.09 18.02 0 .67-.54 1.21-1.21 1.21s-1.21-.54-1.21-1.21c0-13.3-8.33-16.87-12.89-17.83 3.23 4.55 3.47 8.9 3 11.95-.34 2.34-1.19 4.58-2.48 6.58a1.223 1.223 0 0 1-1.69.29c-.55-.38-.69-1.14-.3-1.69.26-.37 5.83-8.61-1.69-17.19-9.09 4.81-14.11 11.95-14.88 21.23-.31 4.2.19 8.41 1.46 12.42 19.09.28 30.91 9.54 31.41 9.95.53.41.62 1.17.21 1.7ZM2.67 36.64c0-4.02 3.26-7.27 7.27-7.27s7.27 3.26 7.27 7.27-3.26 7.27-7.27 7.27-7.27-3.26-7.27-7.27m2.43 0c0 2.68 2.17 4.85 4.85 4.85s4.85-2.17 4.85-4.85-2.17-4.85-4.85-4.85-4.85 2.17-4.85 4.85" style="fill:#000;stroke-width:0"></path></svg>