<svg xmlns="http://www.w3.org/2000/svg" data-name="Layer 8" viewBox="0 0 500 500"><path d="M435.13 226.64c-10.9 1-21.9 1.4-32.8 3.5-49.8 9.5-94.3 41.1-120.1 84.6-13.9 23.3-23.1 51.1-24.3 78.3 77.6-.1 147.8-53.1 170.3-126.9 3.7-12.8 6.6-26.3 6.9-39.5m-192.9 166.3c-4.7-79.9-66.3-147.9-144.5-162.9-10.9-2.1-21.9-2.5-32.9-3.5 4.8 91.5 86 166.7 177.4 166.4m117-164.1c1.1-21.3-3.5-42.3-10-62.4-53.1 23.8-92.4 73.6-102.8 131.1-1.9 10.7-4 27.4-2.5 38 .7 5.4 5.5 11.8 5.4 17.7 2.1.2 1.2-.1 1.6-1.2 16.6-55.7 55-99.7 108.3-123.2m-128.8 79c2.2-16.2 6.2-32 11.7-47.3-16.7-41.7-50.6-75.6-91.4-94-6.3 20.1-11.5 41.2-9.8 62.5 26.7 12.1 50.7 29.8 69.9 52zm20.3-65.6c11.4-24.1 29.3-44.4 49-62.1-10.3-20.4-22.9-39.4-37.3-57l-12.9-13.7c-19.5 21.2-36.4 44.8-49.4 70.7 19.7 17.6 37.2 37.7 48.9 61.6zm-200.7-24.2c2-4 4.7-4.9 9.1-5.4 5.1-.5 15.5.2 21 .7 15.8 1.4 31.1 5.7 46.5 9.4.3-21 4-44 11.9-63.5 3.8-9.4 4.6-10.8 14.6-7.2 12.9 4.6 24.3 12.9 35.9 19.9 8.5-18.2 20.1-35.7 32.5-51.5 3.7-4.7 22-26.6 26-27.9 5.9-1.9 12.6 6.9 16.5 11 18.9 20 34.7 43.8 46.8 68.4 11.6-7 23.1-15.3 36-19.9 10-3.6 10.8-2.2 14.6 7.2 7.9 19.4 11.6 42.5 11.9 63.5 15.3-4 30.6-8 46.5-9.4 3-.2 6.3.1 9.4 0 8.1-.3 20.3-3.9 20.7 8.2.9 24.3-10.9 61-22.3 82.4-43.6 82.8-137.5 118.7-227.8 98.1-80.9-18.4-143.9-90.3-149-173.6l-.8-1.9z" style="fill:#162a53"></path></svg>