<svg xmlns="http://www.w3.org/2000/svg" viewBox="0 0 500 500"><path d="M478.1 405.1c-4.6-2.5-10.4-.9-13 3.7-13.8 24.9-40 40.3-68.4 40.3h-76.2c5.3-3.6 10.4-7.8 15-12.4 24.4-24.4 35.6-59.3 30.1-93.4-.7-4-3.8-7.2-7.9-7.9-24.1-3.9-48.5.6-69.4 12.1-6.3-21.6-19.1-40.6-37.1-54.6h145.4c29.1 0 55.5 16 69.1 41.7 1.7 3.3 5 5.1 8.4 5.1s3-.4 4.4-1.1c4.7-2.5 6.4-8.2 4-12.9-12.9-24.3-35-41.6-60.7-48.5 16-12.9 26.2-32.7 26.2-54.8 0-38.9-31.6-70.5-70.5-70.5h-17.4c8.4-9.7 13.6-22.3 13.6-36.2 0-30.5-24.8-55.3-55.3-55.3h-48.2c-30.5 0-55.3 24.8-55.3 55.3s5.1 26.5 13.6 36.2h-14.3c-17.9 0-34.9 6.7-47.8 18.7l-21.3-26.8c-1.8-2.3-4.6-3.6-7.5-3.6s-5.6 1.3-7.4 3.6l-30.9 38.9c-14.2 17.8-14.1 42.8-.5 60.4H81.4c-1.5 0-3 .4-4.4 1.1-43.9 22.7-71.1 67.6-71.1 116.9s4.8 41.1 14.3 59.8c9.1 17.8 22.3 33.5 38.3 45.5 1.6 1.2 3.6 1.9 5.7 1.9h332.3c35.3 0 67.9-19.2 85-50.1 2.5-4.6.9-10.4-3.7-13M207 379c18.4 18.4 27.7 44.1 25.6 69.8-25.8 2.1-51.5-7.2-69.8-25.6-18.4-18.4-27.7-44.1-25.7-69.8 25.8-2.1 51.5 7.2 69.9 25.6m140.7-25.7c2.1 25.8-7.3 51.5-25.6 69.8-18.4 18.4-44.1 27.7-69.9 25.6-2.1-25.8 7.3-51.5 25.7-69.8 18.4-18.4 44-27.7 69.8-25.6m-76 5.6c-2.5 2.1-5 4.3-7.3 6.6-9.3 9.3-16.7 20.2-22 31.9-5.3-11.8-12.7-22.6-22-31.9-2.3-2.3-4.8-4.5-7.3-6.6 4.1-19.1 14.3-36 29.3-48.7 14.9 12.6 25.1 29.6 29.3 48.7m-37.6-243.2c0-20 16.3-36.2 36.2-36.2h48.2c20 0 36.2 16.3 36.2 36.2s-16.3 36.2-36.2 36.2h-48.2c-20 0-36.2-16.2-36.2-36.2m143.6 55.2c28.4 0 51.4 23.1 51.4 51.4s-23.1 51.5-51.4 51.5H236.4c-10.7-12.1-23.6-22.2-38.1-29.7-1.4-.7-2.9-1.1-4.4-1.1h-17.4c12.9-16.6 13.7-39.8 1.8-57.4 9.6-9.4 22.4-14.7 36-14.7zm-263.4 23.6 23.5-29.5 23.5 29.5c9.5 11.9 8.5 29.1-2.3 39.8-3.4 3.4-7.4 5.8-11.6 7.2v-29.7c0-5.2-4.3-9.5-9.5-9.5s-9.5 4.3-9.5 9.5v29.7c-4.3-1.4-8.3-3.8-11.7-7.2-10.8-10.7-11.8-27.9-2.3-39.8M25.2 361c0-41.5 22.5-79.2 58.8-98.9h107.6c15.2 8.3 28.2 19.9 38.2 34-16 13.6-27.4 31.4-33.3 51.4-20.9-11.5-45.3-16-69.4-12.1-4 .7-7.2 3.8-7.9 7.9-5.5 34.1 5.8 69 30.1 93.4 4.7 4.6 9.7 8.8 15 12.4H67.7c-27.1-21.5-42.5-53.4-42.5-88.1M84.2 110.8c-3.7 3.7-3.7 9.7 0 13.5 1.9 1.9 4.3 2.8 6.7 2.8s4.9-.9 6.7-2.8c14.2-14.2 14.2-37.4 0-51.6-6.8-6.8-6.8-17.8 0-24.6 3.7-3.7 3.7-9.8 0-13.5s-9.8-3.7-13.5 0c-14.2 14.2-14.2 37.4 0 51.6 6.8 6.8 6.8 17.8 0 24.6M33.3 149c-3.7 3.7-3.7 9.7 0 13.5 1.9 1.9 4.3 2.8 6.7 2.8s4.9-.9 6.7-2.8c14.2-14.2 14.2-37.4 0-51.6-6.8-6.8-6.8-17.8 0-24.6 3.7-3.7 3.7-9.8 0-13.5s-9.8-3.7-13.5 0C19 87 19 110.2 33.2 124.4c6.8 6.8 6.8 17.8 0 24.6"></path><path d="M491.1 365.2c-1.8-1.8-4.2-2.8-6.7-2.8s-5 1-6.7 2.8c-1.8 1.8-2.8 4.2-2.8 6.7s1 5 2.8 6.7c1.8 1.8 4.2 2.8 6.7 2.8s5-1 6.7-2.8c1.8-1.8 2.8-4.2 2.8-6.7s-1-5-2.8-6.7"></path></svg>