<svg xmlns="http://www.w3.org/2000/svg" xml:space="preserve" viewBox="0 0 500 500"><path d="M430 336.7H276.7v-33.3H330c29.4 0 53.3-23.9 53.3-53.3v-1.2c9.2-3.2 14.7-12.6 13-22.2s-10-16.6-19.7-16.6H371c2.4-8.8 8.9-16.4 15.6-16.8 10.3-.8 25.2 17.5 32.3 71 .6 3.6 3.9 6 7.5 5.5s6.1-3.7 5.8-7.3c-9.8-73.9-33.1-83.4-46.4-82.6-14.8 1-25.7 15.5-28.4 30.1h-80.6v-35.1c23.5-6.1 39.9-27.3 40-51.6v-1.2c9.2-3.2 14.7-12.6 13-22.2s-10-16.6-19.7-16.6h-5.7c2.3-8.6 8.7-16.2 15.3-16.8 9.1-.9 21.6 12.1 29.5 51.5.6 3.1 3.4 5.3 6.5 5.3.4 0 .9 0 1.3-.1 1.7-.3 3.3-1.4 4.2-2.8 1-1.5 1.3-3.3 1-5-11.4-56.7-32.3-63.2-43.9-62.1-14.4 1.4-25 15.8-27.6 30.1h-14v-6.7C276.7 62 264.8 50 250 50c-14.7 0-26.7 11.9-26.7 26.7v6.7h-14c-2.6-14.2-13.2-28.7-27.6-30-11.5-1.1-32.5 5.4-43.8 62.1-.7 3.6 1.6 7.1 5.2 7.9.4.1.9.1 1.3.1 3.2 0 5.9-2.2 6.5-5.3 7.8-39.3 20.3-52.4 29.4-51.4 6.5.7 12.9 8.2 15.2 16.8H190c-9.7 0-18 7-19.7 16.6-1.6 9.6 3.9 19 13 22.2v1.2c0 24.3 16.5 45.5 40 51.6V210h-80.6c-2.7-14.6-13.6-29.1-28.4-30.1-13.2-.9-36.6 8.7-46.4 82.6-.4 2.4.6 4.8 2.5 6.3s4.5 1.8 6.7.9 3.8-3 4-5.4c7.1-53.5 21.9-71.7 32.3-71 6.7.5 13.2 8 15.6 16.8h-5.7c-9.7 0-18.1 7-19.7 16.6-1.7 9.6 3.9 19 13 22.2v1.2c0 29.4 23.9 53.3 53.3 53.3h53.3v33.3H70c-9.8 0-18.1 7.1-19.7 16.7-1.6 9.7 4.1 19 13.4 22.2 2.9 41.9 37.7 74.4 79.7 74.5h213.3c42-.1 76.8-32.6 79.7-74.5 9.3-3.1 14.9-12.5 13.3-22.2s-9.9-16.8-19.7-16.7m-193.3-260c0-7.4 6-13.3 13.3-13.3 7.4 0 13.3 6 13.3 13.3v6.7h-26.7v-6.7zm-46.7 20h120a6.7 6.7 0 0 1 0 13.4H190a6.7 6.7 0 0 1 0-13.4m6.7 26.6h106.7c0 22.1-17.9 40-40 40h-26.7c-22.1 0-40-17.9-40-40m40 53.4h26.7V210h-26.7zm-113.4 46.6h253.3a6.7 6.7 0 0 1 0 13.4H123.3c-3.7 0-6.7-3-6.7-6.7.1-3.7 3.1-6.7 6.7-6.7M130 250h240c0 22.1-17.9 40-40 40H170c-22.1 0-40-17.9-40-40m106.7 53.3h26.7v33.3h-26.7zm120 133.4H143.3c-34.2 0-62.9-26-66.3-60h346c-3.5 34-32.1 59.9-66.3 60m73.3-73.4H70a6.7 6.7 0 0 1 0-13.4h360a6.7 6.7 0 0 1 0 13.4"></path><path d="M138.5 170c3.5 0 6.4-2.7 6.7-6.2.4-6.2 1-12.7 1.8-19.7.4-3.6-2.2-6.9-5.8-7.3s-6.9 2.1-7.4 5.7c-.9 7.2-1.5 13.9-1.9 20.3-.3 3.7 2.5 6.8 6.2 7.1h.4zM70.4 323.3c3.6 0 6.5-2.9 6.7-6.5.3-8.1.7-15.8 1.2-22.9.3-3.7-2.5-6.9-6.2-7.1-3.7-.3-6.9 2.5-7.1 6.2-.5 7.3-.9 15.2-1.2 23.5-.1 1.8.6 3.5 1.8 4.8s2.9 2.1 4.7 2.1h.1zM353.1 144c.7 6.1 1.3 12.7 1.8 19.7.2 3.5 3.1 6.2 6.7 6.2h.4c1.8-.1 3.4-.9 4.6-2.3 1.2-1.3 1.8-3.1 1.6-4.8-.5-7.2-1.1-14-1.8-20.3-.5-3.6-3.7-6.2-7.3-5.8-3.7.6-6.3 3.8-6 7.3M421.7 293.9c.5 7.1.9 14.9 1.2 22.9.1 3.6 3.1 6.5 6.7 6.5h.2c1.8-.1 3.4-.8 4.6-2.1s1.8-3 1.8-4.8c-.3-8.3-.7-16.2-1.2-23.5-.3-3.7-3.5-6.4-7.1-6.2-3.7.4-6.4 3.6-6.2 7.2"></path></svg>