<svg xmlns="http://www.w3.org/2000/svg" viewBox="0 0 500 500"><defs><linearGradient id="am7_svg__a" x1="-1434.72" x2="-1422.6" y1="2068.5" y2="2068.5" gradientTransform="matrix(28.49 0 0 -28.49 40872.71 59177.54)" gradientUnits="userSpaceOnUse"><stop offset="0" stop-color="#fff"></stop><stop offset="0.1" stop-color="#f9f9f9"></stop><stop offset="0.22" stop-color="#e9e9e9"></stop><stop offset="0.36" stop-color="#cecece"></stop><stop offset="0.51" stop-color="#a8a8a8"></stop><stop offset="0.67" stop-color="#787878"></stop><stop offset="0.84" stop-color="#3e3e3e"></stop><stop offset="1"></stop></linearGradient><linearGradient id="am7_svg__d" x1="-1434.72" x2="-1422.6" y1="2068.5" y2="2068.5" gradientTransform="matrix(28.49 0 0 -28.49 40872.71 59177.54)" gradientUnits="userSpaceOnUse"><stop offset="0" stop-color="#ed2024"></stop><stop offset="0.09" stop-color="#e21e22"></stop><stop offset="0.25" stop-color="#c51a1e"></stop><stop offset="0.46" stop-color="#971416"></stop><stop offset="0.7" stop-color="#560b0d"></stop><stop offset="0.98" stop-color="#050000"></stop><stop offset="1"></stop></linearGradient><clipPath id="am7_svg__b"><path d="M230.38 3.15c-29.32 4.09-53.4 8.77-90.73 26.54C102.47 47.4 52.04 78.17 0 150.39c30.15 116.23 62.92 176.36 103.03 229.87 40.36 53.33 87.86 99.8 202.79 119.75-29-7.23-47.07-13.07-61.21-18.15-14.15-5.27-24.26-9.95-34.3-15-10.14-5-19.98-10.67-30.8-18.22-10.77-7.74-22.52-17.56-34.98-30.49-12.22-12.77-25-28.47-36.64-44.15-11.68-15.69-21.97-31.36-32.41-50.26-10.66-18.89-21.44-40.61-32.11-66.75-10.65-25.9-21.05-55.82-32.18-102.61 18.16-24.77 28.82-37.03 40.39-49.13C62.94 93.23 75.2 81.3 90.59 69.63c15.18-11.58 33.25-23 52.96-32.5 19.95-9.43 41.65-16.95 58.02-21.8 16.38-4.86 27.43-7.04 45.98-9.07 18.68-2.1 46.24-7.19 97.89-3.6C320.21.91 299.36.02 281.27.02c-19.44 0-35.71 1.03-50.89 3.15" style="fill:none"></path></clipPath><mask id="am7_svg__c" width="345.43" height="500.95" x="0" y="-0.95" maskUnits="userSpaceOnUse"><path d="M0-.95h345.43V500H0z" style="fill:url(#am7_svg__a)"></path></mask></defs><path d="M331.77 310.8c-.18-.68-.89-1.2-1.41-1.65-12.45-11.03-27.45-20.49-37.98-33.22l-4.54-9.07c-.75 11.23-3.16 24.98 7.94 31.81 10.05 6.19 24.71 8.94 35.99 12.12m-163.5.01c10.73-2.68 21.83-5.36 31.88-10.08 5.29-2.49 8.76-4.38 11.03-10.12 2.75-6.92 1.52-16.4 1-23.73l-4.56 9.07c-10.48 12.75-25.52 22.21-37.96 33.22-.52.45-1.23.97-1.39 1.65m182.2 40.4c6.83-7.01 4.49-16.13-2.32-22.05-19.81-17.2-67.05-11-69.75-44.22-1.06-12.77 1.57-26.57.52-39.5.8-4.79 5.44-5.51 8.26-1.57 5.99 8.39 8.69 24.3 16.22 31.61l52.62 43.59c5.02 2.32 9.94-1.43 9.08-6.85-.34-2.16-4.61-5.86-6.35-7.56-14.3-13.86-29.65-26.7-43.9-40.61-8.58-15.25-12.86-32.95-20.08-48.9-7.08-15.66-20.44-19.2-36.67-20.04-19.61-1.04-43.47-.5-52.68 19.67-7.35 16.04-11.62 33.88-20.24 49.28-14.21 13.96-29.61 26.75-43.91 40.61-1.74 1.7-6.03 5.4-6.37 7.56-.89 5.74 4.74 9.62 9.64 6.26l52.09-43c7.58-7.47 10.23-23.21 16.22-31.61 2.59-3.61 7.53-3.29 8.21 1.06.91 5.83-.05 15.34.02 21.69.12 8.9 1.89 17.72-1.22 26.55-8.19 23.3-50.49 20.81-68 35.99-8.21 7.15-8.94 16.93 0 23.91 9.6 7.47 28.34 7.55 40.04 6.69 5.65-.43 11.35-1.48 16.97-2.24l-4.99-1.41c-13.61-4.76-11.03-25.59 3-26.98 12.07-1.2 25.21.46 37.26.61 17.81.21 35.64.09 53.45.52 6.08.71 5.52 8.28.55 8.94-7.14.95-15.15-.52-22.24-.61-11.86-.14-23.84.61-35.6-.54-10.01 1.11-23.16-1.47-32.79.04-4.69.73-5.11 7.58-.71 9.57 1.07.46 2.86.68 4.09.89 19.69 3.42 42.16 5.22 62.21 7.31 18.83 1.95 47.04 6.88 64.8 1.93 3.95-1.11 9.71-3.61 12.59-6.58m9.08-22.61c9.17 15.13 1.29 29.61-13.93 35.85-29.45 12.07-78.64-3.54-110.32-4.11-23.37 7.15-75.9 17.09-93.5-4.49-6.44-7.89-7.1-18.81-1.38-27.25-13.12-.52-19.19-15.38-10.59-25.32 7.03-8.1 19.08-17.92 27.27-25.59 7.28-6.79 15.16-12.98 21.94-20.31 10.69-19.49 13.93-54.16 35.22-64.89 18.04-9.07 58.7-9.07 75.6 2.49 17.04 11.66 21.31 44.72 31.06 62.4l50.19 47.12c7.15 10.14.84 23.67-11.57 24.1M248.78 127.97c-29.25 1.73-26.95 46.06 2.07 44.93 29.7-1.13 27.41-46.67-2.07-44.93m-.55-8.87c37.69-2.36 45.69 53.61 8.92 61.76-44.24 9.8-53.12-58.97-8.92-61.76"></path><g style="clip-path:url(#am7_svg__b)"><g style="mask:url(#am7_svg__c)"><path d="M0-.95h345.43V500H0z" style="fill:url(#am7_svg__d)"></path></g></g></svg>