<svg xmlns="http://www.w3.org/2000/svg" viewBox="0 0 500 500"><defs><linearGradient id="am11_svg__a" x1="-3441.71" x2="-3429.58" y1="2068.5" y2="2068.5" gradientTransform="matrix(28.49 0 0 -28.49 98048.32 59177.54)" gradientUnits="userSpaceOnUse"><stop offset="0" stop-color="#fff"></stop><stop offset="0.1" stop-color="#f9f9f9"></stop><stop offset="0.22" stop-color="#e9e9e9"></stop><stop offset="0.36" stop-color="#cecece"></stop><stop offset="0.51" stop-color="#a8a8a8"></stop><stop offset="0.67" stop-color="#787878"></stop><stop offset="0.84" stop-color="#3e3e3e"></stop><stop offset="1"></stop></linearGradient><linearGradient id="am11_svg__d" x1="-3441.71" x2="-3429.58" y1="2068.5" y2="2068.5" gradientTransform="matrix(28.49 0 0 -28.49 98048.32 59177.54)" gradientUnits="userSpaceOnUse"><stop offset="0" stop-color="#ed2024"></stop><stop offset="0.09" stop-color="#e21e22"></stop><stop offset="0.25" stop-color="#c51a1e"></stop><stop offset="0.46" stop-color="#971416"></stop><stop offset="0.7" stop-color="#560b0d"></stop><stop offset="0.98" stop-color="#050000"></stop><stop offset="1"></stop></linearGradient><clipPath id="am11_svg__b"><path d="M230.38 3.15c-29.32 4.09-53.4 8.77-90.73 26.54C102.47 47.4 52.04 78.17 0 150.39c30.15 116.23 62.92 176.36 103.03 229.87 40.36 53.33 87.86 99.8 202.79 119.75-29-7.23-47.07-13.07-61.21-18.15-14.15-5.27-24.26-9.95-34.3-15-10.14-5-19.98-10.67-30.8-18.22-10.77-7.74-22.52-17.56-34.98-30.49-12.22-12.77-25-28.47-36.64-44.15-11.68-15.69-21.97-31.36-32.41-50.26-10.66-18.89-21.44-40.61-32.11-66.75-10.65-25.9-21.05-55.82-32.18-102.61 18.16-24.77 28.82-37.03 40.39-49.13C62.94 93.23 75.2 81.3 90.59 69.63c15.18-11.58 33.25-23 52.96-32.5 19.95-9.43 41.65-16.95 58.02-21.8 16.38-4.86 27.43-7.04 45.98-9.07 18.68-2.1 46.24-7.19 97.89-3.6C320.21.91 299.36.02 281.27.02c-19.44 0-35.71 1.03-50.89 3.15" style="fill:none"></path></clipPath><mask id="am11_svg__c" width="345.43" height="500.95" x="0" y="-0.95" maskUnits="userSpaceOnUse"><path d="M0-.95h345.43V500H0z" style="fill:url(#am11_svg__a)"></path></mask></defs><path d="M169.26 182.35c-.8 0-1.99-.4-2.78-1.19-4.79-4.39-7.57-10.75-7.57-16.72 0-13.52 11.53-23.89 26.26-23.89s26.26 10.75 26.26 23.89c0 5.98-2.38 11.55-6.76 15.92-1.59 1.59-3.98 1.59-5.57 0s-1.59-3.98 0-5.57c2.8-2.78 4.39-6.36 4.39-10.34 0-8.75-8.37-15.92-18.31-15.92s-18.31 7.16-18.31 15.92c0 3.98 1.99 7.97 5.17 11.15 1.59 1.59 1.59 3.98.4 5.57-1.19.79-1.99 1.19-3.18 1.19"></path><path d="M221.79 232.49c-1.59 0-3.18-1.19-3.98-2.78-.79-1.99.4-4.39 2.39-5.19 7.16-2.38 12.74-7.16 15.52-13.12 2.39-5.17 2.8-11.15.8-16.72-4.79-12.34-19.9-18.7-33.83-14.33-1.99.8-4.39-.38-5.17-2.38-.8-1.99.38-4.39 2.38-5.17 17.51-5.57 37.41 2.78 43.38 19.1 2.78 7.57 2.78 15.52-.8 23.08a33.53 33.53 0 0 1-20.29 17.11c.4.4 0 .4-.4.4M149.36 234.08h-1.19c-8.75-2.78-15.92-8.35-19.9-16.32-3.58-7.57-4.39-15.92-1.59-23.87 6.36-16.32 25.86-25.07 43.37-19.11 1.99.8 3.2 2.8 2.39 5.17-.79 1.99-2.78 3.2-5.17 2.39-13.93-4.37-28.66 1.99-33.83 14.33-1.99 5.57-1.59 11.93 1.19 17.51 2.8 5.98 8.37 10.34 15.13 12.34 1.99.8 3.18 2.8 2.78 4.79 0 1.59-1.59 2.78-3.18 2.78"></path><path d="M230.94 242.04c-1.59 0-2.78-.8-3.58-1.99-1.59-2.78-4.39-5.57-7.97-8.35-1.97-1.21-2.38-3.58-.79-5.57 1.19-1.99 3.58-2.39 5.57-.8 4.77 3.2 7.95 6.78 10.34 10.75 1.19 1.99.4 4.39-1.59 5.57-.8.4-1.19.4-1.99.4M166.87 284.23c-10.75 0-21.49-4.77-28.25-13.52-5.17-7.16-7.16-15.53-5.57-23.48 1.59-8.37 6.76-15.52 14.73-20.3 1.99-1.19 4.37-.4 5.57 1.21 1.19 1.97.38 4.37-1.21 5.56-5.96 3.58-9.94 8.75-11.15 15.13-1.19 5.98.4 12.34 3.98 17.11 8.37 11.15 24.67 13.93 36.62 6.38l3.18-1.99c1.19-.8 2.78-.8 4.37 0 6.38 3.98 13.54 5.17 20.71 3.98 1.99-.4 4.37.79 4.77 3.18.4 1.99-.79 4.37-3.18 4.77-7.97 1.59-16.72.4-24.27-3.58l-1.21.8c-5.96 3.18-12.74 4.77-19.1 4.77"></path><path d="M186.77 347.5c-2.39 0-3.98-1.59-3.98-3.98V195.47c0-2.38 1.59-3.97 3.98-3.97s3.98 1.59 3.98 3.97v148.05c0 2.39-1.59 3.98-3.98 3.98"></path><path d="M188.76 246.42c-1.19 0-1.99-.4-2.78-1.19-1.61-1.59-1.61-3.98 0-5.57l17.51-17.91c1.59-1.59 3.97-1.59 5.57 0 1.59 1.59 1.59 3.98 0 5.57l-17.52 17.91c-.79.79-1.59 1.19-2.78 1.19M185.57 255.57c-1.19 0-1.99-.4-2.78-1.19l-19.9-19.9c-1.59-1.59-1.59-3.98 0-5.57s3.98-1.59 5.57 0l19.88 19.9c1.61 1.59 1.61 3.98 0 5.57-.79.79-1.59 1.19-2.78 1.19"></path><path d="M165.28 251.59c-1.19 0-1.99-.4-2.78-1.19-1.61-1.59-1.61-3.98 0-5.57l7.95-7.97c1.59-1.59 3.98-1.59 5.57 0s1.59 3.98 0 5.57l-7.97 7.97c-.79.79-1.59 1.19-2.78 1.19M186.77 228.51c-1.59 0-2.78-.8-3.58-1.99L175.22 211c-1.19-1.99-.38-4.39 1.61-5.17 1.97-1.21 4.37-.4 5.17 1.59l7.95 15.52c1.21 1.99.4 4.39-1.59 5.17-.4.4-.79.4-1.59.4M357.11 263.53H217.42c-5.98 0-11.15-5.17-11.15-11.15v-7.16c0-5.96 5.17-11.15 11.15-11.15h139.69c5.96 0 11.13 5.19 11.13 11.15v7.16c0 5.98-5.17 11.15-11.13 11.15m-139.7-21.49c-1.59 0-3.18 1.59-3.18 3.18v7.16c0 1.59 1.59 3.18 3.18 3.18H357.1c1.59 0 3.18-1.59 3.18-3.18v-7.16c0-1.59-1.59-3.18-3.18-3.18z"></path><path d="M357.11 285.02H217.42c-5.98 0-11.15-5.17-11.15-11.15v-7.16c0-5.96 5.17-11.15 11.15-11.15h139.69c5.96 0 11.13 5.19 11.13 11.15v7.16c0 5.98-5.17 11.15-11.13 11.15m-139.7-21.49c-1.59 0-3.18 1.59-3.18 3.18v7.16c0 1.59 1.59 3.18 3.18 3.18H357.1c1.59 0 3.18-1.59 3.18-3.18v-7.16c0-1.59-1.59-3.18-3.18-3.18zM366.25 318.45H208.26c-5.17 0-8.75-3.58-8.75-8.75v-7.95c0-5.19 3.58-8.77 8.75-8.77h157.99c5.17 0 8.75 3.58 8.75 8.77v7.95c0 5.17-3.58 8.75-8.75 8.75m-157.99-17.51c-.4 0-.8.4-.8.8v7.95c0 .4.4.8.8.8h157.99c.4 0 .8-.4.8-.8v-7.95c0-.4-.4-.8-.8-.8z"></path><path d="M258.8 300.94h-32.24c-2.39 0-3.98-1.59-3.98-3.98v-15.92c0-2.39 1.59-3.98 3.98-3.98h32.24c2.38 0 3.98 1.59 3.98 3.98v15.92c0 2.39-1.61 3.98-3.98 3.98m-28.25-7.96h24.27v-7.97h-24.27zM347.55 300.94h-32.24c-2.39 0-3.98-1.59-3.98-3.98v-15.92c0-2.39 1.59-3.98 3.98-3.98h32.24c2.39 0 3.98 1.59 3.98 3.98v15.92c0 2.39-1.59 3.98-3.98 3.98m-28.25-7.96h24.27v-7.97H319.3zM224.58 347.51c-7.97 0-13.94-5.98-13.94-13.94v-19.1c0-2.38 1.61-3.98 3.98-3.98h20.3c2.38 0 3.98 1.61 3.98 3.98v19.1c-.4 7.97-6.78 13.94-14.33 13.94m-5.96-29.06v15.11c0 3.2 2.78 5.98 5.98 5.98s5.96-2.78 6.36-6.36v-14.73zM349.94 347.51c-7.97 0-13.94-5.98-13.94-13.94v-19.1c0-2.38 1.61-3.98 3.98-3.98h20.3c2.38 0 3.98 1.61 3.98 3.98v19.1c-.4 7.97-6.78 13.94-14.33 13.94m-5.97-29.06v15.11c0 3.2 2.78 5.98 5.98 5.98s5.96-2.78 6.36-6.36v-14.73z"></path><g style="clip-path:url(#am11_svg__b)"><g style="mask:url(#am11_svg__c)"><path d="M0-.95h345.43V500H0z" style="fill:url(#am11_svg__d)"></path></g></g></svg>